<svg width="336" height="273" viewBox="0 0 336 273" fill="none" xmlns="http://www.w3.org/2000/svg">
<g clip-path="url(#clip0)">
<path d="M44.2598 168.261C44.2598 168.261 25.6802 131.855 33.8351 100.974C37.2572 87.9943 36.6304 74.2963 31.5937 61.8708C29.1912 55.9852 26.2549 50.3319 22.8215 44.9817" stroke="#535461" stroke-width="1.92" stroke-miterlimit="10"/>
<path d="M27.8456 25.4715C28.732 30.1947 22.7519 45.4915 22.7519 45.4915C22.7519 45.4915 11.6339 33.4016 10.7475 28.6815C10.3828 26.4404 10.9088 24.1454 12.2131 22.2868C13.5175 20.4282 15.4968 19.1532 17.7285 18.7342C19.9601 18.3151 22.2671 18.7852 24.1569 20.044C26.0466 21.3029 27.3693 23.2507 27.8424 25.4715H27.8456Z" fill="#BDCEAE"/>
<path d="M46.8875 48.9768C45.064 53.4088 31.73 63.0136 31.73 63.0136C31.73 63.0136 28.9663 46.8241 30.7803 42.3763C31.208 41.3113 31.8423 40.3414 32.6465 39.5227C33.4507 38.7039 34.409 38.0523 35.4662 37.6055C36.5233 37.1587 37.6584 36.9255 38.8061 36.9193C39.9538 36.9131 41.0913 37.1341 42.1532 37.5695C43.2151 38.0049 44.1804 38.6462 44.9933 39.4563C45.8063 40.2664 46.451 41.2293 46.8902 42.2897C47.3293 43.35 47.5544 44.4868 47.5523 45.6345C47.5502 46.7821 47.321 47.9181 46.878 48.9768H46.8875Z" fill="#BDCEAE"/>
<path d="M54.6688 93.7878C50.8509 96.7066 34.5 98.2514 34.5 98.2514C34.5 98.2514 40.2869 82.8787 44.1048 79.9631C45.0125 79.2695 46.048 78.7614 47.1521 78.4679C48.2562 78.1745 49.4073 78.1014 50.5396 78.2528C51.672 78.4041 52.7634 78.7771 53.7516 79.3503C54.7399 79.9235 55.6055 80.6857 56.2991 81.5934C56.9928 82.5012 57.5008 83.5367 57.7943 84.6408C58.0878 85.7448 58.1609 86.8959 58.0095 88.0283C57.8581 89.1606 57.4852 90.2521 56.912 91.2403C56.3388 92.2285 55.5765 93.0942 54.6688 93.7878Z" fill="#BDCEAE"/>
<path d="M52.9024 129.019C49.6322 132.539 33.7751 136.826 33.7751 136.826C33.7751 136.826 36.8807 120.696 40.1509 117.176C41.7259 115.505 43.8974 114.525 46.1921 114.449C48.4868 114.373 50.7186 115.207 52.4009 116.769C54.0832 118.332 55.0797 120.496 55.173 122.79C55.2664 125.084 54.4491 127.322 52.8993 129.016L52.9024 129.019Z" fill="#BDCEAE"/>
<path d="M13.9481 67.2937C17.9527 69.9497 34.3701 70.3961 34.3701 70.3961C34.3701 70.3961 27.5638 55.4475 23.5592 52.7915C22.607 52.1602 21.5397 51.7227 20.4184 51.5039C19.2971 51.285 18.1437 51.2892 17.0239 51.5161C15.9042 51.7431 14.8402 52.1883 13.8926 52.8265C12.9449 53.4647 12.1323 54.2832 11.501 55.2354C10.8697 56.1877 10.4322 57.2549 10.2133 58.3762C9.99449 59.4976 9.99867 60.651 10.2256 61.7707C10.4526 62.8904 10.8978 63.9545 11.536 64.9021C12.1741 65.8497 12.9927 66.6624 13.9449 67.2937H13.9481Z" fill="#BDCEAE"/>
<path d="M12.4191 108.524C17.0347 109.86 32.8348 105.358 32.8348 105.358C32.8348 105.358 21.8688 93.1324 17.2531 91.7965C15.0489 91.1936 12.6959 91.4823 10.7028 92.6001C8.70964 93.718 7.23638 95.5752 6.60139 97.7704C5.96641 99.9656 6.22069 102.323 7.30929 104.332C8.3979 106.341 10.2334 107.841 12.4191 108.508V108.524Z" fill="#BDCEAE"/>
<path d="M16.4301 148.798C20.7545 150.894 37.0832 149.143 37.0832 149.143C37.0832 149.143 28.3395 135.24 24.0183 133.144C22.9904 132.645 21.8743 132.354 20.7338 132.286C19.5932 132.218 18.4505 132.376 17.371 132.75C16.2914 133.124 15.296 133.707 14.4418 134.466C13.5875 135.225 12.8911 136.144 12.3922 137.172C11.8933 138.2 11.6018 139.316 11.5343 140.457C11.4667 141.597 11.6245 142.74 11.9986 143.82C12.3726 144.899 12.9557 145.895 13.7144 146.749C14.4731 147.603 15.3927 148.3 16.4206 148.798H16.4301Z" fill="#BDCEAE"/>
<path d="M27.8456 25.4715C28.732 30.1947 22.7519 45.4915 22.7519 45.4915C22.7519 45.4915 11.6339 33.4016 10.7475 28.6815C10.3828 26.4404 10.9088 24.1454 12.2131 22.2868C13.5175 20.4282 15.4968 19.1532 17.7285 18.7342C19.9601 18.3151 22.2671 18.7852 24.1569 20.044C26.0466 21.3029 27.3693 23.2507 27.8424 25.4715H27.8456Z" fill="#ED8989"/>
<path d="M46.8875 48.9768C45.064 53.4088 31.73 63.0136 31.73 63.0136C31.73 63.0136 28.9663 46.8241 30.7803 42.3763C31.208 41.3113 31.8423 40.3414 32.6465 39.5227C33.4507 38.7039 34.409 38.0523 35.4662 37.6055C36.5233 37.1587 37.6584 36.9255 38.8061 36.9193C39.9538 36.9131 41.0913 37.1341 42.1532 37.5695C43.2151 38.0049 44.1804 38.6462 44.9933 39.4563C45.8063 40.2664 46.451 41.2293 46.8902 42.2897C47.3293 43.35 47.5544 44.4868 47.5523 45.6345C47.5502 46.7821 47.321 47.9181 46.878 48.9768H46.8875Z" fill="#ED8989"/>
<path d="M54.6688 93.7878C50.8509 96.7066 34.5 98.2514 34.5 98.2514C34.5 98.2514 40.2869 82.8787 44.1048 79.9631C45.0125 79.2695 46.048 78.7614 47.1521 78.4679C48.2562 78.1745 49.4073 78.1014 50.5396 78.2528C51.672 78.4041 52.7634 78.7771 53.7516 79.3503C54.7399 79.9235 55.6055 80.6857 56.2991 81.5934C56.9928 82.5012 57.5008 83.5367 57.7943 84.6408C58.0878 85.7448 58.1609 86.8959 58.0095 88.0283C57.8581 89.1606 57.4852 90.2521 56.912 91.2403C56.3388 92.2285 55.5765 93.0942 54.6688 93.7878Z" fill="#ED8989"/>
<path d="M52.9024 129.019C49.6322 132.539 33.7751 136.826 33.7751 136.826C33.7751 136.826 36.8807 120.696 40.1509 117.176C41.7259 115.505 43.8974 114.525 46.1921 114.449C48.4868 114.373 50.7186 115.207 52.4009 116.769C54.0832 118.332 55.0797 120.496 55.173 122.79C55.2664 125.084 54.4491 127.322 52.8993 129.016L52.9024 129.019Z" fill="#ED8989"/>
<path d="M13.9481 67.2937C17.9527 69.9497 34.3701 70.3961 34.3701 70.3961C34.3701 70.3961 27.5638 55.4475 23.5592 52.7915C22.607 52.1602 21.5397 51.7227 20.4184 51.5039C19.2971 51.285 18.1437 51.2892 17.0239 51.5161C15.9042 51.7431 14.8402 52.1883 13.8926 52.8265C12.9449 53.4647 12.1323 54.2832 11.501 55.2354C10.8697 56.1877 10.4322 57.2549 10.2133 58.3762C9.99449 59.4976 9.99867 60.651 10.2256 61.7707C10.4526 62.8904 10.8978 63.9545 11.536 64.9021C12.1741 65.8497 12.9927 66.6624 13.9449 67.2937H13.9481Z" fill="#ED8989"/>
<path d="M12.4191 108.524C17.0347 109.86 32.8348 105.358 32.8348 105.358C32.8348 105.358 21.8688 93.1324 17.2531 91.7965C15.0489 91.1936 12.6959 91.4823 10.7028 92.6001C8.70964 93.718 7.23638 95.5752 6.60139 97.7704C5.96641 99.9656 6.22069 102.323 7.30929 104.332C8.3979 106.341 10.2334 107.841 12.4191 108.508V108.524Z" fill="#ED8989"/>
<path d="M16.4301 148.798C20.7545 150.894 37.0832 149.143 37.0832 149.143C37.0832 149.143 28.3395 135.24 24.0183 133.144C22.9904 132.645 21.8743 132.354 20.7338 132.286C19.5932 132.218 18.4505 132.376 17.371 132.75C16.2914 133.124 15.296 133.707 14.4418 134.466C13.5875 135.225 12.8911 136.144 12.3922 137.172C11.8933 138.2 11.6018 139.316 11.5343 140.457C11.4667 141.597 11.6245 142.74 11.9986 143.82C12.3726 144.899 12.9557 145.895 13.7144 146.749C14.4731 147.603 15.3927 148.3 16.4206 148.798H16.4301Z" fill="#ED8989"/>
<path d="M290.812 100.407C290.812 100.407 314.394 63.3431 317.243 47.5145C320.092 31.6858 325.474 17.1235 325.474 17.1235" stroke="#535461" stroke-width="1.92" stroke-miterlimit="10"/>
<path d="M330.856 48.7805L315.977 50.0468C315.977 50.0468 323.891 63.6594 330.856 48.7805Z" fill="#BDCEAE"/>
<path d="M304.897 40.5498L316.68 49.9868C316.68 49.9868 301.415 56.0618 304.897 40.5498Z" fill="#BDCEAE"/>
<path d="M332.755 35.8013L319.358 37.5962C319.358 37.5962 331.172 47.1979 332.755 35.8013Z" fill="#BDCEAE"/>
<path d="M310.595 31.0527L319.44 37.2607C319.44 37.2607 308.696 41.8162 310.595 31.0527Z" fill="#BDCEAE"/>
<path d="M322.723 25.4144C322.723 25.4144 333.705 22.5051 335.288 23.1382C336.871 23.7714 335.921 30.736 331.489 31.0525C327.057 31.3691 322.723 25.4144 322.723 25.4144Z" fill="#BDCEAE"/>
<path d="M315.344 17.1235C315.344 17.1235 322.308 23.7715 322.625 25.3544C322.941 26.9373 316.927 30.7361 313.761 25.3544C310.595 19.9727 315.344 17.1235 315.344 17.1235Z" fill="#BDCEAE"/>
<path d="M328.32 20.9223C330.068 20.9223 331.486 19.5049 331.486 17.7565C331.486 16.0082 330.068 14.5908 328.32 14.5908C326.572 14.5908 325.154 16.0082 325.154 17.7565C325.154 19.5049 326.572 20.9223 328.32 20.9223Z" fill="#FFD037"/>
<path d="M322.622 19.3392C324.37 19.3392 325.788 17.9219 325.788 16.1735C325.788 14.4252 324.37 13.0078 322.622 13.0078C320.873 13.0078 319.456 14.4252 319.456 16.1735C319.456 17.9219 320.873 19.3392 322.622 19.3392Z" fill="#FFD037"/>
<path d="M329.099 83.8471C327.867 68.5915 320.928 53.8899 310.038 45.2791C298.382 36.0605 283.658 34.3384 270.393 28.8174C256.695 23.1001 244.511 13.2705 230.945 7.1417C219.966 2.19552 208.018 -0.229592 195.979 0.0443076C183.94 0.318208 172.116 3.28417 161.372 8.72456C146.608 16.1767 131.646 33.5976 115.204 34.9082C103.49 35.8421 80.0261 24.1068 70.8835 35.209C69.2152 37.235 68.5694 40.0842 67.8507 42.7655C62.0575 64.3526 47.7896 81.7039 31.5431 94.1262C24.6608 99.3813 16.2843 106.428 17.788 115.846C18.5985 120.911 22.1567 124.628 24.8033 128.75C30.3465 137.376 32.1446 149.105 29.5012 159.432C29.4474 159.638 29.3904 159.843 29.3334 160.065L22.4195 163.579C18.7599 165.437 14.8218 167.612 13.3181 171.433C11.7732 175.397 13.3972 179.882 15.572 183.542C17.1296 186.16 18.991 188.661 20.2985 191.387C20.3748 192.281 20.508 193.169 20.6973 194.046C20.9917 195.365 21.4159 196.653 21.9636 197.889C22.0808 202.185 20.4536 206.528 18.1648 210.235C15.3156 214.86 11.5168 218.805 8.31622 223.183C3.86838 229.226 0.534876 236.318 0.0568524 243.827C-0.421171 251.336 2.2507 259.256 8.06612 264.03C13.4035 268.412 20.615 269.729 27.51 270.045C29.2575 270.132 31.0039 270.169 32.7492 270.156C45.0449 270.156 57.2772 267.896 69.3925 265.635L82.5017 263.191C88.5166 262.068 94.8005 260.801 100.546 258.639C100.389 259.845 100.155 261.04 99.8467 262.216C98.8892 265.644 98.4726 269.199 98.612 272.755H163.142C163.142 272.809 163.164 272.863 163.177 272.917H203.166L203.097 272.755H203.166C203.166 272.755 202.555 270.83 201.739 267.326C202.676 266.872 203.55 266.297 204.338 265.616C206.189 264.4 207.689 262.719 208.687 260.741C208.687 260.741 210.612 226.285 208.732 206.718C229.458 192.928 247.252 172.725 269.016 160.939C280.331 154.832 292.645 151.033 303.127 143.138C309.031 138.643 314.105 133.151 318.12 126.91C326.053 114.688 330.33 99.1153 329.099 83.8471Z" fill="url(#paint0_linear)"/>
<path d="M73.2229 37.7005C71.5957 39.6759 70.9689 42.4491 70.2661 45.0671C64.6185 66.116 50.7083 83.0557 34.8639 95.1425C28.1557 100.265 19.985 107.137 21.4539 116.318C22.2422 121.25 25.7118 124.865 28.295 128.899C33.7021 137.31 35.4527 148.748 32.8758 158.815C29.9444 170.271 21.7578 180.975 24.2936 192.548C25.8574 199.69 31.1632 204.755 36.2663 209.118C44.2249 215.92 52.4379 222.29 60.9051 228.229C66.5812 232.212 72.6183 236.087 79.2314 236.59C85.0564 237.036 90.761 234.824 96.2883 232.636C101.119 230.737 106.074 228.739 109.974 224.912C112.506 222.414 114.551 219.188 117.378 217.146C124.026 212.344 132.555 215.389 140.172 217.434C158.298 222.247 177.544 220.485 194.495 212.461C220.736 200.115 240.737 174.235 266.395 160.34C277.431 154.364 289.435 150.657 299.654 142.961C305.412 138.576 310.359 133.219 314.273 127.132C322.01 115.213 326.18 100.018 324.98 85.1451C323.78 70.2726 317.012 55.935 306.397 47.5395C295.032 38.5521 280.679 36.8742 267.744 31.4767C254.388 25.9018 242.51 16.3192 229.283 10.3423C218.579 5.51789 206.93 3.15141 195.192 3.41654C183.454 3.68168 171.924 6.5717 161.448 11.8745C147.054 19.1399 132.466 36.1271 116.432 37.4029C105.004 38.3336 82.1439 26.8895 73.2229 37.7005Z" fill="#FEF9F0"/>
<path d="M162.898 121.405C152.585 151.565 153.756 161.737 153.756 161.737L155.972 178.831C155.972 178.831 111.335 185.163 118.3 164.269C122.292 152.29 121.396 133.023 119.902 118.768C118.79 108.157 117.35 100.322 117.35 100.322L168.635 105.703C166.419 111.462 164.519 116.676 162.898 121.405Z" fill="#C6AB89"/>
<path opacity="0.1" d="M168.635 105.703C166.419 111.455 164.519 116.676 162.886 121.405C156.527 126.018 148.762 128.278 140.921 127.797C133.079 127.316 125.649 124.124 119.902 118.768C118.79 108.157 117.35 100.322 117.35 100.322L168.635 105.703Z" fill="black"/>
<path d="M143.005 127.23C161.713 127.23 176.878 112.065 176.878 93.3571C176.878 74.6494 161.713 59.4839 143.005 59.4839C124.297 59.4839 109.132 74.6494 109.132 93.3571C109.132 112.065 124.297 127.23 143.005 127.23Z" fill="#C6AB89"/>
<path d="M165.786 180.731L145.842 172.184L149.324 145.592C152.238 145.931 155.109 146.568 157.893 147.491C165.573 149.979 175.938 155.598 178.119 168.014C178.121 168.035 178.121 168.057 178.119 168.078C181.614 188.329 165.786 180.731 165.786 180.731Z" fill="#C6AB89"/>
<path opacity="0.05" d="M178.132 168.005L175.454 172.025L164.728 172.741V165.532C164.728 165.532 162.158 157.146 162.158 156.513C162.158 155.88 157.871 148.361 157.871 148.361L156.143 147.016L157.906 147.481C165.586 149.969 175.967 155.589 178.132 168.005Z" fill="black"/>
<path d="M156.143 147.016L162.316 158.571V172.816L170.863 175.032L165.482 160.154C165.482 160.154 159.309 148.282 156.143 147.016Z" fill="#DCB98C"/>
<path d="M100.255 269.371C100.119 265.904 100.525 262.437 101.458 259.095C105.498 244.251 98.6724 195.939 98.6724 195.939C98.6724 195.939 100.572 154.785 125.898 147.82C150.08 141.172 167.052 168.578 168.527 171.066C168.6 171.183 168.635 171.246 168.635 171.246L178.702 166.843L178.765 166.814C178.765 166.865 178.765 166.919 178.765 166.973C178.844 169.224 180.576 173.662 182.972 178.793C186.949 187.315 190.116 196.192 192.431 205.306C194.976 215.31 196.504 225.545 196.993 235.856C197.978 256.069 202.191 269.371 202.191 269.371H100.255Z" fill="#F4CD9C"/>
<path opacity="0.1" d="M192.447 205.294L193.815 214.446L168.489 171.075L168.54 171.053L178.62 166.643L178.715 166.83L178.781 166.96C178.86 169.211 180.592 173.649 182.988 178.781C186.965 187.302 190.132 196.179 192.447 205.294Z" fill="black"/>
<path opacity="0.1" d="M127.351 46.4885C114.004 44.9816 99.8816 48.255 89.4917 56.7676C79.1018 65.2802 73.0299 79.2822 75.3631 92.5086C77.3163 103.513 84.6924 114.07 82.0617 124.929C79.564 135.243 69.1139 141.251 59.6548 146.06L26.6078 162.857C23.0401 164.671 19.1874 166.789 17.7438 170.515C16.2369 174.38 17.8198 178.746 19.9408 182.32C22.0618 185.894 24.7685 189.224 25.7594 193.254C27.0257 198.392 25.2339 203.847 22.4702 208.355C19.7065 212.863 15.9932 216.712 12.8686 220.98C8.52206 226.9 5.28353 233.823 4.80234 241.142C4.32115 248.461 6.94237 256.186 12.609 260.843C17.8103 265.116 24.8413 266.386 31.5685 266.718C45.0608 267.383 58.4771 264.895 71.7731 262.419L84.5532 260.035C96.3201 257.841 109.075 255.087 116.73 245.881C125.594 235.238 124.571 219.771 122.83 206.038C121.089 192.305 119.436 177.071 127.48 165.795C132.739 158.409 141.542 153.829 145.724 145.784C153.379 131.073 142.242 112.953 145.835 96.7665C146.855 92.1825 149.033 87.9436 150.391 83.4483C152.806 75.4485 153.062 63.9158 148.922 56.2991C145.113 49.3187 134.53 47.2958 127.351 46.4885Z" fill="black"/>
<path d="M126.717 46.4885C113.371 44.9816 99.2485 48.255 88.8586 56.7676C78.4687 65.2802 72.3969 79.2822 74.73 92.5086C76.6833 103.513 84.0594 114.07 81.4287 124.929C78.9309 135.243 68.4809 141.251 59.0217 146.06L25.9748 162.857C22.407 164.671 18.5543 166.789 17.1107 170.515C15.6039 174.38 17.1867 178.746 19.3078 182.32C21.4288 185.894 24.1355 189.224 25.1263 193.254C26.3926 198.392 24.6008 203.847 21.8372 208.355C19.0735 212.863 15.3601 216.712 12.2355 220.98C7.889 226.9 4.65047 233.823 4.16928 241.142C3.68809 248.461 6.30931 256.186 11.9759 260.843C17.1772 265.116 24.2083 266.386 30.9354 266.718C44.4277 267.383 57.8441 264.895 71.1401 262.419L83.9201 260.035C95.6871 257.841 108.442 255.087 116.096 245.881C124.96 235.238 123.938 219.771 122.197 206.038C120.456 192.305 118.803 177.071 126.847 165.795C132.106 158.409 140.909 153.829 145.091 145.784C152.746 131.073 141.609 112.953 145.202 96.7665C146.221 92.1825 148.399 87.9436 149.758 83.4483C152.173 75.4485 152.429 63.9158 148.289 56.2991C144.48 49.3187 133.897 47.2958 126.717 46.4885Z" fill="#4A4A76"/>
<path opacity="0.1" d="M126.717 46.4885C113.371 44.9816 99.2485 48.255 88.8586 56.7676C78.4687 65.2802 72.3969 79.2822 74.73 92.5086C76.6833 103.513 84.0594 114.07 81.4287 124.929C78.9309 135.243 68.4809 141.251 59.0217 146.06L25.9748 162.857C22.407 164.671 18.5543 166.789 17.1107 170.515C15.6039 174.38 17.1867 178.746 19.3078 182.32C21.4288 185.894 24.1355 189.224 25.1263 193.254C26.3926 198.392 24.6008 203.847 21.8372 208.355C19.0735 212.863 15.3601 216.712 12.2355 220.98C7.889 226.9 4.65047 233.823 4.16928 241.142C3.68809 248.461 6.30931 256.186 11.9759 260.843C17.1772 265.116 24.2083 266.386 30.9354 266.718C44.4277 267.383 57.8441 264.895 71.1401 262.419L83.9201 260.035C95.6871 257.841 108.442 255.087 116.096 245.881C124.96 235.238 123.938 219.771 122.197 206.038C120.456 192.305 118.803 177.071 126.847 165.795C132.106 158.409 140.909 153.829 145.091 145.784C152.746 131.073 141.609 112.953 145.202 96.7665C146.221 92.1825 148.399 87.9436 149.758 83.4483C152.173 75.4485 152.429 63.9158 148.289 56.2991C144.48 49.3187 133.897 47.2958 126.717 46.4885Z" fill="#4A4A76"/>
<path d="M156.143 147.016L179.886 190.605L196.347 182.155C196.347 182.155 166.906 142.267 163.107 142.901C159.309 143.534 156.143 147.016 156.143 147.016Z" fill="#F4CD9C"/>
<path opacity="0.1" d="M124.026 207.215L161.037 251.96C161.037 251.96 196.493 277.285 206.307 258.608C206.307 258.608 210.422 207.64 205.674 195.61C200.925 183.58 199.342 175.982 199.342 175.982C199.342 175.982 179.715 183.58 178.448 178.198L178.923 229.641C178.923 229.641 156.605 147.491 135.078 157.621C134.778 157.763 134.483 157.905 134.192 158.049C115.767 167.21 110.898 191.349 124.026 207.215Z" fill="black"/>
<path d="M219.141 39.0649C220.539 39.0649 221.673 37.931 221.673 36.5323C221.673 35.1336 220.539 33.9998 219.141 33.9998C217.742 33.9998 216.608 35.1336 216.608 36.5323C216.608 37.931 217.742 39.0649 219.141 39.0649Z" fill="#BDCEAE"/>
<path d="M210.91 72.9381C211.609 72.9381 212.176 72.3712 212.176 71.6718C212.176 70.9725 211.609 70.4055 210.91 70.4055C210.21 70.4055 209.644 70.9725 209.644 71.6718C209.644 72.3712 210.21 72.9381 210.91 72.9381Z" fill="#BDCEAE"/>
<path d="M163.424 37.7987C164.123 37.7987 164.69 37.2318 164.69 36.5324C164.69 35.833 164.123 35.2661 163.424 35.2661C162.725 35.2661 162.158 35.833 162.158 36.5324C162.158 37.2318 162.725 37.7987 163.424 37.7987Z" fill="#BDCEAE"/>
<path d="M58.1511 89.3019C58.8504 89.3019 59.4173 88.7349 59.4173 88.0356C59.4173 87.3362 58.8504 86.7693 58.1511 86.7693C57.4517 86.7693 56.8848 87.3362 56.8848 88.0356C56.8848 88.7349 57.4517 89.3019 58.1511 89.3019Z" fill="#BDCEAE"/>
<path d="M131.45 180.889C132.15 180.889 132.717 180.322 132.717 179.623C132.717 178.924 132.15 178.357 131.45 178.357C130.751 178.357 130.184 178.924 130.184 179.623C130.184 180.322 130.751 180.889 131.45 180.889Z" fill="#BDCEAE"/>
<path d="M45.6591 122.64C46.3585 122.64 46.9254 122.073 46.9254 121.374C46.9254 120.674 46.3585 120.107 45.6591 120.107C44.9598 120.107 44.3928 120.674 44.3928 121.374C44.3928 122.073 44.9598 122.64 45.6591 122.64Z" fill="#BDCEAE"/>
<path d="M265.677 47.2958C266.376 47.2958 266.943 46.7288 266.943 46.0295C266.943 45.3301 266.376 44.7632 265.677 44.7632C264.977 44.7632 264.41 45.3301 264.41 46.0295C264.41 46.7288 264.977 47.2958 265.677 47.2958Z" fill="#BDCEAE"/>
<path d="M193.815 98.5804C194.514 98.5804 195.081 98.0135 195.081 97.3141C195.081 96.6148 194.514 96.0479 193.815 96.0479C193.116 96.0479 192.549 96.6148 192.549 97.3141C192.549 98.0135 193.116 98.5804 193.815 98.5804Z" fill="#BDCEAE"/>
<path d="M302.082 82.1188C302.782 82.1188 303.349 81.5518 303.349 80.8525C303.349 80.1531 302.782 79.5862 302.082 79.5862C301.383 79.5862 300.816 80.1531 300.816 80.8525C300.816 81.5518 301.383 82.1188 302.082 82.1188Z" fill="#BDCEAE"/>
<path d="M219.286 176.359C219.986 176.359 220.553 175.792 220.553 175.093C220.553 174.393 219.986 173.826 219.286 173.826C218.587 173.826 218.02 174.393 218.02 175.093C218.02 175.792 218.587 176.359 219.286 176.359Z" fill="#BDCEAE"/>
<path d="M265.677 83.6415H263.046V81.0107H262.606V83.6415H259.978V84.0815H262.606V86.709H263.046V84.0815H265.677V83.6415Z" fill="#ED8989"/>
<path d="M133.983 240.785H132.815V239.613H132.618V240.785H131.45V240.978H132.618V242.146H132.815V240.978H133.983V240.785Z" fill="#ED8989"/>
<path d="M186.217 205.012H185.046V203.841H184.853V205.012H183.685V205.205H184.853V206.373H185.046V205.205H186.217V205.012Z" fill="#ED8989"/>
<path d="M264.094 132.2H262.923V131.029H262.729V132.2H261.561V132.393H262.729V133.562H262.923V132.393H264.094V132.2Z" fill="#ED8989"/>
<path d="M210.91 150.562H209.738V149.39H209.545V150.562H208.377V150.755H209.545V151.923H209.738V150.755H210.91V150.562Z" fill="#ED8989"/>
<path d="M60.5379 130.934H59.3666V129.763H59.1735V130.934H58.0054V131.127H59.1735V132.295H59.3666V131.127H60.5379V130.934Z" fill="#ED8989"/>
<path d="M187.483 56.5397H186.312V55.3684H186.119V56.5397H184.951V56.7328H186.119V57.901H186.312V56.7328H187.483V56.5397Z" fill="#ED8989"/>
<path d="M85.2308 45.4599H84.0627V44.2886H83.8664V45.4599H82.6982V45.653H83.8664V46.8212H84.0627V45.653H85.2308V45.4599Z" fill="#ED8989"/>
<rect x="174.701" y="20.1408" width="18.2784" height="18.2784" rx="3.0912" stroke="#BDCEAE" stroke-width="1.8816"/>
<circle cx="180.211" cy="26.9951" r="1.344" fill="#BDCEAE"/>
<circle cx="187.2" cy="26.9951" r="1.344" fill="#BDCEAE"/>
<path d="M180.744 30.8038C180.472 30.361 179.893 30.2223 179.45 30.494C179.007 30.7658 178.869 31.3451 179.141 31.788L180.744 30.8038ZM188.002 31.788C188.274 31.3451 188.135 30.7658 187.692 30.494C187.249 30.2223 186.67 30.361 186.398 30.8038L188.002 31.788ZM179.141 31.788C181.169 35.094 185.973 35.094 188.002 31.788L186.398 30.8038C185.104 32.9132 182.039 32.9132 180.744 30.8038L179.141 31.788Z" fill="#BDCEAE"/>
<rect x="219.298" y="60.3628" width="20.8896" height="20.8896" rx="3.5328" transform="rotate(-20 219.298 60.3628)" stroke="#F4CD9C" stroke-width="2.1504"/>
<circle cx="227.895" cy="65.5701" r="1.536" transform="rotate(-20 227.895 65.5701)" fill="#F4CD9C"/>
<circle cx="235.4" cy="62.8384" r="1.536" transform="rotate(-20 235.4 62.8384)" fill="#F4CD9C"/>
<path d="M229.538 71.3822C229.051 71.7228 228.933 72.3932 229.274 72.8796C229.614 73.3661 230.285 73.4843 230.771 73.1437L229.538 71.3822ZM237.565 68.3862C238.052 68.0456 238.17 67.3752 237.829 66.8888C237.489 66.4023 236.818 66.2841 236.332 66.6247L237.565 68.3862ZM230.771 73.1437L234.168 70.765L232.935 69.0035L229.538 71.3822L230.771 73.1437ZM234.168 70.765L237.565 68.3862L236.332 66.6247L232.935 69.0035L234.168 70.765Z" fill="#F4CD9C"/>
<rect x="275.172" y="49.9479" width="17.7174" height="17.7174" rx="2.99633" transform="rotate(5 275.172 49.9479)" stroke="#ED8989" stroke-width="1.82385"/>
<circle cx="279.914" cy="57.0322" r="1.30275" transform="rotate(5 279.914 57.0322)" fill="#ED8989"/>
<circle cx="286.663" cy="57.6225" r="1.30275" transform="rotate(5 286.663 57.6225)" fill="#ED8989"/>
<path d="M279.888 63.2626C279.588 63.6673 279.017 63.7523 278.612 63.4525C278.207 63.1526 278.122 62.5815 278.422 62.1768L279.888 63.2626ZM286.979 62.9255C287.204 63.376 287.021 63.9237 286.571 64.1487C286.12 64.3737 285.572 64.1908 285.347 63.7402L286.979 62.9255ZM278.422 62.1768C280.661 59.1559 285.299 59.5617 286.979 62.9255L285.347 63.7402C284.276 61.594 281.316 61.3351 279.888 63.2626L278.422 62.1768Z" fill="#ED8989"/>
<rect x="275.863" y="88.9676" width="24.3712" height="24.3712" rx="4.1216" transform="rotate(20 275.863 88.9676)" stroke="#BDCEAE" stroke-width="2.5088"/>
<circle cx="279.642" cy="100.069" r="1.792" transform="rotate(20 279.642 100.069)" fill="#BDCEAE"/>
<circle cx="288.398" cy="103.256" r="1.792" transform="rotate(20 288.398 103.256)" fill="#BDCEAE"/>
<path d="M278.573 105.084C278.434 104.405 277.771 103.967 277.093 104.105C276.414 104.244 275.976 104.907 276.114 105.585L278.573 105.084ZM287.217 109.626C287.759 109.195 287.85 108.406 287.419 107.864C286.988 107.321 286.199 107.231 285.656 107.662L287.217 109.626ZM276.114 105.585C277.149 110.653 283.168 112.843 287.217 109.626L285.656 107.662C283.073 109.715 279.232 108.317 278.573 105.084L276.114 105.585Z" fill="#BDCEAE"/>
<rect x="228.461" y="138.221" width="18.2784" height="18.2784" rx="3.0912" stroke="#F4CD9C" stroke-width="1.8816"/>
<circle cx="233.971" cy="145.075" r="1.344" fill="#F4CD9C"/>
<circle cx="240.96" cy="145.075" r="1.344" fill="#F4CD9C"/>
<path d="M233.583 150.346C233.081 150.48 232.783 150.996 232.917 151.498C233.052 152 233.568 152.298 234.07 152.163L233.583 150.346ZM241.08 150.285C241.582 150.15 241.88 149.634 241.745 149.132C241.611 148.631 241.095 148.333 240.593 148.467L241.08 150.285ZM234.07 152.163L237.575 151.224L237.088 149.406L233.583 150.346L234.07 152.163ZM237.575 151.224L241.08 150.285L240.593 148.467L237.088 149.406L237.575 151.224Z" fill="#F4CD9C"/>
<rect x="187.001" y="117.061" width="14.2962" height="14.2962" rx="2.41775" transform="rotate(15 187.001 117.061)" stroke="#ED8989" stroke-width="1.47167"/>
<circle cx="189.777" cy="123.355" r="1.05119" transform="rotate(15 189.777 123.355)" fill="#ED8989"/>
<circle cx="195.057" cy="124.77" r="1.05119" transform="rotate(15 195.057 124.77)" fill="#ED8989"/>
<path d="M188.883 128.303C188.588 128.582 188.122 128.57 187.842 128.275C187.563 127.98 187.575 127.514 187.87 127.234L188.883 128.303ZM194.565 129.028C194.681 129.418 194.458 129.827 194.069 129.943C193.679 130.059 193.27 129.837 193.154 129.447L194.565 129.028ZM187.87 127.234C190.072 125.147 193.701 126.12 194.565 129.028L193.154 129.447C192.603 127.592 190.288 126.971 188.883 128.303L187.87 127.234Z" fill="#ED8989"/>
<path d="M199.975 177.565L194.594 161.737C194.594 161.737 190.795 122.798 175.916 121.532C161.037 120.266 179.715 163.003 179.715 163.003C179.715 163.003 186.363 175.349 183.83 184.53C181.298 193.71 199.975 177.565 199.975 177.565Z" fill="#C6AB89"/>
<path d="M125.293 206.266L162.303 251.01C162.303 251.01 197.759 276.336 207.573 257.658C207.573 257.658 210.422 206.69 205.674 194.66C200.925 182.63 200.608 175.033 200.608 175.033C200.608 175.033 180.981 182.63 179.715 177.249L180.506 241.038C180.506 241.038 157.871 146.541 136.344 156.672C136.045 156.813 135.749 156.955 135.458 157.099C117.033 166.261 112.165 190.399 125.293 206.266Z" fill="#F4CD9C"/>
</g>
<defs>
<linearGradient id="paint0_linear" x1="164.655" y1="272.942" x2="164.655" y2="-0.000168257" gradientUnits="userSpaceOnUse">
<stop stop-color="#F4CD9C" stop-opacity="0.26"/>
<stop offset="0.54" stop-color="#F4CD9C" stop-opacity="0.45"/>
<stop offset="1" stop-color="#F4CD9C" stop-opacity="0.78"/>
</linearGradient>
<clipPath id="clip0">
<rect width="336" height="272.942" fill="white"/>
</clipPath>
</defs>
</svg>
