<svg width="335" height="178" viewBox="0 0 335 178" fill="none" xmlns="http://www.w3.org/2000/svg">
<rect y="80" width="335" height="65" rx="5" fill="#BDCEAE"/>
<path d="M17.692 106.4H23.2C24.544 106.4 25.738 106.664 26.782 107.192C27.826 107.708 28.636 108.446 29.212 109.406C29.788 110.354 30.076 111.452 30.076 112.7C30.076 113.948 29.788 115.052 29.212 116.012C28.636 116.96 27.826 117.698 26.782 118.226C25.738 118.742 24.544 119 23.2 119H17.692V106.4ZM23.092 117.02C24.016 117.02 24.826 116.846 25.522 116.498C26.23 116.138 26.77 115.634 27.142 114.986C27.526 114.326 27.718 113.564 27.718 112.7C27.718 111.836 27.526 111.08 27.142 110.432C26.77 109.772 26.23 109.268 25.522 108.92C24.826 108.56 24.016 108.38 23.092 108.38H20.032V117.02H23.092ZM36.0191 109.28C37.4351 109.28 38.5151 109.622 39.2591 110.306C40.0151 110.978 40.3931 111.998 40.3931 113.366V119H38.2691V117.83C37.9931 118.25 37.5971 118.574 37.0811 118.802C36.5771 119.018 35.9651 119.126 35.2451 119.126C34.5251 119.126 33.8951 119.006 33.3551 118.766C32.8151 118.514 32.3951 118.172 32.0951 117.74C31.8071 117.296 31.6631 116.798 31.6631 116.246C31.6631 115.382 31.9811 114.692 32.6171 114.176C33.2651 113.648 34.2791 113.384 35.6591 113.384H38.1431V113.24C38.1431 112.568 37.9391 112.052 37.5311 111.692C37.1351 111.332 36.5411 111.152 35.7491 111.152C35.2091 111.152 34.6751 111.236 34.1471 111.404C33.6311 111.572 33.1931 111.806 32.8331 112.106L31.9511 110.468C32.4551 110.084 33.0611 109.79 33.7691 109.586C34.4771 109.382 35.2271 109.28 36.0191 109.28ZM35.7131 117.488C36.2771 117.488 36.7751 117.362 37.2071 117.11C37.6511 116.846 37.9631 116.474 38.1431 115.994V114.878H35.8211C34.5251 114.878 33.8771 115.304 33.8771 116.156C33.8771 116.564 34.0391 116.888 34.3631 117.128C34.6871 117.368 35.1371 117.488 35.7131 117.488ZM43.2807 109.388H45.5307V119H43.2807V109.388ZM44.4147 107.804C44.0067 107.804 43.6647 107.678 43.3887 107.426C43.1127 107.162 42.9747 106.838 42.9747 106.454C42.9747 106.07 43.1127 105.752 43.3887 105.5C43.6647 105.236 44.0067 105.104 44.4147 105.104C44.8227 105.104 45.1647 105.23 45.4407 105.482C45.7167 105.722 45.8547 106.028 45.8547 106.4C45.8547 106.796 45.7167 107.132 45.4407 107.408C45.1767 107.672 44.8347 107.804 44.4147 107.804ZM48.4838 105.644H50.7338V119H48.4838V105.644ZM62.6869 109.388L58.1869 119.774C57.7669 120.818 57.2569 121.55 56.6569 121.97C56.0569 122.402 55.3309 122.618 54.4789 122.618C53.9989 122.618 53.5249 122.54 53.0569 122.384C52.5889 122.228 52.2049 122.012 51.9049 121.736L52.8049 120.08C53.0209 120.284 53.2729 120.446 53.5609 120.566C53.8609 120.686 54.1609 120.746 54.4609 120.746C54.8569 120.746 55.1809 120.644 55.4329 120.44C55.6969 120.236 55.9369 119.894 56.1529 119.414L56.3149 119.036L52.1209 109.388H54.4609L57.4849 116.498L60.5269 109.388H62.6869ZM71.8398 108.38H67.6638V106.4H78.3558V108.38H74.1798V119H71.8398V108.38ZM81.8094 110.792C82.4574 109.784 83.5974 109.28 85.2294 109.28V111.422C85.0374 111.386 84.8634 111.368 84.7074 111.368C83.8314 111.368 83.1474 111.626 82.6554 112.142C82.1634 112.646 81.9174 113.378 81.9174 114.338V119H79.6674V109.388H81.8094V110.792ZM90.7574 109.28C92.1734 109.28 93.2534 109.622 93.9974 110.306C94.7534 110.978 95.1314 111.998 95.1314 113.366V119H93.0074V117.83C92.7314 118.25 92.3354 118.574 91.8194 118.802C91.3154 119.018 90.7034 119.126 89.9834 119.126C89.2634 119.126 88.6334 119.006 88.0934 118.766C87.5534 118.514 87.1334 118.172 86.8334 117.74C86.5454 117.296 86.4014 116.798 86.4014 116.246C86.4014 115.382 86.7194 114.692 87.3554 114.176C88.0034 113.648 89.0174 113.384 90.3974 113.384H92.8814V113.24C92.8814 112.568 92.6774 112.052 92.2694 111.692C91.8734 111.332 91.2794 111.152 90.4874 111.152C89.9474 111.152 89.4134 111.236 88.8854 111.404C88.3694 111.572 87.9314 111.806 87.5714 112.106L86.6894 110.468C87.1934 110.084 87.7994 109.79 88.5074 109.586C89.2154 109.382 89.9654 109.28 90.7574 109.28ZM90.4514 117.488C91.0154 117.488 91.5134 117.362 91.9454 117.11C92.3894 116.846 92.7014 116.474 92.8814 115.994V114.878H90.5594C89.2634 114.878 88.6154 115.304 88.6154 116.156C88.6154 116.564 88.7774 116.888 89.1014 117.128C89.4254 117.368 89.8754 117.488 90.4514 117.488ZM102.517 119.126C101.521 119.126 100.627 118.916 99.8349 118.496C99.0429 118.076 98.4249 117.494 97.9809 116.75C97.5369 115.994 97.3149 115.142 97.3149 114.194C97.3149 113.246 97.5369 112.4 97.9809 111.656C98.4249 110.912 99.0369 110.33 99.8169 109.91C100.609 109.49 101.509 109.28 102.517 109.28C103.465 109.28 104.293 109.472 105.001 109.856C105.721 110.24 106.261 110.792 106.621 111.512L104.893 112.52C104.617 112.076 104.269 111.746 103.849 111.53C103.441 111.302 102.991 111.188 102.499 111.188C101.659 111.188 100.963 111.464 100.411 112.016C99.8589 112.556 99.5829 113.282 99.5829 114.194C99.5829 115.106 99.8529 115.838 100.393 116.39C100.945 116.93 101.647 117.2 102.499 117.2C102.991 117.2 103.441 117.092 103.849 116.876C104.269 116.648 104.617 116.312 104.893 115.868L106.621 116.876C106.249 117.596 105.703 118.154 104.983 118.55C104.275 118.934 103.453 119.126 102.517 119.126ZM112.402 114.878L110.728 116.462V119H108.478V105.644H110.728V113.708L115.39 109.388H118.09L114.076 113.42L118.468 119H115.732L112.402 114.878ZM128.553 114.248C128.553 114.404 128.541 114.626 128.517 114.914H120.975C121.107 115.622 121.449 116.186 122.001 116.606C122.565 117.014 123.261 117.218 124.089 117.218C125.145 117.218 126.015 116.87 126.699 116.174L127.905 117.56C127.473 118.076 126.927 118.466 126.267 118.73C125.607 118.994 124.863 119.126 124.035 119.126C122.979 119.126 122.049 118.916 121.245 118.496C120.441 118.076 119.817 117.494 119.373 116.75C118.941 115.994 118.725 115.142 118.725 114.194C118.725 113.258 118.935 112.418 119.355 111.674C119.787 110.918 120.381 110.33 121.137 109.91C121.893 109.49 122.745 109.28 123.693 109.28C124.629 109.28 125.463 109.49 126.195 109.91C126.939 110.318 127.515 110.9 127.923 111.656C128.343 112.4 128.553 113.264 128.553 114.248ZM123.693 111.08C122.973 111.08 122.361 111.296 121.857 111.728C121.365 112.148 121.065 112.712 120.957 113.42H126.411C126.315 112.724 126.021 112.16 125.529 111.728C125.037 111.296 124.425 111.08 123.693 111.08ZM132.856 110.792C133.504 109.784 134.644 109.28 136.276 109.28V111.422C136.084 111.386 135.91 111.368 135.754 111.368C134.878 111.368 134.194 111.626 133.702 112.142C133.21 112.646 132.964 113.378 132.964 114.338V119H130.714V109.388H132.856V110.792Z" fill="#2E404B"/>
<path d="M297.009 105.89C296.396 105.333 295.447 105.378 294.89 105.991C294.333 106.604 294.378 107.553 294.991 108.11L297.009 105.89ZM307 117L305.991 118.11C306.563 118.63 307.437 118.63 308.009 118.11L307 117ZM319.009 108.11C319.622 107.553 319.667 106.604 319.11 105.991C318.553 105.378 317.604 105.333 316.991 105.89L319.009 108.11ZM294.991 108.11L305.991 118.11L308.009 115.89L297.009 105.89L294.991 108.11ZM308.009 118.11L319.009 108.11L316.991 105.89L305.991 115.89L308.009 118.11Z" fill="#2E404B"/>
<path d="M109.848 168.008H103.608L102.264 171H101.032L106.152 159.8H107.32L112.44 171H111.192L109.848 168.008ZM109.416 167.048L106.728 161.032L104.04 167.048H109.416ZM117.463 171.08C116.631 171.08 115.884 170.899 115.223 170.536C114.572 170.173 114.06 169.667 113.687 169.016C113.313 168.355 113.127 167.613 113.127 166.792C113.127 165.971 113.313 165.235 113.687 164.584C114.06 163.933 114.572 163.427 115.223 163.064C115.884 162.701 116.631 162.52 117.463 162.52C118.188 162.52 118.833 162.664 119.399 162.952C119.975 163.229 120.428 163.64 120.759 164.184L119.911 164.76C119.633 164.344 119.281 164.035 118.855 163.832C118.428 163.619 117.964 163.512 117.463 163.512C116.855 163.512 116.305 163.651 115.815 163.928C115.335 164.195 114.956 164.579 114.679 165.08C114.412 165.581 114.279 166.152 114.279 166.792C114.279 167.443 114.412 168.019 114.679 168.52C114.956 169.011 115.335 169.395 115.815 169.672C116.305 169.939 116.855 170.072 117.463 170.072C117.964 170.072 118.428 169.971 118.855 169.768C119.281 169.565 119.633 169.256 119.911 168.84L120.759 169.416C120.428 169.96 119.975 170.376 119.399 170.664C118.823 170.941 118.177 171.08 117.463 171.08ZM126.338 171.08C125.506 171.08 124.759 170.899 124.098 170.536C123.447 170.173 122.935 169.667 122.562 169.016C122.188 168.355 122.002 167.613 122.002 166.792C122.002 165.971 122.188 165.235 122.562 164.584C122.935 163.933 123.447 163.427 124.098 163.064C124.759 162.701 125.506 162.52 126.338 162.52C127.063 162.52 127.708 162.664 128.274 162.952C128.85 163.229 129.303 163.64 129.634 164.184L128.786 164.76C128.508 164.344 128.156 164.035 127.73 163.832C127.303 163.619 126.839 163.512 126.338 163.512C125.73 163.512 125.18 163.651 124.69 163.928C124.21 164.195 123.831 164.579 123.554 165.08C123.287 165.581 123.154 166.152 123.154 166.792C123.154 167.443 123.287 168.019 123.554 168.52C123.831 169.011 124.21 169.395 124.69 169.672C125.18 169.939 125.73 170.072 126.338 170.072C126.839 170.072 127.303 169.971 127.73 169.768C128.156 169.565 128.508 169.256 128.786 168.84L129.634 169.416C129.303 169.96 128.85 170.376 128.274 170.664C127.698 170.941 127.052 171.08 126.338 171.08ZM135.165 171.08C134.354 171.08 133.623 170.899 132.973 170.536C132.322 170.163 131.81 169.651 131.437 169C131.063 168.349 130.877 167.613 130.877 166.792C130.877 165.971 131.063 165.235 131.437 164.584C131.81 163.933 132.322 163.427 132.973 163.064C133.623 162.701 134.354 162.52 135.165 162.52C135.975 162.52 136.706 162.701 137.357 163.064C138.007 163.427 138.514 163.933 138.877 164.584C139.25 165.235 139.437 165.971 139.437 166.792C139.437 167.613 139.25 168.349 138.877 169C138.514 169.651 138.007 170.163 137.357 170.536C136.706 170.899 135.975 171.08 135.165 171.08ZM135.165 170.072C135.762 170.072 136.295 169.939 136.765 169.672C137.245 169.395 137.618 169.005 137.885 168.504C138.151 168.003 138.285 167.432 138.285 166.792C138.285 166.152 138.151 165.581 137.885 165.08C137.618 164.579 137.245 164.195 136.765 163.928C136.295 163.651 135.762 163.512 135.165 163.512C134.567 163.512 134.029 163.651 133.549 163.928C133.079 164.195 132.706 164.579 132.429 165.08C132.162 165.581 132.029 166.152 132.029 166.792C132.029 167.432 132.162 168.003 132.429 168.504C132.706 169.005 133.079 169.395 133.549 169.672C134.029 169.939 134.567 170.072 135.165 170.072ZM142.844 164.232C143.111 163.667 143.505 163.24 144.028 162.952C144.561 162.664 145.217 162.52 145.996 162.52V163.624L145.724 163.608C144.839 163.608 144.145 163.88 143.644 164.424C143.143 164.968 142.892 165.731 142.892 166.712V171H141.756V162.584H142.844V164.232ZM155.655 159.128V171H154.567V169.336C154.225 169.901 153.772 170.333 153.207 170.632C152.652 170.931 152.023 171.08 151.319 171.08C150.529 171.08 149.815 170.899 149.175 170.536C148.535 170.173 148.033 169.667 147.671 169.016C147.308 168.365 147.127 167.624 147.127 166.792C147.127 165.96 147.308 165.219 147.671 164.568C148.033 163.917 148.535 163.416 149.175 163.064C149.815 162.701 150.529 162.52 151.319 162.52C152.001 162.52 152.615 162.664 153.159 162.952C153.713 163.229 154.167 163.64 154.519 164.184V159.128H155.655ZM151.415 170.072C152.001 170.072 152.529 169.939 152.999 169.672C153.479 169.395 153.852 169.005 154.119 168.504C154.396 168.003 154.535 167.432 154.535 166.792C154.535 166.152 154.396 165.581 154.119 165.08C153.852 164.579 153.479 164.195 152.999 163.928C152.529 163.651 152.001 163.512 151.415 163.512C150.817 163.512 150.279 163.651 149.799 163.928C149.329 164.195 148.956 164.579 148.679 165.08C148.412 165.581 148.279 166.152 148.279 166.792C148.279 167.432 148.412 168.003 148.679 168.504C148.956 169.005 149.329 169.395 149.799 169.672C150.279 169.939 150.817 170.072 151.415 170.072ZM158.818 162.584H159.954V171H158.818V162.584ZM159.394 160.744C159.16 160.744 158.962 160.664 158.802 160.504C158.642 160.344 158.562 160.152 158.562 159.928C158.562 159.715 158.642 159.528 158.802 159.368C158.962 159.208 159.16 159.128 159.394 159.128C159.629 159.128 159.826 159.208 159.986 159.368C160.146 159.517 160.226 159.699 160.226 159.912C160.226 160.147 160.146 160.344 159.986 160.504C159.826 160.664 159.629 160.744 159.394 160.744ZM166.555 171.08C165.745 171.08 165.014 170.899 164.363 170.536C163.713 170.163 163.201 169.651 162.827 169C162.454 168.349 162.267 167.613 162.267 166.792C162.267 165.971 162.454 165.235 162.827 164.584C163.201 163.933 163.713 163.427 164.363 163.064C165.014 162.701 165.745 162.52 166.555 162.52C167.366 162.52 168.097 162.701 168.747 163.064C169.398 163.427 169.905 163.933 170.267 164.584C170.641 165.235 170.827 165.971 170.827 166.792C170.827 167.613 170.641 168.349 170.267 169C169.905 169.651 169.398 170.163 168.747 170.536C168.097 170.899 167.366 171.08 166.555 171.08ZM166.555 170.072C167.153 170.072 167.686 169.939 168.155 169.672C168.635 169.395 169.009 169.005 169.275 168.504C169.542 168.003 169.675 167.432 169.675 166.792C169.675 166.152 169.542 165.581 169.275 165.08C169.009 164.579 168.635 164.195 168.155 163.928C167.686 163.651 167.153 163.512 166.555 163.512C165.958 163.512 165.419 163.651 164.939 163.928C164.47 164.195 164.097 164.579 163.819 165.08C163.553 165.581 163.419 166.152 163.419 166.792C163.419 167.432 163.553 168.003 163.819 168.504C164.097 169.005 164.47 169.395 164.939 169.672C165.419 169.939 165.958 170.072 166.555 170.072ZM177.435 162.52C178.491 162.52 179.328 162.829 179.947 163.448C180.576 164.056 180.891 164.947 180.891 166.12V171H179.755V166.232C179.755 165.357 179.536 164.691 179.099 164.232C178.661 163.773 178.037 163.544 177.227 163.544C176.32 163.544 175.6 163.816 175.067 164.36C174.544 164.893 174.283 165.635 174.283 166.584V171H173.147V162.584H174.235V164.136C174.544 163.624 174.971 163.229 175.515 162.952C176.069 162.664 176.709 162.52 177.435 162.52ZM200.034 159.8V171H198.898V162.04L194.498 169.576H193.938L189.538 162.088V171H188.402V159.8H189.378L194.242 168.104L199.058 159.8H200.034ZM210.771 167.144H203.731C203.795 168.019 204.131 168.728 204.739 169.272C205.347 169.805 206.115 170.072 207.043 170.072C207.566 170.072 208.046 169.981 208.483 169.8C208.921 169.608 209.299 169.331 209.619 168.968L210.259 169.704C209.886 170.152 209.417 170.493 208.851 170.728C208.297 170.963 207.683 171.08 207.011 171.08C206.147 171.08 205.379 170.899 204.707 170.536C204.046 170.163 203.529 169.651 203.155 169C202.782 168.349 202.595 167.613 202.595 166.792C202.595 165.971 202.771 165.235 203.123 164.584C203.486 163.933 203.977 163.427 204.595 163.064C205.225 162.701 205.929 162.52 206.707 162.52C207.486 162.52 208.185 162.701 208.803 163.064C209.422 163.427 209.907 163.933 210.259 164.584C210.611 165.224 210.787 165.96 210.787 166.792L210.771 167.144ZM206.707 163.496C205.897 163.496 205.214 163.757 204.659 164.28C204.115 164.792 203.806 165.464 203.731 166.296H209.699C209.625 165.464 209.31 164.792 208.755 164.28C208.211 163.757 207.529 163.496 206.707 163.496ZM217.388 162.52C218.444 162.52 219.281 162.829 219.9 163.448C220.529 164.056 220.844 164.947 220.844 166.12V171H219.708V166.232C219.708 165.357 219.489 164.691 219.052 164.232C218.614 163.773 217.99 163.544 217.18 163.544C216.273 163.544 215.553 163.816 215.02 164.36C214.497 164.893 214.236 165.635 214.236 166.584V171H213.1V162.584H214.188V164.136C214.497 163.624 214.924 163.229 215.468 162.952C216.022 162.664 216.662 162.52 217.388 162.52ZM231.512 162.584V171H230.424V169.464C230.125 169.976 229.714 170.376 229.192 170.664C228.669 170.941 228.072 171.08 227.4 171.08C226.301 171.08 225.432 170.776 224.792 170.168C224.162 169.549 223.848 168.648 223.848 167.464V162.584H224.984V167.352C224.984 168.237 225.202 168.909 225.64 169.368C226.077 169.827 226.701 170.056 227.512 170.056C228.397 170.056 229.096 169.789 229.608 169.256C230.12 168.712 230.376 167.96 230.376 167V162.584H231.512Z" fill="black"/>
<path d="M0 5C0 2.23858 2.23858 0 5 0H330C332.761 0 335 2.23858 335 5V59C335 61.7614 332.761 64 330 64H5C2.23857 64 0 61.7614 0 59V5Z" fill="white"/>
<path d="M17.88 25H24C25.4933 25 26.82 25.2933 27.98 25.88C29.14 26.4533 30.04 27.2733 30.68 28.34C31.32 29.3933 31.64 30.6133 31.64 32C31.64 33.3867 31.32 34.6133 30.68 35.68C30.04 36.7333 29.14 37.5533 27.98 38.14C26.82 38.7133 25.4933 39 24 39H17.88V25ZM23.88 36.8C24.9067 36.8 25.8067 36.6067 26.58 36.22C27.3667 35.82 27.9667 35.26 28.38 34.54C28.8067 33.8067 29.02 32.96 29.02 32C29.02 31.04 28.8067 30.2 28.38 29.48C27.9667 28.7467 27.3667 28.1867 26.58 27.8C25.8067 27.4 24.9067 27.2 23.88 27.2H20.48V36.8H23.88ZM38.2434 28.2C39.8168 28.2 41.0168 28.58 41.8434 29.34C42.6834 30.0867 43.1034 31.22 43.1034 32.74V39H40.7434V37.7C40.4368 38.1667 39.9968 38.5267 39.4234 38.78C38.8634 39.02 38.1834 39.14 37.3834 39.14C36.5834 39.14 35.8834 39.0067 35.2834 38.74C34.6834 38.46 34.2168 38.08 33.8834 37.6C33.5634 37.1067 33.4034 36.5533 33.4034 35.94C33.4034 34.98 33.7568 34.2133 34.4634 33.64C35.1834 33.0533 36.3101 32.76 37.8434 32.76H40.6034V32.6C40.6034 31.8533 40.3768 31.28 39.9234 30.88C39.4834 30.48 38.8234 30.28 37.9434 30.28C37.3434 30.28 36.7501 30.3733 36.1634 30.56C35.5901 30.7467 35.1034 31.0067 34.7034 31.34L33.7234 29.52C34.2834 29.0933 34.9568 28.7667 35.7434 28.54C36.5301 28.3133 37.3634 28.2 38.2434 28.2ZM37.9034 37.32C38.5301 37.32 39.0834 37.18 39.5634 36.9C40.0568 36.6067 40.4034 36.1933 40.6034 35.66V34.42H38.0234C36.5834 34.42 35.8634 34.8933 35.8634 35.84C35.8634 36.2933 36.0434 36.6533 36.4034 36.92C36.7634 37.1867 37.2634 37.32 37.9034 37.32ZM46.3119 28.32H48.8119V39H46.3119V28.32ZM47.5719 26.56C47.1185 26.56 46.7385 26.42 46.4319 26.14C46.1252 25.8467 45.9719 25.4867 45.9719 25.06C45.9719 24.6333 46.1252 24.28 46.4319 24C46.7385 23.7067 47.1185 23.56 47.5719 23.56C48.0252 23.56 48.4052 23.7 48.7119 23.98C49.0185 24.2467 49.1719 24.5867 49.1719 25C49.1719 25.44 49.0185 25.8133 48.7119 26.12C48.4185 26.4133 48.0385 26.56 47.5719 26.56ZM52.0931 24.16H54.5931V39H52.0931V24.16ZM67.8744 28.32L62.8744 39.86C62.4077 41.02 61.841 41.8333 61.1744 42.3C60.5077 42.78 59.701 43.02 58.7544 43.02C58.221 43.02 57.6944 42.9333 57.1744 42.76C56.6544 42.5867 56.2277 42.3467 55.8944 42.04L56.8944 40.2C57.1344 40.4267 57.4144 40.6067 57.7344 40.74C58.0677 40.8733 58.401 40.94 58.7344 40.94C59.1744 40.94 59.5344 40.8267 59.8144 40.6C60.1077 40.3733 60.3744 39.9933 60.6144 39.46L60.7944 39.04L56.1344 28.32H58.7344L62.0944 36.22L65.4744 28.32H67.8744ZM78.0442 27.2H73.4042V25H85.2842V27.2H80.6442V39H78.0442V27.2ZM89.1216 29.88C89.8416 28.76 91.1082 28.2 92.9216 28.2V30.58C92.7082 30.54 92.5149 30.52 92.3416 30.52C91.3682 30.52 90.6082 30.8067 90.0616 31.38C89.5149 31.94 89.2416 32.7533 89.2416 33.82V39H86.7416V28.32H89.1216V29.88ZM99.0638 28.2C100.637 28.2 101.837 28.58 102.664 29.34C103.504 30.0867 103.924 31.22 103.924 32.74V39H101.564V37.7C101.257 38.1667 100.817 38.5267 100.244 38.78C99.6838 39.02 99.0038 39.14 98.2038 39.14C97.4038 39.14 96.7038 39.0067 96.1038 38.74C95.5038 38.46 95.0371 38.08 94.7038 37.6C94.3838 37.1067 94.2238 36.5533 94.2238 35.94C94.2238 34.98 94.5771 34.2133 95.2838 33.64C96.0038 33.0533 97.1304 32.76 98.6638 32.76H101.424V32.6C101.424 31.8533 101.197 31.28 100.744 30.88C100.304 30.48 99.6438 30.28 98.7638 30.28C98.1638 30.28 97.5704 30.3733 96.9838 30.56C96.4104 30.7467 95.9238 31.0067 95.5238 31.34L94.5438 29.52C95.1038 29.0933 95.7771 28.7667 96.5638 28.54C97.3504 28.3133 98.1838 28.2 99.0638 28.2ZM98.7238 37.32C99.3504 37.32 99.9038 37.18 100.384 36.9C100.877 36.6067 101.224 36.1933 101.424 35.66V34.42H98.8438C97.4038 34.42 96.6838 34.8933 96.6838 35.84C96.6838 36.2933 96.8638 36.6533 97.2238 36.92C97.5838 37.1867 98.0838 37.32 98.7238 37.32ZM112.13 39.14C111.023 39.14 110.03 38.9067 109.15 38.44C108.27 37.9733 107.583 37.3267 107.09 36.5C106.597 35.66 106.35 34.7133 106.35 33.66C106.35 32.6067 106.597 31.6667 107.09 30.84C107.583 30.0133 108.263 29.3667 109.13 28.9C110.01 28.4333 111.01 28.2 112.13 28.2C113.183 28.2 114.103 28.4133 114.89 28.84C115.69 29.2667 116.29 29.88 116.69 30.68L114.77 31.8C114.463 31.3067 114.077 30.94 113.61 30.7C113.157 30.4467 112.657 30.32 112.11 30.32C111.177 30.32 110.403 30.6267 109.79 31.24C109.177 31.84 108.87 32.6467 108.87 33.66C108.87 34.6733 109.17 35.4867 109.77 36.1C110.383 36.7 111.163 37 112.11 37C112.657 37 113.157 36.88 113.61 36.64C114.077 36.3867 114.463 36.0133 114.77 35.52L116.69 36.64C116.277 37.44 115.67 38.06 114.87 38.5C114.083 38.9267 113.17 39.14 112.13 39.14ZM123.113 34.42L121.253 36.18V39H118.753V24.16H121.253V33.12L126.433 28.32H129.433L124.973 32.8L129.853 39H126.813L123.113 34.42ZM141.059 33.72C141.059 33.8933 141.046 34.14 141.019 34.46H132.639C132.786 35.2467 133.166 35.8733 133.779 36.34C134.406 36.7933 135.179 37.02 136.099 37.02C137.272 37.02 138.239 36.6333 138.999 35.86L140.339 37.4C139.859 37.9733 139.252 38.4067 138.519 38.7C137.786 38.9933 136.959 39.14 136.039 39.14C134.866 39.14 133.832 38.9067 132.939 38.44C132.046 37.9733 131.352 37.3267 130.859 36.5C130.379 35.66 130.139 34.7133 130.139 33.66C130.139 32.62 130.372 31.6867 130.839 30.86C131.319 30.02 131.979 29.3667 132.819 28.9C133.659 28.4333 134.606 28.2 135.659 28.2C136.699 28.2 137.626 28.4333 138.439 28.9C139.266 29.3533 139.906 30 140.359 30.84C140.826 31.6667 141.059 32.6267 141.059 33.72ZM135.659 30.2C134.859 30.2 134.179 30.44 133.619 30.92C133.072 31.3867 132.739 32.0133 132.619 32.8H138.679C138.572 32.0267 138.246 31.4 137.699 30.92C137.152 30.44 136.472 30.2 135.659 30.2ZM145.84 29.88C146.56 28.76 147.827 28.2 149.64 28.2V30.58C149.427 30.54 149.234 30.52 149.06 30.52C148.087 30.52 147.327 30.8067 146.78 31.38C146.234 31.94 145.96 32.7533 145.96 33.82V39H143.46V28.32H145.84V29.88Z" fill="#2E404B"/>
<path d="M287.009 25.8901C286.396 25.3328 285.447 25.378 284.89 25.991C284.333 26.604 284.378 27.5526 284.991 28.1099L287.009 25.8901ZM297 37L295.991 38.1099C296.563 38.63 297.437 38.63 298.009 38.1099L297 37ZM309.009 28.1099C309.622 27.5526 309.667 26.604 309.11 25.991C308.553 25.378 307.604 25.3328 306.991 25.8901L309.009 28.1099ZM284.991 28.1099L295.991 38.1099L298.009 35.8901L287.009 25.8901L284.991 28.1099ZM298.009 38.1099L309.009 28.1099L306.991 25.8901L295.991 35.8901L298.009 38.1099Z" fill="#2E404B"/>
<path d="M5 3H330V-3H5V3ZM332 5V59H338V5H332ZM330 61H5V67H330V61ZM3 59V5H-3V59H3ZM5 61C3.89543 61 3 60.1046 3 59H-3C-3 63.4183 0.581715 67 5 67V61ZM332 59C332 60.1046 331.105 61 330 61V67C334.418 67 338 63.4183 338 59H332ZM330 3C331.105 3 332 3.89543 332 5H338C338 0.581725 334.418 -3 330 -3V3ZM5 -3C0.581722 -3 -3 0.581722 -3 5H3C3 3.89543 3.89543 3 5 3V-3Z" fill="#BDCEAE"/>
</svg>
