<svg width="86" height="87" viewBox="0 0 86 87" fill="none" xmlns="http://www.w3.org/2000/svg">
<path d="M77.9375 68.6294H78.4375V68.1294V3.62939V3.12939H77.9375L16.9089 3.12939L16.9073 3.1294C14.0753 3.1385 11.3619 4.26754 9.35942 6.27006C7.35689 8.27258 6.22786 10.986 6.21875 13.8179V13.8196V73.2104V73.2865V73.7104H6.22636C6.44186 79.7128 11.2088 84.7549 16.9089 84.7549H77.9375H78.4375V84.2549V78.8794V78.3794H77.9375H16.9089C15.8284 78.3794 14.7536 77.805 13.9352 76.8543C13.119 75.9062 12.5938 74.6217 12.5938 73.286C12.5938 70.7509 14.6678 68.6294 17.0769 68.6294H77.9375ZM52.0072 30.577L44.8438 36.934V9.56033H59.9688V36.9837L52.6689 30.5753L52.3373 30.2841L52.0072 30.577ZM23.3571 62.2544L23.3439 9.50439H38.4688V45.2856V45.7856H38.9688H44.2834H44.4733L44.6153 45.6596L52.3603 38.7872L60.1901 45.6614L60.3316 45.7856H60.52H65.8438H66.3438V45.2856V9.50439H72.0625V62.2544H23.3571ZM16.9814 62.2548C15.461 62.2688 13.9646 62.6114 12.5938 63.2556L12.5938 13.8615L12.5937 13.8599C12.5901 12.7102 13.0426 11.6059 13.8521 10.7893C14.6612 9.97311 15.761 9.51105 16.9103 9.50439H16.9689L16.9814 62.2548Z" fill="#F4CD9C" stroke="#F4CD9C"/>
</svg>
