<svg width="44" height="44" viewBox="0 0 44 44" fill="none" xmlns="http://www.w3.org/2000/svg">
<rect x="2.06659" y="2.06659" width="39.8668" height="39.8668" rx="6.79022" stroke="#BDCEAE" stroke-width="4.13318"/>
<circle cx="14.08" cy="17.0134" r="2.93333" fill="#BDCEAE"/>
<circle cx="29.3333" cy="17.0134" r="2.93333" fill="#BDCEAE"/>
<path d="M15.2547 25.3192C14.6578 24.3464 13.3853 24.0417 12.4125 24.6386C11.4397 25.2356 11.135 26.5081 11.7319 27.4809L15.2547 25.3192ZM31.0947 27.4809C31.6917 26.5081 31.387 25.2356 30.4142 24.6386C29.4414 24.0417 28.1689 24.3464 27.5719 25.3192L31.0947 27.4809ZM11.7319 27.4809C16.1648 34.7049 26.6618 34.7049 31.0947 27.4809L27.5719 25.3192C24.752 29.9145 18.0746 29.9145 15.2547 25.3192L11.7319 27.4809Z" fill="#BDCEAE"/>
</svg>
