<svg width="86" height="87" viewBox="0 0 86 87" fill="none" xmlns="http://www.w3.org/2000/svg">
<rect x="3.5" y="4.12695" width="79" height="79" rx="11.5" stroke="#BDCEAE" stroke-width="7"/>
<ellipse cx="27.52" cy="33.8803" rx="5.73333" ry="5.73333" fill="#BDCEAE"/>
<ellipse cx="57.3332" cy="33.8803" rx="5.73333" ry="5.73333" fill="#BDCEAE"/>
<path d="M29.3564 50.3965C28.3454 48.749 26.1903 48.2329 24.5427 49.2439C22.8952 50.2549 22.3792 52.4101 23.3902 54.0576L29.3564 50.3965ZM60.3164 54.0576C61.3274 52.4101 60.8114 50.2549 59.1639 49.2439C57.5163 48.2329 55.3612 48.749 54.3502 50.3965L60.3164 54.0576ZM23.3902 54.0576C31.844 67.8343 51.8626 67.8343 60.3164 54.0576L54.3502 50.3965C48.6281 59.7213 35.0785 59.7213 29.3564 50.3965L23.3902 54.0576Z" fill="#BDCEAE"/>
<path d="M68.8001 5.29688H17.2001C9.9173 5.29688 4.01343 11.1231 4.01343 18.31V69.2311C4.01343 76.4181 9.9173 82.2442 17.2001 82.2442H68.8001C76.0829 82.2442 81.9868 76.4181 81.9868 69.2311V18.31C81.9868 11.1231 76.0829 5.29688 68.8001 5.29688Z" stroke="#BDCEAE" stroke-width="7"/>
<path d="M27.52 39.8099C30.6864 39.8099 33.2533 37.2768 33.2533 34.152C33.2533 31.0273 30.6864 28.4941 27.52 28.4941C24.3535 28.4941 21.7866 31.0273 21.7866 34.152C21.7866 37.2768 24.3535 39.8099 27.52 39.8099Z" fill="#BDCEAE"/>
<path d="M57.3334 39.8099C60.4999 39.8099 63.0668 37.2768 63.0668 34.152C63.0668 31.0273 60.4999 28.4941 57.3334 28.4941C54.167 28.4941 51.6001 31.0273 51.6001 34.152C51.6001 37.2768 54.167 39.8099 57.3334 39.8099Z" fill="#BDCEAE"/>
<path d="M29.7939 50.1861C28.6346 48.3218 26.1634 47.7378 24.2742 48.8818C22.385 50.0258 21.7934 52.4646 22.9526 54.3289L29.7939 50.1861ZM60.7539 54.3289C61.9132 52.4646 61.3215 50.0258 59.4324 48.8818C57.5431 47.7378 55.0719 48.3218 53.9126 50.1861L60.7539 54.3289ZM22.9526 54.3289C31.6068 68.2464 52.0998 68.2464 60.7539 54.3289L53.9126 50.1861C48.3909 59.066 35.3157 59.066 29.7939 50.1861L22.9526 54.3289Z" fill="#BDCEAE"/>
</svg>
