<svg width="44" height="44" viewBox="0 0 44 44" fill="none" xmlns="http://www.w3.org/2000/svg">
<rect x="2.06659" y="2.06659" width="39.8668" height="39.8668" rx="6.79022" stroke="#ED8989" stroke-width="4.13318"/>
<circle cx="14.08" cy="17.0134" r="2.93333" fill="#ED8989"/>
<circle cx="29.3333" cy="17.0134" r="2.93333" fill="#ED8989"/>
<path d="M15.2547 31.0009C14.6578 31.9737 13.3853 32.2783 12.4125 31.6814C11.4397 31.0845 11.135 29.8119 11.7319 28.8391L15.2547 31.0009ZM31.0947 28.8391C31.6917 29.8119 31.387 31.0845 30.4142 31.6814C29.4414 32.2783 28.1689 31.9737 27.5719 31.0009L31.0947 28.8391ZM11.7319 28.8391C16.1648 21.6152 26.6618 21.6152 31.0947 28.8391L27.5719 31.0009C24.7521 26.4055 18.0746 26.4055 15.2547 31.0009L11.7319 28.8391Z" fill="#ED8989"/>
</svg>
