<svg width="346" height="64" viewBox="0 0 346 64" fill="none" xmlns="http://www.w3.org/2000/svg">
<g filter="url(#filter0_d)">
<rect x="10" y="6" width="44" height="44" rx="8" fill="#BDCEAE"/>
</g>
<path d="M92.688 33.096C91.5787 33.096 90.576 32.8507 89.68 32.36C88.7947 31.8693 88.096 31.192 87.584 30.328C87.0827 29.4533 86.832 28.4773 86.832 27.4C86.832 26.3227 87.0827 25.352 87.584 24.488C88.096 23.6133 88.8 22.9307 89.696 22.44C90.592 21.9493 91.5947 21.704 92.704 21.704C93.536 21.704 94.304 21.8427 95.008 22.12C95.712 22.3973 96.3093 22.8027 96.8 23.336L96.048 24.088C95.1733 23.2027 94.0693 22.76 92.736 22.76C91.8507 22.76 91.0453 22.9627 90.32 23.368C89.5947 23.7733 89.024 24.328 88.608 25.032C88.2027 25.736 88 26.5253 88 27.4C88 28.2747 88.2027 29.064 88.608 29.768C89.024 30.472 89.5947 31.0267 90.32 31.432C91.0453 31.8373 91.8507 32.04 92.736 32.04C94.08 32.04 95.184 31.592 96.048 30.696L96.8 31.448C96.3093 31.9813 95.7067 32.392 94.992 32.68C94.288 32.9573 93.52 33.096 92.688 33.096ZM103.372 24.52C104.428 24.52 105.265 24.8293 105.884 25.448C106.513 26.056 106.828 26.9467 106.828 28.12V33H105.692V28.232C105.692 27.3573 105.473 26.6907 105.036 26.232C104.599 25.7733 103.975 25.544 103.164 25.544C102.257 25.544 101.537 25.816 101.004 26.36C100.481 26.8933 100.22 27.6347 100.22 28.584V33H99.084V21.128H100.22V26.056C100.529 25.5653 100.956 25.1867 101.5 24.92C102.044 24.6533 102.668 24.52 103.372 24.52ZM117.271 29.144H110.231C110.295 30.0187 110.631 30.728 111.239 31.272C111.847 31.8053 112.615 32.072 113.543 32.072C114.066 32.072 114.546 31.9813 114.983 31.8C115.421 31.608 115.799 31.3307 116.119 30.968L116.759 31.704C116.386 32.152 115.917 32.4933 115.351 32.728C114.797 32.9627 114.183 33.08 113.511 33.08C112.647 33.08 111.879 32.8987 111.207 32.536C110.546 32.1627 110.029 31.6507 109.655 31C109.282 30.3493 109.095 29.6133 109.095 28.792C109.095 27.9707 109.271 27.2347 109.623 26.584C109.986 25.9333 110.477 25.4267 111.095 25.064C111.725 24.7013 112.429 24.52 113.207 24.52C113.986 24.52 114.685 24.7013 115.303 25.064C115.922 25.4267 116.407 25.9333 116.759 26.584C117.111 27.224 117.287 27.96 117.287 28.792L117.271 29.144ZM113.207 25.496C112.397 25.496 111.714 25.7573 111.159 26.28C110.615 26.792 110.306 27.464 110.231 28.296H116.199C116.125 27.464 115.81 26.792 115.255 26.28C114.711 25.7573 114.029 25.496 113.207 25.496ZM123.088 33.08C122.256 33.08 121.509 32.8987 120.848 32.536C120.197 32.1733 119.685 31.6667 119.312 31.016C118.938 30.3547 118.752 29.6133 118.752 28.792C118.752 27.9707 118.938 27.2347 119.312 26.584C119.685 25.9333 120.197 25.4267 120.848 25.064C121.509 24.7013 122.256 24.52 123.088 24.52C123.813 24.52 124.458 24.664 125.024 24.952C125.6 25.2293 126.053 25.64 126.384 26.184L125.536 26.76C125.258 26.344 124.906 26.0347 124.48 25.832C124.053 25.6187 123.589 25.512 123.088 25.512C122.48 25.512 121.93 25.6507 121.44 25.928C120.96 26.1947 120.581 26.5787 120.304 27.08C120.037 27.5813 119.904 28.152 119.904 28.792C119.904 29.4427 120.037 30.0187 120.304 30.52C120.581 31.0107 120.96 31.3947 121.44 31.672C121.93 31.9387 122.48 32.072 123.088 32.072C123.589 32.072 124.053 31.9707 124.48 31.768C124.906 31.5653 125.258 31.256 125.536 30.84L126.384 31.416C126.053 31.96 125.6 32.376 125.024 32.664C124.448 32.9413 123.802 33.08 123.088 33.08ZM131.61 28.776L129.626 30.6V33H128.49V21.128H129.626V29.176L134.65 24.584H136.058L132.458 28.024L136.394 33H135.002L131.61 28.776ZM145.084 29.144H138.044C138.108 30.0187 138.444 30.728 139.052 31.272C139.66 31.8053 140.428 32.072 141.356 32.072C141.879 32.072 142.359 31.9813 142.796 31.8C143.233 31.608 143.612 31.3307 143.932 30.968L144.572 31.704C144.199 32.152 143.729 32.4933 143.164 32.728C142.609 32.9627 141.996 33.08 141.324 33.08C140.46 33.08 139.692 32.8987 139.02 32.536C138.359 32.1627 137.841 31.6507 137.468 31C137.095 30.3493 136.908 29.6133 136.908 28.792C136.908 27.9707 137.084 27.2347 137.436 26.584C137.799 25.9333 138.289 25.4267 138.908 25.064C139.537 24.7013 140.241 24.52 141.02 24.52C141.799 24.52 142.497 24.7013 143.116 25.064C143.735 25.4267 144.22 25.9333 144.572 26.584C144.924 27.224 145.1 27.96 145.1 28.792L145.084 29.144ZM141.02 25.496C140.209 25.496 139.527 25.7573 138.972 26.28C138.428 26.792 138.119 27.464 138.044 28.296H144.012C143.937 27.464 143.623 26.792 143.068 26.28C142.524 25.7573 141.841 25.496 141.02 25.496ZM155.092 21.128V33H154.004V31.336C153.663 31.9013 153.209 32.3333 152.644 32.632C152.089 32.9307 151.46 33.08 150.756 33.08C149.967 33.08 149.252 32.8987 148.612 32.536C147.972 32.1733 147.471 31.6667 147.108 31.016C146.745 30.3653 146.564 29.624 146.564 28.792C146.564 27.96 146.745 27.2187 147.108 26.568C147.471 25.9173 147.972 25.416 148.612 25.064C149.252 24.7013 149.967 24.52 150.756 24.52C151.439 24.52 152.052 24.664 152.596 24.952C153.151 25.2293 153.604 25.64 153.956 26.184V21.128H155.092ZM150.852 32.072C151.439 32.072 151.967 31.9387 152.436 31.672C152.916 31.3947 153.289 31.0053 153.556 30.504C153.833 30.0027 153.972 29.432 153.972 28.792C153.972 28.152 153.833 27.5813 153.556 27.08C153.289 26.5787 152.916 26.1947 152.436 25.928C151.967 25.6507 151.439 25.512 150.852 25.512C150.255 25.512 149.716 25.6507 149.236 25.928C148.767 26.1947 148.393 26.5787 148.116 27.08C147.849 27.5813 147.716 28.152 147.716 28.792C147.716 29.432 147.849 30.0027 148.116 30.504C148.393 31.0053 148.767 31.3947 149.236 31.672C149.716 31.9387 150.255 32.072 150.852 32.072ZM162.443 24.584H163.579V33H162.443V24.584ZM163.019 22.744C162.785 22.744 162.587 22.664 162.427 22.504C162.267 22.344 162.187 22.152 162.187 21.928C162.187 21.7147 162.267 21.528 162.427 21.368C162.587 21.208 162.785 21.128 163.019 21.128C163.254 21.128 163.451 21.208 163.611 21.368C163.771 21.5173 163.851 21.6987 163.851 21.912C163.851 22.1467 163.771 22.344 163.611 22.504C163.451 22.664 163.254 22.744 163.019 22.744ZM171.172 32.488C170.959 32.68 170.692 32.8293 170.372 32.936C170.063 33.032 169.738 33.08 169.396 33.08C168.607 33.08 167.999 32.8667 167.572 32.44C167.146 32.0133 166.932 31.4107 166.932 30.632V25.544H165.428V24.584H166.932V22.744H168.068V24.584H170.628V25.544H168.068V30.568C168.068 31.0693 168.191 31.4533 168.436 31.72C168.692 31.976 169.055 32.104 169.524 32.104C169.759 32.104 169.983 32.0667 170.196 31.992C170.42 31.9173 170.612 31.8107 170.772 31.672L171.172 32.488ZM180.271 29.144H173.231C173.295 30.0187 173.631 30.728 174.239 31.272C174.847 31.8053 175.615 32.072 176.543 32.072C177.066 32.072 177.546 31.9813 177.983 31.8C178.421 31.608 178.799 31.3307 179.119 30.968L179.759 31.704C179.386 32.152 178.917 32.4933 178.351 32.728C177.797 32.9627 177.183 33.08 176.511 33.08C175.647 33.08 174.879 32.8987 174.207 32.536C173.546 32.1627 173.029 31.6507 172.655 31C172.282 30.3493 172.095 29.6133 172.095 28.792C172.095 27.9707 172.271 27.2347 172.623 26.584C172.986 25.9333 173.477 25.4267 174.095 25.064C174.725 24.7013 175.429 24.52 176.207 24.52C176.986 24.52 177.685 24.7013 178.303 25.064C178.922 25.4267 179.407 25.9333 179.759 26.584C180.111 27.224 180.287 27.96 180.287 28.792L180.271 29.144ZM176.207 25.496C175.397 25.496 174.714 25.7573 174.159 26.28C173.615 26.792 173.306 27.464 173.231 28.296H179.199C179.125 27.464 178.81 26.792 178.255 26.28C177.711 25.7573 177.029 25.496 176.207 25.496ZM193.096 24.52C194.152 24.52 194.978 24.824 195.576 25.432C196.184 26.04 196.488 26.936 196.488 28.12V33H195.352V28.232C195.352 27.3573 195.138 26.6907 194.712 26.232C194.296 25.7733 193.704 25.544 192.936 25.544C192.061 25.544 191.373 25.816 190.872 26.36C190.37 26.8933 190.12 27.6347 190.12 28.584V33H188.984V28.232C188.984 27.3573 188.77 26.6907 188.344 26.232C187.928 25.7733 187.33 25.544 186.552 25.544C185.688 25.544 185 25.816 184.488 26.36C183.986 26.8933 183.736 27.6347 183.736 28.584V33H182.6V24.584H183.688V26.12C183.986 25.608 184.402 25.2133 184.936 24.936C185.469 24.6587 186.082 24.52 186.776 24.52C187.48 24.52 188.088 24.6693 188.6 24.968C189.122 25.2667 189.512 25.7093 189.768 26.296C190.077 25.7413 190.52 25.3093 191.096 25C191.682 24.68 192.349 24.52 193.096 24.52ZM207.196 33.08C206.385 33.08 205.655 32.8987 205.004 32.536C204.353 32.1627 203.841 31.6507 203.468 31C203.095 30.3493 202.908 29.6133 202.908 28.792C202.908 27.9707 203.095 27.2347 203.468 26.584C203.841 25.9333 204.353 25.4267 205.004 25.064C205.655 24.7013 206.385 24.52 207.196 24.52C208.007 24.52 208.737 24.7013 209.388 25.064C210.039 25.4267 210.545 25.9333 210.908 26.584C211.281 27.2347 211.468 27.9707 211.468 28.792C211.468 29.6133 211.281 30.3493 210.908 31C210.545 31.6507 210.039 32.1627 209.388 32.536C208.737 32.8987 208.007 33.08 207.196 33.08ZM207.196 32.072C207.793 32.072 208.327 31.9387 208.796 31.672C209.276 31.3947 209.649 31.0053 209.916 30.504C210.183 30.0027 210.316 29.432 210.316 28.792C210.316 28.152 210.183 27.5813 209.916 27.08C209.649 26.5787 209.276 26.1947 208.796 25.928C208.327 25.6507 207.793 25.512 207.196 25.512C206.599 25.512 206.06 25.6507 205.58 25.928C205.111 26.1947 204.737 26.5787 204.46 27.08C204.193 27.5813 204.06 28.152 204.06 28.792C204.06 29.432 204.193 30.0027 204.46 30.504C204.737 31.0053 205.111 31.3947 205.58 31.672C206.06 31.9387 206.599 32.072 207.196 32.072ZM218.075 24.52C219.131 24.52 219.968 24.8293 220.587 25.448C221.216 26.056 221.531 26.9467 221.531 28.12V33H220.395V28.232C220.395 27.3573 220.176 26.6907 219.739 26.232C219.302 25.7733 218.678 25.544 217.867 25.544C216.96 25.544 216.24 25.816 215.707 26.36C215.184 26.8933 214.923 27.6347 214.923 28.584V33H213.787V24.584H214.875V26.136C215.184 25.624 215.611 25.2293 216.155 24.952C216.71 24.664 217.35 24.52 218.075 24.52ZM228.803 21.128H229.939V33H228.803V21.128ZM233.1 24.584H234.236V33H233.1V24.584ZM233.676 22.744C233.441 22.744 233.244 22.664 233.084 22.504C232.924 22.344 232.844 22.152 232.844 21.928C232.844 21.7147 232.924 21.528 233.084 21.368C233.244 21.208 233.441 21.128 233.676 21.128C233.91 21.128 234.108 21.208 234.268 21.368C234.428 21.5173 234.508 21.6987 234.508 21.912C234.508 22.1467 234.428 22.344 234.268 22.504C234.108 22.664 233.91 22.744 233.676 22.744ZM239.653 33.08C238.97 33.08 238.314 32.984 237.685 32.792C237.066 32.5893 236.581 32.3387 236.229 32.04L236.741 31.144C237.093 31.4213 237.535 31.6507 238.069 31.832C238.602 32.0027 239.157 32.088 239.733 32.088C240.501 32.088 241.066 31.9707 241.429 31.736C241.802 31.4907 241.989 31.1493 241.989 30.712C241.989 30.4027 241.887 30.1627 241.685 29.992C241.482 29.8107 241.226 29.6773 240.917 29.592C240.607 29.496 240.197 29.4053 239.685 29.32C239.002 29.192 238.453 29.064 238.037 28.936C237.621 28.7973 237.263 28.568 236.965 28.248C236.677 27.928 236.533 27.4853 236.533 26.92C236.533 26.216 236.826 25.64 237.413 25.192C237.999 24.744 238.815 24.52 239.861 24.52C240.405 24.52 240.949 24.5947 241.493 24.744C242.037 24.8827 242.485 25.0693 242.837 25.304L242.341 26.216C241.647 25.736 240.821 25.496 239.861 25.496C239.135 25.496 238.586 25.624 238.213 25.88C237.85 26.136 237.669 26.472 237.669 26.888C237.669 27.208 237.77 27.464 237.973 27.656C238.186 27.848 238.447 27.992 238.757 28.088C239.066 28.1733 239.493 28.264 240.036 28.36C240.709 28.488 241.247 28.616 241.653 28.744C242.058 28.872 242.405 29.0907 242.693 29.4C242.981 29.7093 243.125 30.136 243.125 30.68C243.125 31.416 242.815 32.0027 242.197 32.44C241.589 32.8667 240.741 33.08 239.653 33.08ZM249.657 32.488C249.443 32.68 249.177 32.8293 248.857 32.936C248.547 33.032 248.222 33.08 247.881 33.08C247.091 33.08 246.483 32.8667 246.057 32.44C245.63 32.0133 245.417 31.4107 245.417 30.632V25.544H243.913V24.584H245.417V22.744H246.553V24.584H249.113V25.544H246.553V30.568C246.553 31.0693 246.675 31.4533 246.921 31.72C247.177 31.976 247.539 32.104 248.009 32.104C248.243 32.104 248.467 32.0667 248.681 31.992C248.905 31.9173 249.097 31.8107 249.257 31.672L249.657 32.488Z" fill="#2E404B"/>
<path d="M40 24L29 35L24 30" stroke="black" stroke-width="3" stroke-linecap="round" stroke-linejoin="round"/>
<defs>
<filter id="filter0_d" x="0" y="0" width="64" height="64" filterUnits="userSpaceOnUse" color-interpolation-filters="sRGB">
<feFlood flood-opacity="0" result="BackgroundImageFix"/>
<feColorMatrix in="SourceAlpha" type="matrix" values="0 0 0 0 0 0 0 0 0 0 0 0 0 0 0 0 0 0 127 0"/>
<feOffset dy="4"/>
<feGaussianBlur stdDeviation="5"/>
<feColorMatrix type="matrix" values="0 0 0 0 0.768627 0 0 0 0 0.768627 0 0 0 0 0.768627 0 0 0 0.6 0"/>
<feBlend mode="normal" in2="BackgroundImageFix" result="effect1_dropShadow"/>
<feBlend mode="normal" in="SourceGraphic" in2="effect1_dropShadow" result="shape"/>
</filter>
</defs>
</svg>
