<svg width="218" height="44" viewBox="0 0 218 44" fill="none" xmlns="http://www.w3.org/2000/svg">
<rect x="0.5" width="217" height="44" rx="10" fill="#D9D9D9"/>
<path d="M38.612 16.8C39.5827 16.8 40.4253 16.96 41.14 17.28C41.8653 17.6 42.42 18.0587 42.804 18.656C43.188 19.2533 43.38 19.9627 43.38 20.784C43.38 21.5947 43.188 22.304 42.804 22.912C42.42 23.5093 41.8653 23.968 41.14 24.288C40.4253 24.608 39.5827 24.768 38.612 24.768H36.084V28H34.004V16.8H38.612ZM38.516 23.008C39.4227 23.008 40.1107 22.816 40.58 22.432C41.0493 22.048 41.284 21.4987 41.284 20.784C41.284 20.0693 41.0493 19.52 40.58 19.136C40.1107 18.752 39.4227 18.56 38.516 18.56H36.084V23.008H38.516ZM52.7851 28L50.4971 24.72C50.4011 24.7307 50.2571 24.736 50.0651 24.736H47.5371V28H45.4571V16.8H50.0651C51.0358 16.8 51.8785 16.96 52.5931 17.28C53.3185 17.6 53.8731 18.0587 54.2571 18.656C54.6411 19.2533 54.8331 19.9627 54.8331 20.784C54.8331 21.6267 54.6251 22.352 54.2091 22.96C53.8038 23.568 53.2171 24.0213 52.4491 24.32L55.0251 28H52.7851ZM52.7371 20.784C52.7371 20.0693 52.5025 19.52 52.0331 19.136C51.5638 18.752 50.8758 18.56 49.9691 18.56H47.5371V23.024H49.9691C50.8758 23.024 51.5638 22.832 52.0331 22.448C52.5025 22.0533 52.7371 21.4987 52.7371 20.784ZM57.1603 16.8H59.2403V28H57.1603V16.8ZM72.5576 28L72.5416 20.576L68.8616 26.72H67.9336L64.2536 20.672V28H62.2696V16.8H63.9816L68.4296 24.224L72.7976 16.8H74.5096L74.5256 28H72.5576ZM84.8149 25.408H79.2149L78.1109 28H75.9669L81.0069 16.8H83.0549L88.1109 28H85.9349L84.8149 25.408ZM84.1269 23.776L82.0149 18.88L79.9189 23.776H84.1269ZM96.8633 28L94.5753 24.72C94.4793 24.7307 94.3353 24.736 94.1433 24.736H91.6153V28H89.5353V16.8H94.1433C95.1139 16.8 95.9566 16.96 96.6713 17.28C97.3966 17.6 97.9513 18.0587 98.3353 18.656C98.7193 19.2533 98.9113 19.9627 98.9113 20.784C98.9113 21.6267 98.7033 22.352 98.2873 22.96C97.8819 23.568 97.2953 24.0213 96.5273 24.32L99.1033 28H96.8633ZM96.8153 20.784C96.8153 20.0693 96.5806 19.52 96.1112 19.136C95.6419 18.752 94.9539 18.56 94.0473 18.56H91.6153V23.024H94.0473C94.9539 23.024 95.6419 22.832 96.1112 22.448C96.5806 22.0533 96.8153 21.4987 96.8153 20.784ZM105.914 24.048V28H103.834V24.08L99.4341 16.8H101.658L104.938 22.256L108.25 16.8H110.298L105.914 24.048ZM124.018 22.176C124.637 22.3787 125.127 22.72 125.49 23.2C125.853 23.6693 126.034 24.256 126.034 24.96C126.034 25.9307 125.661 26.6827 124.914 27.216C124.167 27.7387 123.079 28 121.65 28H116.082V16.8H121.33C122.653 16.8 123.671 17.0613 124.386 17.584C125.101 18.096 125.458 18.8053 125.458 19.712C125.458 20.2667 125.33 20.7573 125.074 21.184C124.818 21.6107 124.466 21.9413 124.018 22.176ZM118.162 18.432V21.52H121.106C121.831 21.52 122.386 21.392 122.77 21.136C123.165 20.8693 123.362 20.4853 123.362 19.984C123.362 19.472 123.165 19.088 122.77 18.832C122.386 18.5653 121.831 18.432 121.106 18.432H118.162ZM121.522 26.368C123.133 26.368 123.938 25.8293 123.938 24.752C123.938 23.6747 123.133 23.136 121.522 23.136H118.162V26.368H121.522ZM133.07 28.16C131.523 28.16 130.318 27.728 129.454 26.864C128.59 25.9893 128.158 24.7413 128.158 23.12V16.8H130.238V23.04C130.238 25.2373 131.187 26.336 133.086 26.336C134.974 26.336 135.918 25.2373 135.918 23.04V16.8H137.966V23.12C137.966 24.7413 137.534 25.9893 136.67 26.864C135.817 27.728 134.617 28.16 133.07 28.16ZM142.948 18.56H139.236V16.8H148.74V18.56H145.028V28H142.948V18.56ZM152.729 18.56H149.017V16.8H158.521V18.56H154.809V28H152.729V18.56ZM165.158 28.16C164.017 28.16 162.987 27.9147 162.07 27.424C161.153 26.9227 160.433 26.2347 159.91 25.36C159.387 24.4747 159.126 23.488 159.126 22.4C159.126 21.312 159.387 20.3307 159.91 19.456C160.433 18.5707 161.153 17.8827 162.07 17.392C162.987 16.8907 164.017 16.64 165.158 16.64C166.299 16.64 167.329 16.8907 168.246 17.392C169.163 17.8827 169.883 18.5653 170.406 19.44C170.929 20.3147 171.19 21.3013 171.19 22.4C171.19 23.4987 170.929 24.4853 170.406 25.36C169.883 26.2347 169.163 26.9227 168.246 27.424C167.329 27.9147 166.299 28.16 165.158 28.16ZM165.158 26.336C165.905 26.336 166.577 26.1707 167.174 25.84C167.771 25.4987 168.241 25.0293 168.582 24.432C168.923 23.824 169.094 23.1467 169.094 22.4C169.094 21.6533 168.923 20.9813 168.582 20.384C168.241 19.776 167.771 19.3067 167.174 18.976C166.577 18.6347 165.905 18.464 165.158 18.464C164.411 18.464 163.739 18.6347 163.142 18.976C162.545 19.3067 162.075 19.776 161.734 20.384C161.393 20.9813 161.222 21.6533 161.222 22.4C161.222 23.1467 161.393 23.824 161.734 24.432C162.075 25.0293 162.545 25.4987 163.142 25.84C163.739 26.1707 164.411 26.336 165.158 26.336ZM183.347 16.8V28H181.635L175.459 20.416V28H173.395V16.8H175.107L181.283 24.384V16.8H183.347Z" fill="#2E404B"/>
</svg>
