<svg width="245" height="44" viewBox="0 0 245 44" fill="none" xmlns="http://www.w3.org/2000/svg">
<rect x="1.25" y="1.25" width="242.5" height="41.5" rx="3.75" fill="white"/>
<path d="M36.976 28.16C36.112 28.16 35.2747 28.0373 34.464 27.792C33.664 27.5467 33.0293 27.2213 32.56 26.816L33.28 25.2C33.7387 25.5627 34.2987 25.8613 34.96 26.096C35.632 26.32 36.304 26.432 36.976 26.432C37.808 26.432 38.4267 26.2987 38.832 26.032C39.248 25.7653 39.456 25.4133 39.456 24.976C39.456 24.656 39.3387 24.3947 39.104 24.192C38.88 23.9787 38.592 23.8133 38.24 23.696C37.888 23.5787 37.408 23.4453 36.8 23.296C35.9467 23.0933 35.2533 22.8907 34.72 22.688C34.1973 22.4853 33.744 22.1707 33.36 21.744C32.9867 21.3067 32.8 20.72 32.8 19.984C32.8 19.3653 32.9653 18.8053 33.296 18.304C33.6373 17.792 34.144 17.3867 34.816 17.088C35.4987 16.7893 36.3307 16.64 37.312 16.64C37.9947 16.64 38.6667 16.7253 39.328 16.896C39.9893 17.0667 40.56 17.312 41.04 17.632L40.384 19.248C39.8933 18.96 39.3813 18.7413 38.848 18.592C38.3147 18.4427 37.7973 18.368 37.296 18.368C36.4747 18.368 35.8613 18.5067 35.456 18.784C35.0613 19.0613 34.864 19.4293 34.864 19.888C34.864 20.208 34.976 20.4693 35.2 20.672C35.4347 20.8747 35.728 21.0347 36.08 21.152C36.432 21.2693 36.912 21.4027 37.52 21.552C38.352 21.744 39.0347 21.9467 39.568 22.16C40.1013 22.3627 40.5547 22.6773 40.928 23.104C41.312 23.5307 41.504 24.1067 41.504 24.832C41.504 25.4507 41.3333 26.0107 40.992 26.512C40.6613 27.0133 40.1547 27.4133 39.472 27.712C38.7893 28.0107 37.9573 28.16 36.976 28.16ZM51.9665 26.256V28H43.5665V16.8H51.7425V18.544H45.6465V21.456H51.0545V23.168H45.6465V26.256H51.9665ZM59.4224 28.16C58.2917 28.16 57.2677 27.9147 56.3504 27.424C55.4437 26.9227 54.729 26.2347 54.2064 25.36C53.6944 24.4853 53.4384 23.4987 53.4384 22.4C53.4384 21.3013 53.6997 20.3147 54.2224 19.44C54.745 18.5653 55.4597 17.8827 56.3664 17.392C57.2837 16.8907 58.3077 16.64 59.4384 16.64C60.3557 16.64 61.193 16.8 61.9504 17.12C62.7077 17.44 63.3477 17.904 63.8704 18.512L62.5264 19.776C61.7157 18.9013 60.7184 18.464 59.5344 18.464C58.7664 18.464 58.0784 18.6347 57.4704 18.976C56.8624 19.3067 56.3877 19.7707 56.0464 20.368C55.705 20.9653 55.5344 21.6427 55.5344 22.4C55.5344 23.1573 55.705 23.8347 56.0464 24.432C56.3877 25.0293 56.8624 25.4987 57.4704 25.84C58.0784 26.1707 58.7664 26.336 59.5344 26.336C60.7184 26.336 61.7157 25.8933 62.5264 25.008L63.8704 26.288C63.3477 26.896 62.7024 27.36 61.9344 27.68C61.177 28 60.3397 28.16 59.4224 28.16ZM70.861 28.16C69.7197 28.16 68.6903 27.9147 67.773 27.424C66.8557 26.9227 66.1357 26.2347 65.613 25.36C65.0903 24.4747 64.829 23.488 64.829 22.4C64.829 21.312 65.0903 20.3307 65.613 19.456C66.1357 18.5707 66.8557 17.8827 67.773 17.392C68.6903 16.8907 69.7197 16.64 70.861 16.64C72.0023 16.64 73.0317 16.8907 73.949 17.392C74.8663 17.8827 75.5863 18.5653 76.109 19.44C76.6317 20.3147 76.893 21.3013 76.893 22.4C76.893 23.4987 76.6317 24.4853 76.109 25.36C75.5863 26.2347 74.8663 26.9227 73.949 27.424C73.0317 27.9147 72.0023 28.16 70.861 28.16ZM70.861 26.336C71.6077 26.336 72.2797 26.1707 72.877 25.84C73.4743 25.4987 73.9437 25.0293 74.285 24.432C74.6263 23.824 74.797 23.1467 74.797 22.4C74.797 21.6533 74.6263 20.9813 74.285 20.384C73.9437 19.776 73.4743 19.3067 72.877 18.976C72.2797 18.6347 71.6077 18.464 70.861 18.464C70.1143 18.464 69.4423 18.6347 68.845 18.976C68.2477 19.3067 67.7783 19.776 67.437 20.384C67.0957 20.9813 66.925 21.6533 66.925 22.4C66.925 23.1467 67.0957 23.824 67.437 24.432C67.7783 25.0293 68.2477 25.4987 68.845 25.84C69.4423 26.1707 70.1143 26.336 70.861 26.336ZM89.0498 16.8V28H87.3378L81.1618 20.416V28H79.0978V16.8H80.8098L86.9858 24.384V16.8H89.0498ZM92.0509 16.8H96.9469C98.1415 16.8 99.2029 17.0347 100.131 17.504C101.059 17.9627 101.779 18.6187 102.291 19.472C102.803 20.3147 103.059 21.2907 103.059 22.4C103.059 23.5093 102.803 24.4907 102.291 25.344C101.779 26.1867 101.059 26.8427 100.131 27.312C99.2029 27.7707 98.1415 28 96.9469 28H92.0509V16.8ZM96.8509 26.24C97.6722 26.24 98.3922 26.0853 99.0109 25.776C99.6402 25.456 100.12 25.008 100.451 24.432C100.792 23.8453 100.963 23.168 100.963 22.4C100.963 21.632 100.792 20.96 100.451 20.384C100.12 19.7973 99.6402 19.3493 99.0109 19.04C98.3922 18.72 97.6722 18.56 96.8509 18.56H94.1309V26.24H96.8509ZM112.377 25.408H106.777L105.673 28H103.529L108.569 16.8H110.617L115.673 28H113.497L112.377 25.408ZM111.689 23.776L109.577 18.88L107.481 23.776H111.689ZM124.426 28L122.138 24.72C122.042 24.7307 121.898 24.736 121.706 24.736H119.178V28H117.098V16.8H121.706C122.676 16.8 123.519 16.96 124.234 17.28C124.959 17.6 125.514 18.0587 125.898 18.656C126.282 19.2533 126.474 19.9627 126.474 20.784C126.474 21.6267 126.266 22.352 125.85 22.96C125.444 23.568 124.858 24.0213 124.09 24.32L126.666 28H124.426ZM124.378 20.784C124.378 20.0693 124.143 19.52 123.674 19.136C123.204 18.752 122.516 18.56 121.61 18.56H119.178V23.024H121.61C122.516 23.024 123.204 22.832 123.674 22.448C124.143 22.0533 124.378 21.4987 124.378 20.784ZM133.477 24.048V28H131.397V24.08L126.997 16.8H129.221L132.501 22.256L135.813 16.8H137.861L133.477 24.048ZM151.581 22.176C152.199 22.3787 152.69 22.72 153.053 23.2C153.415 23.6693 153.597 24.256 153.597 24.96C153.597 25.9307 153.223 26.6827 152.477 27.216C151.73 27.7387 150.642 28 149.213 28H143.645V16.8H148.893C150.215 16.8 151.234 17.0613 151.949 17.584C152.663 18.096 153.021 18.8053 153.021 19.712C153.021 20.2667 152.893 20.7573 152.637 21.184C152.381 21.6107 152.029 21.9413 151.581 22.176ZM145.725 18.432V21.52H148.669C149.394 21.52 149.949 21.392 150.333 21.136C150.727 20.8693 150.925 20.4853 150.925 19.984C150.925 19.472 150.727 19.088 150.333 18.832C149.949 18.5653 149.394 18.432 148.669 18.432H145.725ZM149.085 26.368C150.695 26.368 151.501 25.8293 151.501 24.752C151.501 23.6747 150.695 23.136 149.085 23.136H145.725V26.368H149.085ZM160.633 28.16C159.086 28.16 157.881 27.728 157.017 26.864C156.153 25.9893 155.721 24.7413 155.721 23.12V16.8H157.801V23.04C157.801 25.2373 158.75 26.336 160.649 26.336C162.537 26.336 163.481 25.2373 163.481 23.04V16.8H165.529V23.12C165.529 24.7413 165.097 25.9893 164.233 26.864C163.379 27.728 162.179 28.16 160.633 28.16ZM170.51 18.56H166.798V16.8H176.302V18.56H172.59V28H170.51V18.56ZM180.292 18.56H176.58V16.8H186.084V18.56H182.372V28H180.292V18.56ZM192.72 28.16C191.579 28.16 190.55 27.9147 189.632 27.424C188.715 26.9227 187.995 26.2347 187.472 25.36C186.95 24.4747 186.688 23.488 186.688 22.4C186.688 21.312 186.95 20.3307 187.472 19.456C187.995 18.5707 188.715 17.8827 189.632 17.392C190.55 16.8907 191.579 16.64 192.72 16.64C193.862 16.64 194.891 16.8907 195.808 17.392C196.726 17.8827 197.446 18.5653 197.968 19.44C198.491 20.3147 198.752 21.3013 198.752 22.4C198.752 23.4987 198.491 24.4853 197.968 25.36C197.446 26.2347 196.726 26.9227 195.808 27.424C194.891 27.9147 193.862 28.16 192.72 28.16ZM192.72 26.336C193.467 26.336 194.139 26.1707 194.736 25.84C195.334 25.4987 195.803 25.0293 196.144 24.432C196.486 23.824 196.656 23.1467 196.656 22.4C196.656 21.6533 196.486 20.9813 196.144 20.384C195.803 19.776 195.334 19.3067 194.736 18.976C194.139 18.6347 193.467 18.464 192.72 18.464C191.974 18.464 191.302 18.6347 190.704 18.976C190.107 19.3067 189.638 19.776 189.296 20.384C188.955 20.9813 188.784 21.6533 188.784 22.4C188.784 23.1467 188.955 23.824 189.296 24.432C189.638 25.0293 190.107 25.4987 190.704 25.84C191.302 26.1707 191.974 26.336 192.72 26.336ZM210.909 16.8V28H209.197L203.021 20.416V28H200.957V16.8H202.669L208.845 24.384V16.8H210.909Z" fill="#2E404B"/>
<rect x="1.25" y="1.25" width="242.5" height="41.5" rx="3.75" stroke="#D9D9D9" stroke-width="2.5"/>
</svg>
