<svg width="102" height="83" viewBox="0 0 102 83" fill="none" xmlns="http://www.w3.org/2000/svg">
    <path
        d="M47.7228 74.1683C26.5424 74.03 8.36037 58.7734 4.54617 37.9388C25.7266 38.0772 43.9086 53.3338 47.7228 74.1683Z"
        stroke="#BDCEAE" stroke-width="8" stroke-linejoin="round" />
    <path
        d="M53.4654 74.1683C74.6458 74.03 92.8279 58.7734 96.6421 37.9388C75.4617 38.0772 57.2796 53.3338 53.4654 74.1683Z"
        stroke="#BDCEAE" stroke-width="8" stroke-linejoin="round" />
    <path
        d="M71.1523 7.75684C69.9619 6.56581 68.5484 5.62101 66.9927 4.97639C65.437 4.33178 63.7695 4 62.0855 4C60.4016 4 58.7341 4.33178 57.1784 4.97639C55.6227 5.62101 54.2092 6.56581 53.0187 7.75684L50.5481 10.2275L48.0774 7.75684C45.6728 5.35217 42.4113 4.00125 39.0106 4.00125C35.6099 4.00125 32.3485 5.35217 29.9438 7.75684C27.5392 10.1615 26.1882 13.4229 26.1882 16.8236C26.1882 20.2244 27.5392 23.4858 29.9438 25.8905L32.4145 28.3611L50.5481 46.4947L68.6817 28.3611L71.1523 25.8905C72.3434 24.7 73.2882 23.2865 73.9328 21.7308C74.5774 20.1751 74.9092 18.5076 74.9092 16.8236C74.9092 15.1397 74.5774 13.4722 73.9328 11.9165C73.2882 10.3608 72.3434 8.94731 71.1523 7.75684V7.75684Z"
        stroke="#ED8989" stroke-width="8" stroke-linecap="round" stroke-linejoin="round" />
</svg>