<svg width="57" height="47" viewBox="0 0 57 47" fill="none" xmlns="http://www.w3.org/2000/svg">
<path d="M26.5545 42.2341C14.9855 42.0167 5.08271 33.7072 2.85969 22.3518C14.4286 22.5692 24.3314 30.8786 26.5545 42.2341Z" stroke="#BDCEAE" stroke-width="5" stroke-linejoin="round"/>
<path d="M30.3888 42.2341C41.9577 42.0167 51.8605 33.7072 54.0835 22.3518C42.5146 22.5692 32.6118 30.8786 30.3888 42.2341Z" stroke="#BDCEAE" stroke-width="5" stroke-linejoin="round"/>
<path d="M40.0407 5.11415C39.3707 4.4439 38.5753 3.91221 37.6998 3.54946C36.8244 3.18671 35.886 3 34.9384 3C33.9907 3 33.0524 3.18671 32.1769 3.54946C31.3014 3.91221 30.506 4.4439 29.8361 5.11415L28.4457 6.50449L27.0554 5.11415C25.7022 3.76093 23.8668 3.0007 21.9531 3.0007C20.0393 3.0007 18.204 3.76093 16.8508 5.11415C15.4975 6.46736 14.7373 8.30272 14.7373 10.2165C14.7373 12.1302 15.4975 13.9655 16.8508 15.3188L18.2411 16.7091L28.4457 26.9137L38.6503 16.7091L40.0407 15.3188C40.7109 14.6488 41.2426 13.8534 41.6054 12.9779C41.9681 12.1025 42.1548 11.1641 42.1548 10.2165C42.1548 9.2688 41.9681 8.33044 41.6054 7.45497C41.2426 6.5795 40.7109 5.78408 40.0407 5.11415V5.11415Z" stroke="#ED8989" stroke-width="5" stroke-linecap="round" stroke-linejoin="round"/>
</svg>
