<svg width="89" height="64" viewBox="0 0 89 64" fill="none" xmlns="http://www.w3.org/2000/svg">
<path d="M42.109 33.8244C32.9225 33.6452 25.0603 27.048 23.2886 18.0322C32.4751 18.2114 40.3373 24.8086 42.109 33.8244Z" stroke="#BDCEAE" stroke-width="4" stroke-linejoin="round"/>
<path d="M45.1867 33.8244C54.3731 33.6452 62.2353 27.048 64.007 18.0322C54.8206 18.2114 46.9584 24.8086 45.1867 33.8244Z" stroke="#BDCEAE" stroke-width="4" stroke-linejoin="round"/>
<path d="M52.8506 4.30866C52.3177 3.77551 51.6849 3.35258 50.9886 3.06402C50.2922 2.77547 49.5457 2.62695 48.7919 2.62695C48.0381 2.62695 47.2917 2.77547 46.5953 3.06402C45.8989 3.35258 45.2662 3.77551 44.7333 4.30866L43.6273 5.41462L42.5214 4.30866C41.4449 3.23224 39.985 2.62751 38.4627 2.62751C36.9404 2.62751 35.4805 3.23224 34.404 4.30866C33.3276 5.38508 32.7229 6.84502 32.7229 8.36731C32.7229 9.8896 33.3276 11.3495 34.404 12.426L35.51 13.5319L43.6273 21.6492L51.7446 13.5319L52.8506 12.426C53.3837 11.8931 53.8067 11.2603 54.0952 10.5639C54.3838 9.86755 54.5323 9.12112 54.5323 8.36731C54.5323 7.6135 54.3838 6.86708 54.0952 6.17068C53.8067 5.47428 53.3837 4.84156 52.8506 4.30866V4.30866Z" stroke="#ED8989" stroke-width="4" stroke-linecap="round" stroke-linejoin="round"/>
<path d="M7.524 58.807C6.252 58.807 5.1 58.531 4.068 57.979C3.048 57.415 2.244 56.641 1.656 55.657C1.08 54.673 0.792 53.563 0.792 52.327C0.792 51.091 1.086 49.981 1.674 48.997C2.262 48.013 3.066 47.245 4.086 46.693C5.118 46.129 6.27 45.847 7.542 45.847C8.574 45.847 9.516 46.027 10.368 46.387C11.22 46.747 11.94 47.269 12.528 47.953L11.016 49.375C10.104 48.391 8.982 47.899 7.65 47.899C6.786 47.899 6.012 48.091 5.328 48.475C4.644 48.847 4.11 49.369 3.726 50.041C3.342 50.713 3.15 51.475 3.15 52.327C3.15 53.179 3.342 53.941 3.726 54.613C4.11 55.285 4.644 55.813 5.328 56.197C6.012 56.569 6.786 56.755 7.65 56.755C8.982 56.755 10.104 56.257 11.016 55.261L12.528 56.701C11.94 57.385 11.214 57.907 10.35 58.267C9.498 58.627 8.556 58.807 7.524 58.807ZM18.1382 48.907C19.5542 48.907 20.6342 49.249 21.3782 49.933C22.1342 50.605 22.5122 51.625 22.5122 52.993V58.627H20.3882V57.457C20.1122 57.877 19.7162 58.201 19.2002 58.429C18.6962 58.645 18.0842 58.753 17.3642 58.753C16.6442 58.753 16.0142 58.633 15.4742 58.393C14.9342 58.141 14.5142 57.799 14.2142 57.367C13.9262 56.923 13.7822 56.425 13.7822 55.873C13.7822 55.009 14.1002 54.319 14.7362 53.803C15.3842 53.275 16.3982 53.011 17.7782 53.011H20.2622V52.867C20.2622 52.195 20.0582 51.679 19.6502 51.319C19.2542 50.959 18.6602 50.779 17.8682 50.779C17.3282 50.779 16.7942 50.863 16.2662 51.031C15.7502 51.199 15.3122 51.433 14.9522 51.733L14.0702 50.095C14.5742 49.711 15.1802 49.417 15.8882 49.213C16.5962 49.009 17.3462 48.907 18.1382 48.907ZM17.8322 57.115C18.3962 57.115 18.8942 56.989 19.3262 56.737C19.7702 56.473 20.0822 56.101 20.2622 55.621V54.505H17.9402C16.6442 54.505 15.9962 54.931 15.9962 55.783C15.9962 56.191 16.1582 56.515 16.4822 56.755C16.8062 56.995 17.2562 57.115 17.8322 57.115ZM27.5418 50.419C28.1898 49.411 29.3298 48.907 30.9618 48.907V51.049C30.7698 51.013 30.5958 50.995 30.4398 50.995C29.5638 50.995 28.8798 51.253 28.3878 51.769C27.8958 52.273 27.6498 53.005 27.6498 53.965V58.627H25.3998V49.015H27.5418V50.419ZM41.8186 53.875C41.8186 54.031 41.8066 54.253 41.7826 54.541H34.2406C34.3726 55.249 34.7146 55.813 35.2666 56.233C35.8306 56.641 36.5266 56.845 37.3546 56.845C38.4106 56.845 39.2806 56.497 39.9646 55.801L41.1706 57.187C40.7386 57.703 40.1926 58.093 39.5326 58.357C38.8726 58.621 38.1286 58.753 37.3006 58.753C36.2446 58.753 35.3146 58.543 34.5106 58.123C33.7066 57.703 33.0826 57.121 32.6386 56.377C32.2066 55.621 31.9906 54.769 31.9906 53.821C31.9906 52.885 32.2006 52.045 32.6206 51.301C33.0526 50.545 33.6466 49.957 34.4026 49.537C35.1586 49.117 36.0106 48.907 36.9586 48.907C37.8946 48.907 38.7286 49.117 39.4606 49.537C40.2046 49.945 40.7806 50.527 41.1886 51.283C41.6086 52.027 41.8186 52.891 41.8186 53.875ZM36.9586 50.707C36.2386 50.707 35.6266 50.923 35.1226 51.355C34.6306 51.775 34.3306 52.339 34.2226 53.047H39.6766C39.5806 52.351 39.2866 51.787 38.7946 51.355C38.3026 50.923 37.6906 50.707 36.9586 50.707ZM55.0025 58.807C53.7305 58.807 52.5785 58.531 51.5465 57.979C50.5265 57.415 49.7225 56.641 49.1345 55.657C48.5585 54.673 48.2705 53.563 48.2705 52.327C48.2705 51.091 48.5645 49.981 49.1525 48.997C49.7405 48.013 50.5445 47.245 51.5645 46.693C52.5965 46.129 53.7485 45.847 55.0205 45.847C56.0525 45.847 56.9945 46.027 57.8465 46.387C58.6985 46.747 59.4185 47.269 60.0065 47.953L58.4945 49.375C57.5825 48.391 56.4605 47.899 55.1285 47.899C54.2645 47.899 53.4905 48.091 52.8065 48.475C52.1225 48.847 51.5885 49.369 51.2045 50.041C50.8205 50.713 50.6285 51.475 50.6285 52.327C50.6285 53.179 50.8205 53.941 51.2045 54.613C51.5885 55.285 52.1225 55.813 52.8065 56.197C53.4905 56.569 54.2645 56.755 55.1285 56.755C56.4605 56.755 57.5825 56.257 58.4945 55.261L60.0065 56.701C59.4185 57.385 58.6925 57.907 57.8285 58.267C56.9765 58.627 56.0345 58.807 55.0025 58.807ZM65.6168 48.907C67.0328 48.907 68.1128 49.249 68.8568 49.933C69.6128 50.605 69.9908 51.625 69.9908 52.993V58.627H67.8668V57.457C67.5908 57.877 67.1948 58.201 66.6788 58.429C66.1748 58.645 65.5628 58.753 64.8428 58.753C64.1228 58.753 63.4928 58.633 62.9528 58.393C62.4128 58.141 61.9928 57.799 61.6928 57.367C61.4048 56.923 61.2608 56.425 61.2608 55.873C61.2608 55.009 61.5788 54.319 62.2148 53.803C62.8628 53.275 63.8768 53.011 65.2568 53.011H67.7408V52.867C67.7408 52.195 67.5368 51.679 67.1288 51.319C66.7328 50.959 66.1388 50.779 65.3468 50.779C64.8068 50.779 64.2728 50.863 63.7448 51.031C63.2288 51.199 62.7908 51.433 62.4308 51.733L61.5488 50.095C62.0528 49.711 62.6588 49.417 63.3668 49.213C64.0748 49.009 64.8248 48.907 65.6168 48.907ZM65.3108 57.115C65.8748 57.115 66.3728 56.989 66.8048 56.737C67.2488 56.473 67.5608 56.101 67.7408 55.621V54.505H65.4188C64.1228 54.505 63.4748 54.931 63.4748 55.783C63.4748 56.191 63.6368 56.515 63.9608 56.755C64.2848 56.995 64.7348 57.115 65.3108 57.115ZM75.8483 58.753C75.0683 58.753 74.3063 58.651 73.5623 58.447C72.8183 58.243 72.2243 57.985 71.7803 57.673L72.6443 55.963C73.0763 56.251 73.5923 56.485 74.1923 56.665C74.8043 56.833 75.4043 56.917 75.9923 56.917C77.3363 56.917 78.0083 56.563 78.0083 55.855C78.0083 55.519 77.8343 55.285 77.4863 55.153C77.1503 55.021 76.6043 54.895 75.8483 54.775C75.0563 54.655 74.4083 54.517 73.9043 54.361C73.4123 54.205 72.9803 53.935 72.6083 53.551C72.2483 53.155 72.0683 52.609 72.0683 51.913C72.0683 51.001 72.4463 50.275 73.2023 49.735C73.9703 49.183 75.0023 48.907 76.2983 48.907C76.9583 48.907 77.6183 48.985 78.2783 49.141C78.9383 49.285 79.4783 49.483 79.8983 49.735L79.0343 51.445C78.2183 50.965 77.3003 50.725 76.2803 50.725C75.6203 50.725 75.1163 50.827 74.7683 51.031C74.4323 51.223 74.2643 51.481 74.2643 51.805C74.2643 52.165 74.4443 52.423 74.8043 52.579C75.1763 52.723 75.7463 52.861 76.5143 52.993C77.2823 53.113 77.9123 53.251 78.4043 53.407C78.8963 53.563 79.3163 53.827 79.6643 54.199C80.0243 54.571 80.2043 55.099 80.2043 55.783C80.2043 56.683 79.8143 57.403 79.0343 57.943C78.2543 58.483 77.1923 58.753 75.8483 58.753ZM87.92 58.105C87.656 58.321 87.332 58.483 86.948 58.591C86.576 58.699 86.18 58.753 85.76 58.753C84.704 58.753 83.888 58.477 83.312 57.925C82.736 57.373 82.448 56.569 82.448 55.513V50.887H80.864V49.087H82.448V46.891H84.698V49.087H87.272V50.887H84.698V55.459C84.698 55.927 84.812 56.287 85.04 56.539C85.268 56.779 85.598 56.899 86.03 56.899C86.534 56.899 86.954 56.767 87.29 56.503L87.92 58.105Z" fill="#262626"/>
</svg>
