<svg width="30" height="30" viewBox="0 0 30 30" fill="none" xmlns="http://www.w3.org/2000/svg">
<mask id="mask0" mask-type="alpha" maskUnits="userSpaceOnUse" x="6" y="6" width="18" height="18">
<path fill-rule="evenodd" clip-rule="evenodd" d="M16.7678 14.9998L22.955 21.187C23.4431 21.6751 23.4431 22.4666 22.955 22.9547C22.4668 23.4429 21.6754 23.4429 21.1872 22.9547L15 16.7675L8.81284 22.9547C8.32468 23.4429 7.53323 23.4429 7.04507 22.9547C6.55692 22.4666 6.55692 21.6751 7.04507 21.187L13.2323 14.9998L7.04507 8.81259C6.55692 8.32444 6.55692 7.53298 7.04507 7.04483C7.53323 6.55667 8.32468 6.55667 8.81284 7.04483L15 13.232L21.1872 7.04483C21.6754 6.55667 22.4668 6.55667 22.955 7.04483C23.4431 7.53298 23.4431 8.32444 22.955 8.81259L16.7678 14.9998Z" fill="white"/>
</mask>
<g mask="url(#mask0)">
<rect width="30" height="27.3143" fill="#353535"/>
</g>
</svg>
