<svg width="30" height="22" viewBox="0 0 30 22" fill="none" xmlns="http://www.w3.org/2000/svg">
<path fill-rule="evenodd" clip-rule="evenodd" d="M29.5 0H0.5C0.223 0 0 0.223 0 0.5C0 0.777 0.223 1 0.5 1H29.5C29.777 1 30 0.777 30 0.5C30 0.223 29.777 0 29.5 0ZM0.5 10.0029H29.5C29.777 10.0029 30 10.2259 30 10.5029C30 10.7799 29.777 11.0029 29.5 11.0029H0.5C0.223 11.0029 0 10.7799 0 10.5029C0 10.2259 0.223 10.0029 0.5 10.0029ZM0.5 20.0059H29.5C29.777 20.0059 30 20.2289 30 20.5059C30 20.7829 29.777 21.0059 29.5 21.0059H0.5C0.223 21.0059 0 20.7829 0 20.5059C0 20.2289 0.223 20.0059 0.5 20.0059Z" fill="black"/>
</svg>
