<svg width="238" height="64" viewBox="0 0 238 64" fill="none" xmlns="http://www.w3.org/2000/svg">
<g filter="url(#filter0_d)">
<rect x="10.5" y="6" width="217" height="44" rx="10" fill="#BDCEAE"/>
<path d="M48.612 22.8C49.5827 22.8 50.4253 22.96 51.14 23.28C51.8653 23.6 52.42 24.0587 52.804 24.656C53.188 25.2533 53.38 25.9627 53.38 26.784C53.38 27.5947 53.188 28.304 52.804 28.912C52.42 29.5093 51.8653 29.968 51.14 30.288C50.4253 30.608 49.5827 30.768 48.612 30.768H46.084V34H44.004V22.8H48.612ZM48.516 29.008C49.4227 29.008 50.1107 28.816 50.58 28.432C51.0493 28.048 51.284 27.4987 51.284 26.784C51.284 26.0693 51.0493 25.52 50.58 25.136C50.1107 24.752 49.4227 24.56 48.516 24.56H46.084V29.008H48.516ZM62.7851 34L60.4971 30.72C60.4011 30.7307 60.2571 30.736 60.0651 30.736H57.5371V34H55.4571V22.8H60.0651C61.0358 22.8 61.8785 22.96 62.5931 23.28C63.3185 23.6 63.8731 24.0587 64.2571 24.656C64.6411 25.2533 64.8331 25.9627 64.8331 26.784C64.8331 27.6267 64.6251 28.352 64.2091 28.96C63.8038 29.568 63.2171 30.0213 62.4491 30.32L65.0251 34H62.7851ZM62.7371 26.784C62.7371 26.0693 62.5025 25.52 62.0331 25.136C61.5638 24.752 60.8758 24.56 59.9691 24.56H57.5371V29.024H59.9691C60.8758 29.024 61.5638 28.832 62.0331 28.448C62.5025 28.0533 62.7371 27.4987 62.7371 26.784ZM67.1603 22.8H69.2403V34H67.1603V22.8ZM82.5576 34L82.5416 26.576L78.8616 32.72H77.9336L74.2536 26.672V34H72.2696V22.8H73.9816L78.4296 30.224L82.7976 22.8H84.5096L84.5256 34H82.5576ZM94.8149 31.408H89.2149L88.1109 34H85.9669L91.0069 22.8H93.0549L98.1109 34H95.9349L94.8149 31.408ZM94.1269 29.776L92.0149 24.88L89.9189 29.776H94.1269ZM106.863 34L104.575 30.72C104.479 30.7307 104.335 30.736 104.143 30.736H101.615V34H99.5353V22.8H104.143C105.114 22.8 105.957 22.96 106.671 23.28C107.397 23.6 107.951 24.0587 108.335 24.656C108.719 25.2533 108.911 25.9627 108.911 26.784C108.911 27.6267 108.703 28.352 108.287 28.96C107.882 29.568 107.295 30.0213 106.527 30.32L109.103 34H106.863ZM106.815 26.784C106.815 26.0693 106.581 25.52 106.111 25.136C105.642 24.752 104.954 24.56 104.047 24.56H101.615V29.024H104.047C104.954 29.024 105.642 28.832 106.111 28.448C106.581 28.0533 106.815 27.4987 106.815 26.784ZM115.914 30.048V34H113.834V30.08L109.434 22.8H111.658L114.938 28.256L118.25 22.8H120.298L115.914 30.048ZM134.018 28.176C134.637 28.3787 135.127 28.72 135.49 29.2C135.853 29.6693 136.034 30.256 136.034 30.96C136.034 31.9307 135.661 32.6827 134.914 33.216C134.167 33.7387 133.079 34 131.65 34H126.082V22.8H131.33C132.653 22.8 133.671 23.0613 134.386 23.584C135.101 24.096 135.458 24.8053 135.458 25.712C135.458 26.2667 135.33 26.7573 135.074 27.184C134.818 27.6107 134.466 27.9413 134.018 28.176ZM128.162 24.432V27.52H131.106C131.831 27.52 132.386 27.392 132.77 27.136C133.165 26.8693 133.362 26.4853 133.362 25.984C133.362 25.472 133.165 25.088 132.77 24.832C132.386 24.5653 131.831 24.432 131.106 24.432H128.162ZM131.522 32.368C133.133 32.368 133.938 31.8293 133.938 30.752C133.938 29.6747 133.133 29.136 131.522 29.136H128.162V32.368H131.522ZM143.07 34.16C141.523 34.16 140.318 33.728 139.454 32.864C138.59 31.9893 138.158 30.7413 138.158 29.12V22.8H140.238V29.04C140.238 31.2373 141.187 32.336 143.086 32.336C144.974 32.336 145.918 31.2373 145.918 29.04V22.8H147.966V29.12C147.966 30.7413 147.534 31.9893 146.67 32.864C145.817 33.728 144.617 34.16 143.07 34.16ZM152.948 24.56H149.236V22.8H158.74V24.56H155.028V34H152.948V24.56ZM162.729 24.56H159.017V22.8H168.521V24.56H164.809V34H162.729V24.56ZM175.158 34.16C174.017 34.16 172.987 33.9147 172.07 33.424C171.153 32.9227 170.433 32.2347 169.91 31.36C169.387 30.4747 169.126 29.488 169.126 28.4C169.126 27.312 169.387 26.3307 169.91 25.456C170.433 24.5707 171.153 23.8827 172.07 23.392C172.987 22.8907 174.017 22.64 175.158 22.64C176.299 22.64 177.329 22.8907 178.246 23.392C179.163 23.8827 179.883 24.5653 180.406 25.44C180.929 26.3147 181.19 27.3013 181.19 28.4C181.19 29.4987 180.929 30.4853 180.406 31.36C179.883 32.2347 179.163 32.9227 178.246 33.424C177.329 33.9147 176.299 34.16 175.158 34.16ZM175.158 32.336C175.905 32.336 176.577 32.1707 177.174 31.84C177.771 31.4987 178.241 31.0293 178.582 30.432C178.923 29.824 179.094 29.1467 179.094 28.4C179.094 27.6533 178.923 26.9813 178.582 26.384C178.241 25.776 177.771 25.3067 177.174 24.976C176.577 24.6347 175.905 24.464 175.158 24.464C174.411 24.464 173.739 24.6347 173.142 24.976C172.545 25.3067 172.075 25.776 171.734 26.384C171.393 26.9813 171.222 27.6533 171.222 28.4C171.222 29.1467 171.393 29.824 171.734 30.432C172.075 31.0293 172.545 31.4987 173.142 31.84C173.739 32.1707 174.411 32.336 175.158 32.336ZM193.347 22.8V34H191.635L185.459 26.416V34H183.395V22.8H185.107L191.283 30.384V22.8H193.347Z" fill="#2E404B"/>
</g>
<defs>
<filter id="filter0_d" x="0.5" y="0" width="237" height="64" filterUnits="userSpaceOnUse" color-interpolation-filters="sRGB">
<feFlood flood-opacity="0" result="BackgroundImageFix"/>
<feColorMatrix in="SourceAlpha" type="matrix" values="0 0 0 0 0 0 0 0 0 0 0 0 0 0 0 0 0 0 127 0"/>
<feOffset dy="4"/>
<feGaussianBlur stdDeviation="5"/>
<feColorMatrix type="matrix" values="0 0 0 0 0.768627 0 0 0 0 0.768627 0 0 0 0 0.768627 0 0 0 0.2 0"/>
<feBlend mode="normal" in2="BackgroundImageFix" result="effect1_dropShadow"/>
<feBlend mode="normal" in="SourceGraphic" in2="effect1_dropShadow" result="shape"/>
</filter>
</defs>
</svg>
