<svg width="86" height="86" viewBox="0 0 74 73" fill="none" xmlns="http://www.w3.org/2000/svg">
<path d="M21.6634 52.5944L27.9737 50.7741L65.9678 12.3249C66.2674 12.0178 66.4343 11.6052 66.4323 11.1761C66.4303 10.747 66.2596 10.3359 65.957 10.0316L63.6816 7.73109C63.5345 7.58001 63.3589 7.45973 63.1649 7.37727C62.9708 7.29481 62.7623 7.25182 62.5515 7.25082C62.3407 7.24982 62.1318 7.29082 61.937 7.37144C61.7422 7.45205 61.5654 7.57066 61.4169 7.72035L23.5232 46.0692L21.6598 52.5908L21.6634 52.5944ZM68.1858 3.17309L70.4613 5.47718C73.6003 8.65559 73.6289 13.7833 70.5186 16.9295L31.3671 56.554L17.8794 60.4383C17.056 60.6688 16.1747 60.5632 15.429 60.1447C14.6833 59.7262 14.1341 59.0289 13.9019 58.2059C13.7291 57.6142 13.7267 56.9858 13.8947 56.3928L17.8185 42.6328L56.8661 3.11218C57.6086 2.36454 58.4925 1.77223 59.4663 1.36979C60.4401 0.967349 61.4843 0.762831 62.538 0.768168C63.5917 0.773505 64.6337 0.988588 65.6034 1.40087C66.5731 1.81316 67.451 2.41439 68.1858 3.16951V3.17309ZM26.9094 7.30468C28.6867 7.30468 30.1272 8.76309 30.1272 10.5619C30.1301 10.9872 30.0491 11.4088 29.8888 11.8027C29.7286 12.1966 29.4923 12.555 29.1935 12.8575C28.8946 13.16 28.5391 13.4007 28.1472 13.5657C27.7552 13.7307 27.3346 13.8168 26.9094 13.8192H14.0381C10.4834 13.8192 7.60242 16.736 7.60242 20.3301V59.4099C7.60242 63.0076 10.4834 65.9244 14.0381 65.9244H52.6521C56.2067 65.9244 59.0913 63.0076 59.0913 59.4099V46.3845C59.0913 44.5857 60.5318 43.1273 62.3092 43.1273C64.0865 43.1273 65.527 44.5857 65.527 46.3881V59.4099C65.527 66.6053 59.7614 72.4389 52.6521 72.4389H14.0381C6.92875 72.4389 1.16675 66.6053 1.16675 59.4099V20.3301C1.16675 13.1383 6.92875 7.30468 14.0381 7.30468H26.9094Z" fill="#ED8989" stroke="#ED8989"/>
</svg>
