<svg width="62" height="92" viewBox="0 0 62 92" fill="none" xmlns="http://www.w3.org/2000/svg">
<path d="M5.02411 85.6168C4.29935 85.6168 3.60246 85.5007 2.93345 85.2684C2.27372 85.0361 1.76267 84.7295 1.40029 84.3485L1.80449 83.554C2.15758 83.9071 2.62681 84.1952 3.2122 84.4182C3.79759 84.6319 4.40156 84.7387 5.02411 84.7387C5.89755 84.7387 6.55262 84.5808 6.98934 84.2649C7.42606 83.9397 7.64441 83.5215 7.64441 83.0105C7.64441 82.6202 7.52362 82.3089 7.28203 82.0766C7.04974 81.8443 6.76169 81.6678 6.41789 81.547C6.07409 81.4169 5.59556 81.2775 4.9823 81.1289C4.24824 80.943 3.66286 80.7665 3.22614 80.5992C2.78942 80.4227 2.4131 80.1579 2.09718 79.8048C1.79055 79.4517 1.63723 78.9732 1.63723 78.3692C1.63723 77.8767 1.76732 77.4307 2.02749 77.0312C2.28766 76.6223 2.68721 76.2971 3.22614 76.0555C3.76507 75.8139 4.43408 75.6931 5.23318 75.6931C5.79069 75.6931 6.33426 75.7721 6.8639 75.9301C7.40283 76.0787 7.86742 76.2878 8.25768 76.5573L7.90923 77.3796C7.50039 77.1101 7.06367 76.9104 6.59908 76.7803C6.13449 76.6409 5.67919 76.5712 5.23318 76.5712C4.37833 76.5712 3.73254 76.7385 3.29583 77.073C2.8684 77.3982 2.65469 77.821 2.65469 78.3413C2.65469 78.7316 2.77084 79.0475 3.00313 79.2891C3.24472 79.5214 3.54206 79.7026 3.89515 79.8327C4.25753 79.9534 4.74071 80.0882 5.34468 80.2368C6.06015 80.4134 6.63625 80.5899 7.07297 80.7665C7.51897 80.9337 7.89529 81.1939 8.20193 81.547C8.50856 81.8908 8.66187 82.36 8.66187 82.9547C8.66187 83.4472 8.52714 83.8978 8.25768 84.3067C7.99751 84.7062 7.59331 85.0268 7.04509 85.2684C6.49687 85.5007 5.82321 85.6168 5.02411 85.6168ZM13.2646 78.1462C14.2217 78.1462 14.9557 78.3878 15.4668 78.8709C15.9778 79.3448 16.2334 80.051 16.2334 80.9895V85.5332H15.2856V84.3903C15.0626 84.7713 14.7327 85.0686 14.296 85.2823C13.8686 85.496 13.3575 85.6029 12.7628 85.6029C11.9452 85.6029 11.2947 85.4078 10.8116 85.0175C10.3284 84.6272 10.0868 84.1115 10.0868 83.4704C10.0868 82.8479 10.3098 82.3461 10.7558 81.9651C11.2111 81.5842 11.9312 81.3937 12.9162 81.3937H15.2438V80.9477C15.2438 80.3158 15.0672 79.8373 14.7141 79.5121C14.361 79.1776 13.8453 79.0103 13.167 79.0103C12.7024 79.0103 12.2564 79.0893 11.829 79.2473C11.4016 79.3959 11.0346 79.605 10.7279 79.8745L10.2819 79.1358C10.6536 78.8198 11.0996 78.5783 11.6199 78.411C12.1403 78.2345 12.6885 78.1462 13.2646 78.1462ZM12.9162 84.8224C13.4737 84.8224 13.9522 84.6969 14.3518 84.4461C14.7513 84.1859 15.0486 83.8142 15.2438 83.331V82.1324H12.944C11.6896 82.1324 11.0624 82.5691 11.0624 83.4425C11.0624 83.87 11.225 84.2091 11.5503 84.46C11.8755 84.7016 12.3308 84.8224 12.9162 84.8224ZM22.7819 85.0872C22.5961 85.2544 22.3638 85.3845 22.085 85.4775C21.8156 85.5611 21.5322 85.6029 21.2348 85.6029C20.5472 85.6029 20.0176 85.4171 19.6459 85.0454C19.2743 84.6737 19.0884 84.1487 19.0884 83.4704V79.0382H17.7783V78.2019H19.0884V76.5991H20.078V78.2019H22.308V79.0382H20.078V83.4147C20.078 83.8514 20.1849 84.1859 20.3986 84.4182C20.6216 84.6412 20.9375 84.7527 21.3463 84.7527C21.5508 84.7527 21.7459 84.7202 21.9317 84.6551C22.1269 84.5901 22.2941 84.4972 22.4335 84.3764L22.7819 85.0872ZM24.5834 78.2019H25.573V85.5332H24.5834V78.2019ZM25.0851 76.5991C24.8807 76.5991 24.7088 76.5294 24.5694 76.39C24.4301 76.2506 24.3604 76.0834 24.3604 75.8883C24.3604 75.7024 24.4301 75.5398 24.5694 75.4004C24.7088 75.2611 24.8807 75.1914 25.0851 75.1914C25.2896 75.1914 25.4615 75.2611 25.6008 75.4004C25.7402 75.5305 25.8099 75.6885 25.8099 75.8743C25.8099 76.0787 25.7402 76.2506 25.6008 76.39C25.4615 76.5294 25.2896 76.5991 25.0851 76.5991ZM30.2917 85.6029C29.697 85.6029 29.1255 85.5193 28.5773 85.352C28.0384 85.1755 27.6156 84.9571 27.309 84.6969L27.755 83.9164C28.0616 84.158 28.4472 84.3578 28.9118 84.5157C29.3764 84.6644 29.8596 84.7387 30.3614 84.7387C31.0304 84.7387 31.5228 84.6365 31.8388 84.4321C32.164 84.2184 32.3266 83.9211 32.3266 83.5401C32.3266 83.2706 32.2383 83.0616 32.0618 82.9129C31.8852 82.7549 31.6622 82.6388 31.3928 82.5645C31.1233 82.4808 30.7656 82.4018 30.3195 82.3275C29.7249 82.216 29.2463 82.1045 28.884 81.993C28.5216 81.8722 28.2103 81.6724 27.9501 81.3937C27.6992 81.1149 27.5738 80.7293 27.5738 80.2368C27.5738 79.6236 27.8293 79.1218 28.3404 78.7316C28.8514 78.3413 29.5623 78.1462 30.4729 78.1462C30.9467 78.1462 31.4206 78.2112 31.8945 78.3413C32.3684 78.4621 32.7587 78.6247 33.0653 78.8291L32.6332 79.6236C32.0292 79.2055 31.3091 78.9964 30.4729 78.9964C29.841 78.9964 29.3625 79.1079 29.0373 79.3309C28.7213 79.5539 28.5634 79.8466 28.5634 80.209C28.5634 80.4877 28.6517 80.7107 28.8282 80.878C29.014 81.0452 29.2417 81.1707 29.5112 81.2543C29.7806 81.3286 30.1523 81.4076 30.6262 81.4912C31.2116 81.6027 31.6808 81.7143 32.0339 81.8258C32.387 81.9373 32.689 82.1277 32.9398 82.3972C33.1907 82.6667 33.3162 83.0383 33.3162 83.5122C33.3162 84.1534 33.0467 84.6644 32.5078 85.0454C31.9781 85.4171 31.2394 85.6029 30.2917 85.6029ZM37.5708 75.9579C37.1434 75.9579 36.8181 76.0741 36.5951 76.3064C36.3814 76.5387 36.2746 76.8825 36.2746 77.3378V78.2019H38.5325V79.0382H36.3024V85.5332H35.3129V79.0382H34.0027V78.2019H35.3129V77.296C35.3129 76.627 35.5033 76.0973 35.8843 75.7071C36.2746 75.3168 36.8228 75.1217 37.529 75.1217C37.8077 75.1217 38.0772 75.1635 38.3374 75.2471C38.5975 75.3215 38.8159 75.433 38.9924 75.5816L38.6579 76.3203C38.3699 76.0787 38.0075 75.9579 37.5708 75.9579ZM40.9855 78.2019H41.9751V85.5332H40.9855V78.2019ZM41.4873 76.5991C41.2829 76.5991 41.111 76.5294 40.9716 76.39C40.8322 76.2506 40.7625 76.0834 40.7625 75.8883C40.7625 75.7024 40.8322 75.5398 40.9716 75.4004C41.111 75.2611 41.2829 75.1914 41.4873 75.1914C41.6917 75.1914 41.8636 75.2611 42.003 75.4004C42.1424 75.5305 42.2121 75.6885 42.2121 75.8743C42.2121 76.0787 42.1424 76.2506 42.003 76.39C41.8636 76.5294 41.6917 76.5991 41.4873 76.5991ZM51.1249 82.1742H44.9923C45.0481 82.9361 45.3408 83.554 45.8704 84.0279C46.4 84.4925 47.0691 84.7248 47.8774 84.7248C48.3327 84.7248 48.7509 84.6458 49.1318 84.4879C49.5128 84.3206 49.8427 84.079 50.1214 83.7631L50.6789 84.4042C50.3537 84.7945 49.9449 85.0918 49.4524 85.2963C48.9692 85.5007 48.435 85.6029 47.8496 85.6029C47.0969 85.6029 46.4279 85.4449 45.8425 85.129C45.2664 84.8038 44.8158 84.3578 44.4906 83.791C44.1653 83.2242 44.0027 82.583 44.0027 81.8676C44.0027 81.1521 44.1561 80.511 44.4627 79.9442C44.7786 79.3774 45.206 78.936 45.745 78.6201C46.2932 78.3041 46.9064 78.1462 47.5847 78.1462C48.2631 78.1462 48.8717 78.3041 49.4106 78.6201C49.9495 78.936 50.3723 79.3774 50.6789 79.9442C50.9856 80.5017 51.1389 81.1428 51.1389 81.8676L51.1249 82.1742ZM47.5847 78.9964C46.8786 78.9964 46.2839 79.224 45.8007 79.6793C45.3268 80.1253 45.0574 80.7107 44.9923 81.4355H50.1911C50.1261 80.7107 49.852 80.1253 49.3688 79.6793C48.8949 79.224 48.3002 78.9964 47.5847 78.9964ZM59.8432 75.1914V85.5332H58.8955V84.0837C58.5981 84.5761 58.2032 84.9525 57.7108 85.2126C57.2276 85.4728 56.6794 85.6029 56.0661 85.6029C55.3785 85.6029 54.756 85.4449 54.1984 85.129C53.6409 84.8131 53.2042 84.3717 52.8883 83.8049C52.5724 83.2381 52.4144 82.5923 52.4144 81.8676C52.4144 81.1428 52.5724 80.497 52.8883 79.9302C53.2042 79.3634 53.6409 78.9267 54.1984 78.6201C54.756 78.3041 55.3785 78.1462 56.0661 78.1462C56.6608 78.1462 57.1951 78.2716 57.6689 78.5225C58.1521 78.7641 58.547 79.1218 58.8537 79.5957V75.1914H59.8432ZM56.1497 84.7248C56.6608 84.7248 57.1207 84.6087 57.5296 84.3764C57.9477 84.1348 58.2729 83.7956 58.5052 83.3589C58.7468 82.9222 58.8676 82.4251 58.8676 81.8676C58.8676 81.3101 58.7468 80.8129 58.5052 80.3762C58.2729 79.9395 57.9477 79.605 57.5296 79.3727C57.1207 79.1311 56.6608 79.0103 56.1497 79.0103C55.6294 79.0103 55.1601 79.1311 54.742 79.3727C54.3332 79.605 54.008 79.9395 53.7664 80.3762C53.5341 80.8129 53.4179 81.3101 53.4179 81.8676C53.4179 82.4251 53.5341 82.9222 53.7664 83.3589C54.008 83.7956 54.3332 84.1348 54.742 84.3764C55.1601 84.6087 55.6294 84.7248 56.1497 84.7248Z" fill="black"/>
<rect x="6.15558" y="3.76373" width="49.6533" height="49.6533" rx="10.0178" stroke="#858789" stroke-width="6.09778"/>
<circle cx="20.947" cy="22.2714" r="3.71674" fill="#858789"/>
<circle cx="40.2741" cy="22.2714" r="3.71674" fill="#858789"/>
<path d="M22.8023 32.5694C21.9216 31.1343 20.0442 30.6847 18.609 31.5654C17.1738 32.4461 16.7243 34.3235 17.605 35.7587L22.8023 32.5694ZM42.8727 35.7587C43.7533 34.3235 43.3038 32.4461 41.8686 31.5654C40.4334 30.6847 38.5561 31.1343 37.6754 32.5694L42.8727 35.7587ZM17.605 35.7587C23.3897 45.1857 37.0879 45.1857 42.8727 35.7587L37.6754 32.5694C34.2703 38.1184 26.2073 38.1184 22.8023 32.5694L17.605 35.7587Z" fill="#858789"/>
</svg>
