<svg width="72" height="90" viewBox="0 0 72 90" fill="none" xmlns="http://www.w3.org/2000/svg">
<path d="M5.49467 85.5611C4.64795 85.5611 3.82736 85.4409 3.03291 85.2005C2.24891 84.96 1.62693 84.6412 1.16699 84.244L1.87259 82.6603C2.32208 83.0157 2.87088 83.3084 3.51899 83.5384C4.17755 83.7579 4.83611 83.8677 5.49467 83.8677C6.31003 83.8677 6.91632 83.737 7.31355 83.4757C7.72123 83.2143 7.92507 82.8694 7.92507 82.4408C7.92507 82.1272 7.81008 81.8711 7.58011 81.6725C7.36059 81.4634 7.07835 81.3014 6.73339 81.1864C6.38843 81.0714 5.91803 80.9407 5.32219 80.7944C4.48592 80.5958 3.80645 80.3972 3.28379 80.1985C2.77157 79.9999 2.32731 79.6916 1.95099 79.2734C1.58512 78.8448 1.40219 78.2699 1.40219 77.5486C1.40219 76.9423 1.56421 76.3935 1.88827 75.9022C2.22277 75.4005 2.71931 75.0032 3.37787 74.7105C4.04688 74.4178 4.86224 74.2715 5.82395 74.2715C6.49296 74.2715 7.15152 74.3551 7.79963 74.5224C8.44773 74.6896 9.00699 74.9301 9.47739 75.2437L8.83451 76.8273C8.35365 76.5451 7.85189 76.3308 7.32923 76.1845C6.80656 76.0381 6.29957 75.9649 5.80827 75.9649C5.00336 75.9649 4.40229 76.1008 4.00507 76.3726C3.61829 76.6444 3.42491 77.005 3.42491 77.4545C3.42491 77.7681 3.53467 78.0242 3.75419 78.2229C3.98416 78.4215 4.27163 78.5783 4.61659 78.6933C4.96155 78.8082 5.43195 78.9389 6.02779 79.0853C6.84315 79.2734 7.51216 79.472 8.03483 79.6811C8.55749 79.8797 9.00176 80.1881 9.36763 80.6062C9.74395 81.0244 9.93211 81.5888 9.93211 82.2997C9.93211 82.906 9.76485 83.4548 9.43035 83.9461C9.10629 84.4374 8.60976 84.8294 7.94075 85.1221C7.27173 85.4148 6.45637 85.5611 5.49467 85.5611ZM14.9639 76.9371C16.1974 76.9371 17.1382 77.235 17.7863 77.8309C18.4449 78.4162 18.7742 79.3048 18.7742 80.4965V85.4043H16.9239V84.3851C16.6835 84.751 16.3385 85.0332 15.889 85.2318C15.45 85.42 14.9169 85.5141 14.2897 85.5141C13.6625 85.5141 13.1137 85.4095 12.6433 85.2005C12.1729 84.9809 11.807 84.683 11.5457 84.3067C11.2948 83.9199 11.1694 83.4861 11.1694 83.0053C11.1694 82.2526 11.4464 81.6516 12.0004 81.2021C12.5649 80.7421 13.4482 80.5121 14.6503 80.5121H16.8142V80.3867C16.8142 79.8013 16.6365 79.3518 16.281 79.0382C15.9361 78.7246 15.4186 78.5678 14.7287 78.5678C14.2583 78.5678 13.7931 78.641 13.3332 78.7873C12.8837 78.9337 12.5022 79.1375 12.1886 79.3989L11.4202 77.972C11.8593 77.6375 12.3872 77.3814 13.0039 77.2037C13.6207 77.026 14.274 76.9371 14.9639 76.9371ZM14.6974 84.0872C15.1887 84.0872 15.6225 83.9774 15.9988 83.7579C16.3856 83.5279 16.6574 83.2039 16.8142 82.7857V81.8136H14.7914C13.6625 81.8136 13.098 82.1847 13.098 82.9269C13.098 83.2823 13.2391 83.5645 13.5214 83.7736C13.8036 83.9826 14.1956 84.0872 14.6974 84.0872ZM26.3229 84.9496C26.0929 85.1377 25.8106 85.2789 25.4761 85.3729C25.1521 85.467 24.8071 85.5141 24.4413 85.5141C23.5214 85.5141 22.8105 85.2736 22.3088 84.7928C21.807 84.3119 21.5561 83.6116 21.5561 82.6917V78.6619H20.1763V77.0939H21.5561V75.1809H23.5161V77.0939H25.7584V78.6619H23.5161V82.6446C23.5161 83.0523 23.6154 83.3659 23.8141 83.5854C24.0127 83.7945 24.3001 83.899 24.6765 83.899C25.1155 83.899 25.4814 83.784 25.7741 83.5541L26.3229 84.9496ZM27.9352 77.0312H29.8952V85.4043H27.9352V77.0312ZM28.923 75.6513C28.5676 75.6513 28.2697 75.5416 28.0293 75.3221C27.7889 75.0921 27.6686 74.8098 27.6686 74.4753C27.6686 74.1408 27.7889 73.8638 28.0293 73.6443C28.2697 73.4143 28.5676 73.2993 28.923 73.2993C29.2785 73.2993 29.5764 73.4091 29.8168 73.6286C30.0572 73.8377 30.1774 74.1042 30.1774 74.4283C30.1774 74.7733 30.0572 75.0659 29.8168 75.3064C29.5868 75.5363 29.2889 75.6513 28.923 75.6513ZM35.0549 85.5141C34.3754 85.5141 33.7116 85.4252 33.0635 85.2475C32.4154 85.0698 31.898 84.845 31.5112 84.5733L32.2639 83.0837C32.6402 83.3345 33.0897 83.5384 33.6123 83.6952C34.1455 83.8415 34.6681 83.9147 35.1803 83.9147C36.3511 83.9147 36.9365 83.6063 36.9365 82.9896C36.9365 82.6969 36.7849 82.493 36.4818 82.3781C36.1891 82.2631 35.7135 82.1533 35.0549 82.0488C34.365 81.9442 33.8005 81.824 33.3615 81.6881C32.9329 81.5522 32.5565 81.317 32.2325 80.9825C31.9189 80.6376 31.7621 80.162 31.7621 79.5557C31.7621 78.7612 32.0914 78.1288 32.7499 77.6584C33.4189 77.1775 34.3179 76.9371 35.4469 76.9371C36.0218 76.9371 36.5968 77.005 37.1717 77.1409C37.7466 77.2664 38.217 77.4389 38.5829 77.6584L37.8303 79.148C37.1194 78.7298 36.3197 78.5208 35.4312 78.5208C34.8563 78.5208 34.4172 78.6096 34.1141 78.7873C33.8214 78.9546 33.6751 79.1793 33.6751 79.4616C33.6751 79.7752 33.8319 79.9999 34.1455 80.1358C34.4695 80.2613 34.966 80.3815 35.6351 80.4965C36.3041 80.601 36.8529 80.7212 37.2815 80.8571C37.71 80.993 38.0759 81.223 38.3791 81.547C38.6927 81.8711 38.8495 82.331 38.8495 82.9269C38.8495 83.7109 38.5097 84.3381 37.8303 84.8085C37.1508 85.2789 36.2257 85.5141 35.0549 85.5141ZM43.9399 75.2437C43.1141 75.2437 42.7012 75.6932 42.7012 76.5921V77.0939H45.0062V78.6619H42.7639V85.4043H40.8039V78.6619H39.4241V77.0939H40.8039V76.5608C40.8039 75.6618 41.0653 74.9562 41.5879 74.444C42.1106 73.9213 42.8476 73.66 43.7988 73.66C44.5515 73.66 45.1421 73.8116 45.5707 74.1147L45.0219 75.5886C44.6874 75.3586 44.3267 75.2437 43.9399 75.2437ZM47.5777 77.0312H49.5377V85.4043H47.5777V77.0312ZM48.5655 75.6513C48.2101 75.6513 47.9122 75.5416 47.6718 75.3221C47.4314 75.0921 47.3111 74.8098 47.3111 74.4753C47.3111 74.1408 47.4314 73.8638 47.6718 73.6443C47.9122 73.4143 48.2101 73.2993 48.5655 73.2993C48.921 73.2993 49.2189 73.4091 49.4593 73.6286C49.6997 73.8377 49.8199 74.1042 49.8199 74.4283C49.8199 74.7733 49.6997 75.0659 49.4593 75.3064C49.2293 75.5363 48.9314 75.6513 48.5655 75.6513ZM59.985 81.2648C59.985 81.4007 59.9745 81.5941 59.9536 81.8449H53.3837C53.4987 82.4617 53.7966 82.953 54.2775 83.3189C54.7688 83.6743 55.3751 83.852 56.0964 83.852C57.0162 83.852 57.7741 83.5488 58.37 82.9425L59.4205 84.1499C59.0442 84.5994 58.5686 84.9391 57.9936 85.1691C57.4187 85.3991 56.7706 85.5141 56.0493 85.5141C55.1294 85.5141 54.3193 85.3311 53.6189 84.9653C52.9185 84.5994 52.375 84.0924 51.9882 83.4443C51.6119 82.7857 51.4237 82.0436 51.4237 81.2177C51.4237 80.4024 51.6066 79.6706 51.9725 79.0225C52.3488 78.364 52.8663 77.8518 53.5248 77.4859C54.1834 77.12 54.9256 76.9371 55.7514 76.9371C56.5668 76.9371 57.2933 77.12 57.9309 77.4859C58.579 77.8413 59.0808 78.3483 59.4362 79.0069C59.8021 79.655 59.985 80.4076 59.985 81.2648ZM55.7514 78.5051C55.1242 78.5051 54.5911 78.6933 54.152 79.0696C53.7234 79.4354 53.4621 79.9268 53.368 80.5435H58.1191C58.0354 79.9372 57.7793 79.4459 57.3508 79.0696C56.9222 78.6933 56.389 78.5051 55.7514 78.5051ZM70.0683 73.7697V85.4043H68.1867V84.3224C67.8627 84.7196 67.4602 85.0175 66.9794 85.2161C66.509 85.4148 65.9863 85.5141 65.4114 85.5141C64.6065 85.5141 63.88 85.3364 63.2319 84.9809C62.5942 84.6255 62.0924 84.1238 61.7266 83.4757C61.3607 82.8171 61.1778 82.0645 61.1778 81.2177C61.1778 80.371 61.3607 79.6236 61.7266 78.9755C62.0924 78.3274 62.5942 77.8256 63.2319 77.4702C63.88 77.1148 64.6065 76.9371 65.4114 76.9371C65.9654 76.9371 66.4724 77.0312 66.9323 77.2193C67.3923 77.4075 67.7843 77.6897 68.1083 78.0661V73.7697H70.0683ZM65.6466 83.8363C66.117 83.8363 66.5403 83.7318 66.9167 83.5227C67.293 83.3032 67.5909 82.9948 67.8104 82.5976C68.0299 82.2004 68.1397 81.7404 68.1397 81.2177C68.1397 80.6951 68.0299 80.2351 67.8104 79.8379C67.5909 79.4407 67.293 79.1375 66.9167 78.9285C66.5403 78.7089 66.117 78.5992 65.6466 78.5992C65.1762 78.5992 64.7528 78.7089 64.3765 78.9285C64.0002 79.1375 63.7023 79.4407 63.4827 79.8379C63.2632 80.2351 63.1535 80.6951 63.1535 81.2177C63.1535 81.7404 63.2632 82.2004 63.4827 82.5976C63.7023 82.9948 64.0002 83.3032 64.3765 83.5227C64.7528 83.7318 65.1762 83.8363 65.6466 83.8363Z" fill="black"/>
<rect x="11.1557" y="3.76373" width="49.6533" height="49.6533" rx="10.0178" stroke="#BDCEAE" stroke-width="6.09778"/>
<circle cx="25.9472" cy="22.2714" r="3.71674" fill="#BDCEAE"/>
<circle cx="45.2745" cy="22.2714" r="3.71674" fill="#BDCEAE"/>
<path d="M27.8026 32.5694C26.9219 31.1343 25.0445 30.6847 23.6094 31.5654C22.1742 32.4461 21.7247 34.3235 22.6053 35.7587L27.8026 32.5694ZM47.873 35.7587C48.7537 34.3235 48.3042 32.4461 46.869 31.5654C45.4338 30.6847 43.5564 31.1343 42.6757 32.5694L47.873 35.7587ZM22.6053 35.7587C28.3901 45.1857 42.0883 45.1857 47.873 35.7587L42.6757 32.5694C39.2707 38.1184 31.2077 38.1184 27.8026 32.5694L22.6053 35.7587Z" fill="#BDCEAE"/>
</svg>
