<svg width="265" height="64" viewBox="0 0 265 64" fill="none" xmlns="http://www.w3.org/2000/svg">
<g filter="url(#filter0_d)">
<rect x="11.25" y="7.25" width="242.5" height="41.5" rx="8.75" fill="white"/>
<path d="M46.976 34.16C46.112 34.16 45.2747 34.0373 44.464 33.792C43.664 33.5467 43.0293 33.2213 42.56 32.816L43.28 31.2C43.7387 31.5627 44.2987 31.8613 44.96 32.096C45.632 32.32 46.304 32.432 46.976 32.432C47.808 32.432 48.4267 32.2987 48.832 32.032C49.248 31.7653 49.456 31.4133 49.456 30.976C49.456 30.656 49.3387 30.3947 49.104 30.192C48.88 29.9787 48.592 29.8133 48.24 29.696C47.888 29.5787 47.408 29.4453 46.8 29.296C45.9467 29.0933 45.2533 28.8907 44.72 28.688C44.1973 28.4853 43.744 28.1707 43.36 27.744C42.9867 27.3067 42.8 26.72 42.8 25.984C42.8 25.3653 42.9653 24.8053 43.296 24.304C43.6373 23.792 44.144 23.3867 44.816 23.088C45.4987 22.7893 46.3307 22.64 47.312 22.64C47.9947 22.64 48.6667 22.7253 49.328 22.896C49.9893 23.0667 50.56 23.312 51.04 23.632L50.384 25.248C49.8933 24.96 49.3813 24.7413 48.848 24.592C48.3147 24.4427 47.7973 24.368 47.296 24.368C46.4747 24.368 45.8613 24.5067 45.456 24.784C45.0613 25.0613 44.864 25.4293 44.864 25.888C44.864 26.208 44.976 26.4693 45.2 26.672C45.4347 26.8747 45.728 27.0347 46.08 27.152C46.432 27.2693 46.912 27.4027 47.52 27.552C48.352 27.744 49.0347 27.9467 49.568 28.16C50.1013 28.3627 50.5547 28.6773 50.928 29.104C51.312 29.5307 51.504 30.1067 51.504 30.832C51.504 31.4507 51.3333 32.0107 50.992 32.512C50.6613 33.0133 50.1547 33.4133 49.472 33.712C48.7893 34.0107 47.9573 34.16 46.976 34.16ZM61.9665 32.256V34H53.5665V22.8H61.7425V24.544H55.6465V27.456H61.0545V29.168H55.6465V32.256H61.9665ZM69.4224 34.16C68.2917 34.16 67.2677 33.9147 66.3504 33.424C65.4437 32.9227 64.729 32.2347 64.2064 31.36C63.6944 30.4853 63.4384 29.4987 63.4384 28.4C63.4384 27.3013 63.6997 26.3147 64.2224 25.44C64.745 24.5653 65.4597 23.8827 66.3664 23.392C67.2837 22.8907 68.3077 22.64 69.4384 22.64C70.3557 22.64 71.193 22.8 71.9504 23.12C72.7077 23.44 73.3477 23.904 73.8704 24.512L72.5264 25.776C71.7157 24.9013 70.7184 24.464 69.5344 24.464C68.7664 24.464 68.0784 24.6347 67.4704 24.976C66.8624 25.3067 66.3877 25.7707 66.0464 26.368C65.705 26.9653 65.5344 27.6427 65.5344 28.4C65.5344 29.1573 65.705 29.8347 66.0464 30.432C66.3877 31.0293 66.8624 31.4987 67.4704 31.84C68.0784 32.1707 68.7664 32.336 69.5344 32.336C70.7184 32.336 71.7157 31.8933 72.5264 31.008L73.8704 32.288C73.3477 32.896 72.7024 33.36 71.9344 33.68C71.177 34 70.3397 34.16 69.4224 34.16ZM80.861 34.16C79.7197 34.16 78.6903 33.9147 77.773 33.424C76.8557 32.9227 76.1357 32.2347 75.613 31.36C75.0903 30.4747 74.829 29.488 74.829 28.4C74.829 27.312 75.0903 26.3307 75.613 25.456C76.1357 24.5707 76.8557 23.8827 77.773 23.392C78.6903 22.8907 79.7197 22.64 80.861 22.64C82.0023 22.64 83.0317 22.8907 83.949 23.392C84.8663 23.8827 85.5863 24.5653 86.109 25.44C86.6317 26.3147 86.893 27.3013 86.893 28.4C86.893 29.4987 86.6317 30.4853 86.109 31.36C85.5863 32.2347 84.8663 32.9227 83.949 33.424C83.0317 33.9147 82.0023 34.16 80.861 34.16ZM80.861 32.336C81.6077 32.336 82.2797 32.1707 82.877 31.84C83.4743 31.4987 83.9437 31.0293 84.285 30.432C84.6263 29.824 84.797 29.1467 84.797 28.4C84.797 27.6533 84.6263 26.9813 84.285 26.384C83.9437 25.776 83.4743 25.3067 82.877 24.976C82.2797 24.6347 81.6077 24.464 80.861 24.464C80.1143 24.464 79.4423 24.6347 78.845 24.976C78.2477 25.3067 77.7783 25.776 77.437 26.384C77.0957 26.9813 76.925 27.6533 76.925 28.4C76.925 29.1467 77.0957 29.824 77.437 30.432C77.7783 31.0293 78.2477 31.4987 78.845 31.84C79.4423 32.1707 80.1143 32.336 80.861 32.336ZM99.0498 22.8V34H97.3378L91.1618 26.416V34H89.0978V22.8H90.8098L96.9858 30.384V22.8H99.0498ZM102.051 22.8H106.947C108.142 22.8 109.203 23.0347 110.131 23.504C111.059 23.9627 111.779 24.6187 112.291 25.472C112.803 26.3147 113.059 27.2907 113.059 28.4C113.059 29.5093 112.803 30.4907 112.291 31.344C111.779 32.1867 111.059 32.8427 110.131 33.312C109.203 33.7707 108.142 34 106.947 34H102.051V22.8ZM106.851 32.24C107.672 32.24 108.392 32.0853 109.011 31.776C109.64 31.456 110.12 31.008 110.451 30.432C110.792 29.8453 110.963 29.168 110.963 28.4C110.963 27.632 110.792 26.96 110.451 26.384C110.12 25.7973 109.64 25.3493 109.011 25.04C108.392 24.72 107.672 24.56 106.851 24.56H104.131V32.24H106.851ZM122.377 31.408H116.777L115.673 34H113.529L118.569 22.8H120.617L125.673 34H123.497L122.377 31.408ZM121.689 29.776L119.577 24.88L117.481 29.776H121.689ZM134.426 34L132.138 30.72C132.042 30.7307 131.898 30.736 131.706 30.736H129.178V34H127.098V22.8H131.706C132.676 22.8 133.519 22.96 134.234 23.28C134.959 23.6 135.514 24.0587 135.898 24.656C136.282 25.2533 136.474 25.9627 136.474 26.784C136.474 27.6267 136.266 28.352 135.85 28.96C135.444 29.568 134.858 30.0213 134.09 30.32L136.666 34H134.426ZM134.378 26.784C134.378 26.0693 134.143 25.52 133.674 25.136C133.204 24.752 132.516 24.56 131.61 24.56H129.178V29.024H131.61C132.516 29.024 133.204 28.832 133.674 28.448C134.143 28.0533 134.378 27.4987 134.378 26.784ZM143.477 30.048V34H141.397V30.08L136.997 22.8H139.221L142.501 28.256L145.813 22.8H147.861L143.477 30.048ZM161.581 28.176C162.199 28.3787 162.69 28.72 163.053 29.2C163.415 29.6693 163.597 30.256 163.597 30.96C163.597 31.9307 163.223 32.6827 162.477 33.216C161.73 33.7387 160.642 34 159.213 34H153.645V22.8H158.893C160.215 22.8 161.234 23.0613 161.949 23.584C162.663 24.096 163.021 24.8053 163.021 25.712C163.021 26.2667 162.893 26.7573 162.637 27.184C162.381 27.6107 162.029 27.9413 161.581 28.176ZM155.725 24.432V27.52H158.669C159.394 27.52 159.949 27.392 160.333 27.136C160.727 26.8693 160.925 26.4853 160.925 25.984C160.925 25.472 160.727 25.088 160.333 24.832C159.949 24.5653 159.394 24.432 158.669 24.432H155.725ZM159.085 32.368C160.695 32.368 161.501 31.8293 161.501 30.752C161.501 29.6747 160.695 29.136 159.085 29.136H155.725V32.368H159.085ZM170.633 34.16C169.086 34.16 167.881 33.728 167.017 32.864C166.153 31.9893 165.721 30.7413 165.721 29.12V22.8H167.801V29.04C167.801 31.2373 168.75 32.336 170.649 32.336C172.537 32.336 173.481 31.2373 173.481 29.04V22.8H175.529V29.12C175.529 30.7413 175.097 31.9893 174.233 32.864C173.379 33.728 172.179 34.16 170.633 34.16ZM180.51 24.56H176.798V22.8H186.302V24.56H182.59V34H180.51V24.56ZM190.292 24.56H186.58V22.8H196.084V24.56H192.372V34H190.292V24.56ZM202.72 34.16C201.579 34.16 200.55 33.9147 199.632 33.424C198.715 32.9227 197.995 32.2347 197.472 31.36C196.95 30.4747 196.688 29.488 196.688 28.4C196.688 27.312 196.95 26.3307 197.472 25.456C197.995 24.5707 198.715 23.8827 199.632 23.392C200.55 22.8907 201.579 22.64 202.72 22.64C203.862 22.64 204.891 22.8907 205.808 23.392C206.726 23.8827 207.446 24.5653 207.968 25.44C208.491 26.3147 208.752 27.3013 208.752 28.4C208.752 29.4987 208.491 30.4853 207.968 31.36C207.446 32.2347 206.726 32.9227 205.808 33.424C204.891 33.9147 203.862 34.16 202.72 34.16ZM202.72 32.336C203.467 32.336 204.139 32.1707 204.736 31.84C205.334 31.4987 205.803 31.0293 206.144 30.432C206.486 29.824 206.656 29.1467 206.656 28.4C206.656 27.6533 206.486 26.9813 206.144 26.384C205.803 25.776 205.334 25.3067 204.736 24.976C204.139 24.6347 203.467 24.464 202.72 24.464C201.974 24.464 201.302 24.6347 200.704 24.976C200.107 25.3067 199.638 25.776 199.296 26.384C198.955 26.9813 198.784 27.6533 198.784 28.4C198.784 29.1467 198.955 29.824 199.296 30.432C199.638 31.0293 200.107 31.4987 200.704 31.84C201.302 32.1707 201.974 32.336 202.72 32.336ZM220.909 22.8V34H219.197L213.021 26.416V34H210.957V22.8H212.669L218.845 30.384V22.8H220.909Z" fill="#2E404B"/>
<rect x="11.25" y="7.25" width="242.5" height="41.5" rx="8.75" stroke="#F4CD9C" stroke-width="2.5"/>
</g>
<defs>
<filter id="filter0_d" x="0" y="0" width="265" height="64" filterUnits="userSpaceOnUse" color-interpolation-filters="sRGB">
<feFlood flood-opacity="0" result="BackgroundImageFix"/>
<feColorMatrix in="SourceAlpha" type="matrix" values="0 0 0 0 0 0 0 0 0 0 0 0 0 0 0 0 0 0 127 0"/>
<feOffset dy="4"/>
<feGaussianBlur stdDeviation="5"/>
<feColorMatrix type="matrix" values="0 0 0 0 0.768627 0 0 0 0 0.768627 0 0 0 0 0.768627 0 0 0 0.2 0"/>
<feBlend mode="normal" in2="BackgroundImageFix" result="effect1_dropShadow"/>
<feBlend mode="normal" in="SourceGraphic" in2="effect1_dropShadow" result="shape"/>
</filter>
</defs>
</svg>
