<svg width="346" height="64" viewBox="0 0 346 64" fill="none" xmlns="http://www.w3.org/2000/svg">
<g filter="url(#filter0_d)">
<rect x="10" y="6" width="44" height="44" rx="8" fill="white"/>
<rect x="10.5" y="6.5" width="43" height="43" rx="7.5" stroke="#D9D9D9"/>
</g>
<path d="M92.336 33.096C90.8853 33.096 89.7547 32.68 88.944 31.848C88.1333 31.016 87.728 29.8053 87.728 28.216V21.8H88.912V28.168C88.912 29.4693 89.2053 30.44 89.792 31.08C90.3787 31.72 91.2267 32.04 92.336 32.04C93.456 32.04 94.3093 31.72 94.896 31.08C95.4827 30.44 95.776 29.4693 95.776 28.168V21.8H96.928V28.216C96.928 29.8053 96.5227 31.016 95.712 31.848C94.912 32.68 93.7867 33.096 92.336 33.096ZM104.544 24.52C105.6 24.52 106.437 24.8293 107.056 25.448C107.685 26.056 108 26.9467 108 28.12V33H106.864V28.232C106.864 27.3573 106.645 26.6907 106.208 26.232C105.771 25.7733 105.147 25.544 104.336 25.544C103.429 25.544 102.709 25.816 102.176 26.36C101.653 26.8933 101.392 27.6347 101.392 28.584V33H100.256V24.584H101.344V26.136C101.653 25.624 102.08 25.2293 102.624 24.952C103.179 24.664 103.819 24.52 104.544 24.52ZM114.603 33.08C113.771 33.08 113.025 32.8987 112.363 32.536C111.713 32.1733 111.201 31.6667 110.827 31.016C110.454 30.3547 110.267 29.6133 110.267 28.792C110.267 27.9707 110.454 27.2347 110.827 26.584C111.201 25.9333 111.713 25.4267 112.363 25.064C113.025 24.7013 113.771 24.52 114.603 24.52C115.329 24.52 115.974 24.664 116.539 24.952C117.115 25.2293 117.569 25.64 117.899 26.184L117.051 26.76C116.774 26.344 116.422 26.0347 115.995 25.832C115.569 25.6187 115.105 25.512 114.603 25.512C113.995 25.512 113.446 25.6507 112.955 25.928C112.475 26.1947 112.097 26.5787 111.819 27.08C111.553 27.5813 111.419 28.152 111.419 28.792C111.419 29.4427 111.553 30.0187 111.819 30.52C112.097 31.0107 112.475 31.3947 112.955 31.672C113.446 31.9387 113.995 32.072 114.603 32.072C115.105 32.072 115.569 31.9707 115.995 31.768C116.422 31.5653 116.774 31.256 117.051 30.84L117.899 31.416C117.569 31.96 117.115 32.376 116.539 32.664C115.963 32.9413 115.318 33.08 114.603 33.08ZM124.294 24.52C125.35 24.52 126.187 24.8293 126.806 25.448C127.435 26.056 127.75 26.9467 127.75 28.12V33H126.614V28.232C126.614 27.3573 126.395 26.6907 125.958 26.232C125.521 25.7733 124.897 25.544 124.086 25.544C123.179 25.544 122.459 25.816 121.926 26.36C121.403 26.8933 121.142 27.6347 121.142 28.584V33H120.006V21.128H121.142V26.056C121.451 25.5653 121.878 25.1867 122.422 24.92C122.966 24.6533 123.59 24.52 124.294 24.52ZM138.193 29.144H131.153C131.217 30.0187 131.553 30.728 132.161 31.272C132.769 31.8053 133.537 32.072 134.465 32.072C134.988 32.072 135.468 31.9813 135.905 31.8C136.343 31.608 136.721 31.3307 137.041 30.968L137.681 31.704C137.308 32.152 136.839 32.4933 136.273 32.728C135.719 32.9627 135.105 33.08 134.433 33.08C133.569 33.08 132.801 32.8987 132.129 32.536C131.468 32.1627 130.951 31.6507 130.577 31C130.204 30.3493 130.017 29.6133 130.017 28.792C130.017 27.9707 130.193 27.2347 130.545 26.584C130.908 25.9333 131.399 25.4267 132.017 25.064C132.647 24.7013 133.351 24.52 134.129 24.52C134.908 24.52 135.607 24.7013 136.225 25.064C136.844 25.4267 137.329 25.9333 137.681 26.584C138.033 27.224 138.209 27.96 138.209 28.792L138.193 29.144ZM134.129 25.496C133.319 25.496 132.636 25.7573 132.081 26.28C131.537 26.792 131.228 27.464 131.153 28.296H137.121C137.047 27.464 136.732 26.792 136.177 26.28C135.633 25.7573 134.951 25.496 134.129 25.496ZM144.01 33.08C143.178 33.08 142.431 32.8987 141.77 32.536C141.119 32.1733 140.607 31.6667 140.234 31.016C139.86 30.3547 139.674 29.6133 139.674 28.792C139.674 27.9707 139.86 27.2347 140.234 26.584C140.607 25.9333 141.119 25.4267 141.77 25.064C142.431 24.7013 143.178 24.52 144.01 24.52C144.735 24.52 145.38 24.664 145.946 24.952C146.522 25.2293 146.975 25.64 147.306 26.184L146.458 26.76C146.18 26.344 145.828 26.0347 145.402 25.832C144.975 25.6187 144.511 25.512 144.01 25.512C143.402 25.512 142.852 25.6507 142.362 25.928C141.882 26.1947 141.503 26.5787 141.226 27.08C140.959 27.5813 140.826 28.152 140.826 28.792C140.826 29.4427 140.959 30.0187 141.226 30.52C141.503 31.0107 141.882 31.3947 142.362 31.672C142.852 31.9387 143.402 32.072 144.01 32.072C144.511 32.072 144.975 31.9707 145.402 31.768C145.828 31.5653 146.18 31.256 146.458 30.84L147.306 31.416C146.975 31.96 146.522 32.376 145.946 32.664C145.37 32.9413 144.724 33.08 144.01 33.08ZM152.532 28.776L150.548 30.6V33H149.412V21.128H150.548V29.176L155.572 24.584H156.98L153.38 28.024L157.316 33H155.924L152.532 28.776ZM166.006 29.144H158.966C159.03 30.0187 159.366 30.728 159.974 31.272C160.582 31.8053 161.35 32.072 162.278 32.072C162.8 32.072 163.28 31.9813 163.718 31.8C164.155 31.608 164.534 31.3307 164.854 30.968L165.494 31.704C165.12 32.152 164.651 32.4933 164.086 32.728C163.531 32.9627 162.918 33.08 162.246 33.08C161.382 33.08 160.614 32.8987 159.942 32.536C159.28 32.1627 158.763 31.6507 158.39 31C158.016 30.3493 157.83 29.6133 157.83 28.792C157.83 27.9707 158.006 27.2347 158.358 26.584C158.72 25.9333 159.211 25.4267 159.83 25.064C160.459 24.7013 161.163 24.52 161.942 24.52C162.72 24.52 163.419 24.7013 164.038 25.064C164.656 25.4267 165.142 25.9333 165.494 26.584C165.846 27.224 166.022 27.96 166.022 28.792L166.006 29.144ZM161.942 25.496C161.131 25.496 160.448 25.7573 159.894 26.28C159.35 26.792 159.04 27.464 158.966 28.296H164.934C164.859 27.464 164.544 26.792 163.99 26.28C163.446 25.7573 162.763 25.496 161.942 25.496ZM176.014 21.128V33H174.926V31.336C174.585 31.9013 174.131 32.3333 173.566 32.632C173.011 32.9307 172.382 33.08 171.678 33.08C170.889 33.08 170.174 32.8987 169.534 32.536C168.894 32.1733 168.393 31.6667 168.03 31.016C167.667 30.3653 167.486 29.624 167.486 28.792C167.486 27.96 167.667 27.2187 168.03 26.568C168.393 25.9173 168.894 25.416 169.534 25.064C170.174 24.7013 170.889 24.52 171.678 24.52C172.361 24.52 172.974 24.664 173.518 24.952C174.073 25.2293 174.526 25.64 174.878 26.184V21.128H176.014ZM171.774 32.072C172.361 32.072 172.889 31.9387 173.358 31.672C173.838 31.3947 174.211 31.0053 174.478 30.504C174.755 30.0027 174.894 29.432 174.894 28.792C174.894 28.152 174.755 27.5813 174.478 27.08C174.211 26.5787 173.838 26.1947 173.358 25.928C172.889 25.6507 172.361 25.512 171.774 25.512C171.177 25.512 170.638 25.6507 170.158 25.928C169.689 26.1947 169.315 26.5787 169.038 27.08C168.771 27.5813 168.638 28.152 168.638 28.792C168.638 29.432 168.771 30.0027 169.038 30.504C169.315 31.0053 169.689 31.3947 170.158 31.672C170.638 31.9387 171.177 32.072 171.774 32.072ZM183.365 24.584H184.501V33H183.365V24.584ZM183.941 22.744C183.707 22.744 183.509 22.664 183.349 22.504C183.189 22.344 183.109 22.152 183.109 21.928C183.109 21.7147 183.189 21.528 183.349 21.368C183.509 21.208 183.707 21.128 183.941 21.128C184.176 21.128 184.373 21.208 184.533 21.368C184.693 21.5173 184.773 21.6987 184.773 21.912C184.773 22.1467 184.693 22.344 184.533 22.504C184.373 22.664 184.176 22.744 183.941 22.744ZM192.094 32.488C191.881 32.68 191.614 32.8293 191.294 32.936C190.985 33.032 190.659 33.08 190.318 33.08C189.529 33.08 188.921 32.8667 188.494 32.44C188.067 32.0133 187.854 31.4107 187.854 30.632V25.544H186.35V24.584H187.854V22.744H188.99V24.584H191.55V25.544H188.99V30.568C188.99 31.0693 189.113 31.4533 189.358 31.72C189.614 31.976 189.977 32.104 190.446 32.104C190.681 32.104 190.905 32.0667 191.118 31.992C191.342 31.9173 191.534 31.8107 191.694 31.672L192.094 32.488ZM201.193 29.144H194.153C194.217 30.0187 194.553 30.728 195.161 31.272C195.769 31.8053 196.537 32.072 197.465 32.072C197.988 32.072 198.468 31.9813 198.905 31.8C199.343 31.608 199.721 31.3307 200.041 30.968L200.681 31.704C200.308 32.152 199.839 32.4933 199.273 32.728C198.719 32.9627 198.105 33.08 197.433 33.08C196.569 33.08 195.801 32.8987 195.129 32.536C194.468 32.1627 193.951 31.6507 193.577 31C193.204 30.3493 193.017 29.6133 193.017 28.792C193.017 27.9707 193.193 27.2347 193.545 26.584C193.908 25.9333 194.399 25.4267 195.017 25.064C195.647 24.7013 196.351 24.52 197.129 24.52C197.908 24.52 198.607 24.7013 199.225 25.064C199.844 25.4267 200.329 25.9333 200.681 26.584C201.033 27.224 201.209 27.96 201.209 28.792L201.193 29.144ZM197.129 25.496C196.319 25.496 195.636 25.7573 195.081 26.28C194.537 26.792 194.228 27.464 194.153 28.296H200.121C200.047 27.464 199.732 26.792 199.177 26.28C198.633 25.7573 197.951 25.496 197.129 25.496ZM214.018 24.52C215.074 24.52 215.9 24.824 216.498 25.432C217.106 26.04 217.41 26.936 217.41 28.12V33H216.274V28.232C216.274 27.3573 216.06 26.6907 215.634 26.232C215.218 25.7733 214.626 25.544 213.858 25.544C212.983 25.544 212.295 25.816 211.794 26.36C211.292 26.8933 211.042 27.6347 211.042 28.584V33H209.906V28.232C209.906 27.3573 209.692 26.6907 209.266 26.232C208.85 25.7733 208.252 25.544 207.474 25.544C206.61 25.544 205.922 25.816 205.41 26.36C204.908 26.8933 204.658 27.6347 204.658 28.584V33H203.522V24.584H204.61V26.12C204.908 25.608 205.324 25.2133 205.858 24.936C206.391 24.6587 207.004 24.52 207.698 24.52C208.402 24.52 209.01 24.6693 209.522 24.968C210.044 25.2667 210.434 25.7093 210.69 26.296C210.999 25.7413 211.442 25.3093 212.018 25C212.604 24.68 213.271 24.52 214.018 24.52ZM228.118 33.08C227.307 33.08 226.576 32.8987 225.926 32.536C225.275 32.1627 224.763 31.6507 224.39 31C224.016 30.3493 223.83 29.6133 223.83 28.792C223.83 27.9707 224.016 27.2347 224.39 26.584C224.763 25.9333 225.275 25.4267 225.926 25.064C226.576 24.7013 227.307 24.52 228.118 24.52C228.928 24.52 229.659 24.7013 230.31 25.064C230.96 25.4267 231.467 25.9333 231.83 26.584C232.203 27.2347 232.39 27.9707 232.39 28.792C232.39 29.6133 232.203 30.3493 231.83 31C231.467 31.6507 230.96 32.1627 230.31 32.536C229.659 32.8987 228.928 33.08 228.118 33.08ZM228.118 32.072C228.715 32.072 229.248 31.9387 229.718 31.672C230.198 31.3947 230.571 31.0053 230.838 30.504C231.104 30.0027 231.238 29.432 231.238 28.792C231.238 28.152 231.104 27.5813 230.838 27.08C230.571 26.5787 230.198 26.1947 229.718 25.928C229.248 25.6507 228.715 25.512 228.118 25.512C227.52 25.512 226.982 25.6507 226.502 25.928C226.032 26.1947 225.659 26.5787 225.382 27.08C225.115 27.5813 224.982 28.152 224.982 28.792C224.982 29.432 225.115 30.0027 225.382 30.504C225.659 31.0053 226.032 31.3947 226.502 31.672C226.982 31.9387 227.52 32.072 228.118 32.072ZM238.997 24.52C240.053 24.52 240.89 24.8293 241.509 25.448C242.138 26.056 242.453 26.9467 242.453 28.12V33H241.317V28.232C241.317 27.3573 241.098 26.6907 240.661 26.232C240.224 25.7733 239.6 25.544 238.789 25.544C237.882 25.544 237.162 25.816 236.629 26.36C236.106 26.8933 235.845 27.6347 235.845 28.584V33H234.709V24.584H235.797V26.136C236.106 25.624 236.533 25.2293 237.077 24.952C237.632 24.664 238.272 24.52 238.997 24.52ZM249.725 21.128H250.861V33H249.725V21.128ZM254.022 24.584H255.158V33H254.022V24.584ZM254.598 22.744C254.363 22.744 254.166 22.664 254.006 22.504C253.846 22.344 253.766 22.152 253.766 21.928C253.766 21.7147 253.846 21.528 254.006 21.368C254.166 21.208 254.363 21.128 254.598 21.128C254.832 21.128 255.03 21.208 255.19 21.368C255.35 21.5173 255.43 21.6987 255.43 21.912C255.43 22.1467 255.35 22.344 255.19 22.504C255.03 22.664 254.832 22.744 254.598 22.744ZM260.574 33.08C259.892 33.08 259.236 32.984 258.606 32.792C257.988 32.5893 257.502 32.3387 257.15 32.04L257.662 31.144C258.014 31.4213 258.457 31.6507 258.99 31.832C259.524 32.0027 260.078 32.088 260.654 32.088C261.422 32.088 261.988 31.9707 262.35 31.736C262.724 31.4907 262.91 31.1493 262.91 30.712C262.91 30.4027 262.809 30.1627 262.606 29.992C262.404 29.8107 262.148 29.6773 261.838 29.592C261.529 29.496 261.118 29.4053 260.606 29.32C259.924 29.192 259.374 29.064 258.958 28.936C258.542 28.7973 258.185 28.568 257.886 28.248C257.598 27.928 257.454 27.4853 257.454 26.92C257.454 26.216 257.748 25.64 258.334 25.192C258.921 24.744 259.737 24.52 260.782 24.52C261.326 24.52 261.87 24.5947 262.414 24.744C262.958 24.8827 263.406 25.0693 263.758 25.304L263.262 26.216C262.569 25.736 261.742 25.496 260.782 25.496C260.057 25.496 259.508 25.624 259.134 25.88C258.772 26.136 258.59 26.472 258.59 26.888C258.59 27.208 258.692 27.464 258.894 27.656C259.108 27.848 259.369 27.992 259.678 28.088C259.988 28.1733 260.414 28.264 260.958 28.36C261.63 28.488 262.169 28.616 262.574 28.744C262.98 28.872 263.326 29.0907 263.614 29.4C263.902 29.7093 264.046 30.136 264.046 30.68C264.046 31.416 263.737 32.0027 263.118 32.44C262.51 32.8667 261.662 33.08 260.574 33.08ZM270.579 32.488C270.365 32.68 270.099 32.8293 269.779 32.936C269.469 33.032 269.144 33.08 268.803 33.08C268.013 33.08 267.405 32.8667 266.979 32.44C266.552 32.0133 266.339 31.4107 266.339 30.632V25.544H264.835V24.584H266.339V22.744H267.475V24.584H270.035V25.544H267.475V30.568C267.475 31.0693 267.597 31.4533 267.843 31.72C268.099 31.976 268.461 32.104 268.931 32.104C269.165 32.104 269.389 32.0667 269.603 31.992C269.827 31.9173 270.019 31.8107 270.179 31.672L270.579 32.488Z" fill="#2E404B"/>
<defs>
<filter id="filter0_d" x="0" y="0" width="64" height="64" filterUnits="userSpaceOnUse" color-interpolation-filters="sRGB">
<feFlood flood-opacity="0" result="BackgroundImageFix"/>
<feColorMatrix in="SourceAlpha" type="matrix" values="0 0 0 0 0 0 0 0 0 0 0 0 0 0 0 0 0 0 127 0"/>
<feOffset dy="4"/>
<feGaussianBlur stdDeviation="5"/>
<feColorMatrix type="matrix" values="0 0 0 0 0.768627 0 0 0 0 0.768627 0 0 0 0 0.768627 0 0 0 0.6 0"/>
<feBlend mode="normal" in2="BackgroundImageFix" result="effect1_dropShadow"/>
<feBlend mode="normal" in="SourceGraphic" in2="effect1_dropShadow" result="shape"/>
</filter>
</defs>
</svg>
