<svg width="93" height="89" viewBox="0 0 93 89" fill="none" xmlns="http://www.w3.org/2000/svg">
<path d="M6.59858 84.69C5.08285 84.69 3.90162 84.2666 3.0549 83.4199C2.20818 82.5627 1.78482 81.3397 1.78482 79.7508V73.5572H3.82322V79.6724C3.82322 81.8258 4.75357 82.9025 6.61426 82.9025C8.4645 82.9025 9.38962 81.8258 9.38962 79.6724V73.5572H11.3967V79.7508C11.3967 81.3397 10.9733 82.5627 10.1266 83.4199C9.29032 84.2666 8.11432 84.69 6.59858 84.69ZM18.8143 76.066C19.8701 76.066 20.7168 76.3744 21.3544 76.9911C21.9921 77.6079 22.3109 78.5225 22.3109 79.7351V84.5332H20.3509V79.986C20.3509 79.2543 20.1784 78.7055 19.8335 78.3396C19.4885 77.9633 18.9972 77.7751 18.3596 77.7751C17.6383 77.7751 17.0686 77.9946 16.6504 78.4337C16.2323 78.8623 16.0232 79.4842 16.0232 80.2996V84.5332H14.0632V76.1601H15.9292V77.242C16.2532 76.8552 16.6609 76.5625 17.1522 76.3639C17.6435 76.1653 18.1975 76.066 18.8143 76.066ZM27.3845 84.643C26.705 84.643 26.0413 84.5541 25.3931 84.3764C24.745 84.1987 24.2276 83.9739 23.8408 83.7022L24.5935 82.2126C24.9698 82.4634 25.4193 82.6673 25.9419 82.8241C26.4751 82.9704 26.9977 83.0436 27.5099 83.0436C28.6807 83.0436 29.2661 82.7352 29.2661 82.1185C29.2661 81.8258 29.1145 81.6219 28.8114 81.507C28.5187 81.392 28.0431 81.2822 27.3845 81.1777C26.6946 81.0731 26.1301 80.9529 25.6911 80.817C25.2625 80.6811 24.8862 80.4459 24.5621 80.1114C24.2485 79.7665 24.0917 79.2909 24.0917 78.6846C24.0917 77.8901 24.421 77.2577 25.0795 76.7873C25.7486 76.3064 26.6475 76.066 27.7765 76.066C28.3514 76.066 28.9264 76.1339 29.5013 76.2698C30.0762 76.3953 30.5466 76.5678 30.9125 76.7873L30.1599 78.2769C29.449 77.8587 28.6494 77.6497 27.7608 77.6497C27.1859 77.6497 26.7469 77.7385 26.4437 77.9162C26.151 78.0835 26.0047 78.3082 26.0047 78.5905C26.0047 78.9041 26.1615 79.1288 26.4751 79.2647C26.7991 79.3902 27.2957 79.5104 27.9647 79.6254C28.6337 79.7299 29.1825 79.8501 29.6111 79.986C30.0397 80.1219 30.4055 80.3519 30.7087 80.6759C31.0223 81 31.1791 81.4599 31.1791 82.0558C31.1791 82.8398 30.8393 83.467 30.1599 83.9374C29.4804 84.4078 28.5553 84.643 27.3845 84.643ZM36.0657 76.066C37.2992 76.066 38.24 76.3639 38.8881 76.9598C39.5467 77.5451 39.876 78.4337 39.876 79.6254V84.5332H38.0257V83.514C37.7853 83.8799 37.4403 84.1621 36.9908 84.3607C36.5518 84.5489 36.0187 84.643 35.3915 84.643C34.7643 84.643 34.2155 84.5384 33.7451 84.3294C33.2747 84.1098 32.9088 83.8119 32.6475 83.4356C32.3966 83.0488 32.2712 82.615 32.2712 82.1342C32.2712 81.3815 32.5482 80.7805 33.1022 80.331C33.6667 79.871 34.55 79.641 35.7521 79.641H37.916V79.5156C37.916 78.9302 37.7382 78.4807 37.3828 78.1671C37.0379 77.8535 36.5204 77.6967 35.8305 77.6967C35.3601 77.6967 34.8949 77.7699 34.435 77.9162C33.9855 78.0626 33.604 78.2664 33.2904 78.5278L32.522 77.1009C32.9611 76.7664 33.489 76.5103 34.1057 76.3326C34.7225 76.1549 35.3758 76.066 36.0657 76.066ZM35.7992 83.2161C36.2905 83.2161 36.7243 83.1063 37.1006 82.8868C37.4874 82.6568 37.7592 82.3328 37.916 81.9146V80.9425H35.8932C34.7643 80.9425 34.1998 81.3136 34.1998 82.0558C34.1998 82.4112 34.3409 82.6934 34.6232 82.9025C34.9054 83.1115 35.2974 83.2161 35.7992 83.2161ZM47.4246 84.0785C47.1947 84.2666 46.9124 84.4078 46.5779 84.5018C46.2539 84.5959 45.9089 84.643 45.543 84.643C44.6232 84.643 43.9123 84.4025 43.4106 83.9217C42.9088 83.4408 42.6579 82.7405 42.6579 81.8206V77.7908H41.2781V76.2228H42.6579V74.3098H44.6179V76.2228H46.8602V77.7908H44.6179V81.7735C44.6179 82.1812 44.7172 82.4948 44.9158 82.7143C45.1145 82.9234 45.4019 83.0279 45.7782 83.0279C46.2173 83.0279 46.5832 82.9129 46.8758 82.683L47.4246 84.0785ZM49.037 76.1601H50.997V84.5332H49.037V76.1601ZM50.0248 74.7802C49.6694 74.7802 49.3715 74.6705 49.1311 74.451C48.8906 74.221 48.7704 73.9387 48.7704 73.6042C48.7704 73.2697 48.8906 72.9927 49.1311 72.7732C49.3715 72.5432 49.6694 72.4282 50.0248 72.4282C50.3802 72.4282 50.6782 72.538 50.9186 72.7575C51.159 72.9666 51.2792 73.2331 51.2792 73.5572C51.2792 73.9022 51.159 74.1949 50.9186 74.4353C50.6886 74.6653 50.3907 74.7802 50.0248 74.7802ZM56.1567 84.643C55.4772 84.643 54.8134 84.5541 54.1653 84.3764C53.5172 84.1987 52.9998 83.9739 52.613 83.7022L53.3656 82.2126C53.742 82.4634 54.1915 82.6673 54.7141 82.8241C55.2472 82.9704 55.7699 83.0436 56.2821 83.0436C57.4529 83.0436 58.0383 82.7352 58.0383 82.1185C58.0383 81.8258 57.8867 81.6219 57.5836 81.507C57.2909 81.392 56.8152 81.2822 56.1567 81.1777C55.4668 81.0731 54.9023 80.9529 54.4632 80.817C54.0347 80.6811 53.6583 80.4459 53.3343 80.1114C53.0207 79.7665 52.8639 79.2909 52.8639 78.6846C52.8639 77.8901 53.1932 77.2577 53.8517 76.7873C54.5207 76.3064 55.4197 76.066 56.5487 76.066C57.1236 76.066 57.6986 76.1339 58.2735 76.2698C58.8484 76.3953 59.3188 76.5678 59.6847 76.7873L58.932 78.2769C58.2212 77.8587 57.4215 77.6497 56.533 77.6497C55.9581 77.6497 55.519 77.7385 55.2159 77.9162C54.9232 78.0835 54.7768 78.3082 54.7768 78.5905C54.7768 78.9041 54.9336 79.1288 55.2472 79.2647C55.5713 79.3902 56.0678 79.5104 56.7368 79.6254C57.4059 79.7299 57.9547 79.8501 58.3832 79.986C58.8118 80.1219 59.1777 80.3519 59.4808 80.6759C59.7944 81 59.9512 81.4599 59.9512 82.0558C59.9512 82.8398 59.6115 83.467 58.932 83.9374C58.2526 84.4078 57.3275 84.643 56.1567 84.643ZM65.0417 74.3726C64.2159 74.3726 63.803 74.8221 63.803 75.721V76.2228H66.108V77.7908H63.8657V84.5332H61.9057V77.7908H60.5259V76.2228H61.9057V75.6897C61.9057 74.7907 62.1671 74.0851 62.6897 73.5729C63.2124 73.0502 63.9494 72.7889 64.9006 72.7889C65.6533 72.7889 66.2439 72.9405 66.6725 73.2436L66.1237 74.7175C65.7891 74.4875 65.4285 74.3726 65.0417 74.3726ZM68.6795 76.1601H70.6395V84.5332H68.6795V76.1601ZM69.6673 74.7802C69.3119 74.7802 69.014 74.6705 68.7736 74.451C68.5331 74.221 68.4129 73.9387 68.4129 73.6042C68.4129 73.2697 68.5331 72.9927 68.7736 72.7732C69.014 72.5432 69.3119 72.4282 69.6673 72.4282C70.0227 72.4282 70.3207 72.538 70.5611 72.7575C70.8015 72.9666 70.9217 73.2331 70.9217 73.5572C70.9217 73.9022 70.8015 74.1949 70.5611 74.4353C70.3311 74.6653 70.0332 74.7802 69.6673 74.7802ZM81.0868 80.3937C81.0868 80.5296 81.0763 80.723 81.0554 80.9738H74.4855C74.6005 81.5906 74.8984 82.0819 75.3793 82.4478C75.8706 82.8032 76.4769 82.9809 77.1981 82.9809C78.118 82.9809 78.8759 82.6777 79.4717 82.0714L80.5223 83.2788C80.146 83.7283 79.6704 84.068 79.0954 84.298C78.5205 84.528 77.8724 84.643 77.1511 84.643C76.2312 84.643 75.4211 84.46 74.7207 84.0942C74.0203 83.7283 73.4768 83.2213 73.09 82.5732C72.7137 81.9146 72.5255 81.1725 72.5255 80.3466C72.5255 79.5313 72.7084 78.7995 73.0743 78.1514C73.4506 77.4929 73.9681 76.9807 74.6266 76.6148C75.2852 76.2489 76.0274 76.066 76.8532 76.066C77.6685 76.066 78.3951 76.2489 79.0327 76.6148C79.6808 76.9702 80.1826 77.4772 80.538 78.1358C80.9039 78.7839 81.0868 79.5365 81.0868 80.3937ZM76.8532 77.634C76.226 77.634 75.6929 77.8222 75.2538 78.1985C74.8252 78.5643 74.5639 79.0557 74.4698 79.6724H79.2209C79.1372 79.0661 78.8811 78.5748 78.4525 78.1985C78.024 77.8222 77.4908 77.634 76.8532 77.634ZM91.1701 72.8986V84.5332H89.2885V83.4513C88.9645 83.8485 88.562 84.1464 88.0812 84.345C87.6108 84.5437 87.0881 84.643 86.5132 84.643C85.7083 84.643 84.9818 84.4653 84.3337 84.1098C83.696 83.7544 83.1942 83.2527 82.8284 82.6046C82.4625 81.946 82.2796 81.1934 82.2796 80.3466C82.2796 79.4999 82.4625 78.7525 82.8284 78.1044C83.1942 77.4563 83.696 76.9545 84.3337 76.5991C84.9818 76.2437 85.7083 76.066 86.5132 76.066C87.0672 76.066 87.5742 76.1601 88.0341 76.3482C88.4941 76.5364 88.8861 76.8186 89.2101 77.195V72.8986H91.1701ZM86.7484 82.9652C87.2188 82.9652 87.6421 82.8607 88.0185 82.6516C88.3948 82.4321 88.6927 82.1237 88.9122 81.7265C89.1317 81.3293 89.2415 80.8693 89.2415 80.3466C89.2415 79.824 89.1317 79.364 88.9122 78.9668C88.6927 78.5696 88.3948 78.2664 88.0185 78.0574C87.6421 77.8378 87.2188 77.7281 86.7484 77.7281C86.278 77.7281 85.8546 77.8378 85.4783 78.0574C85.102 78.2664 84.8041 78.5696 84.5845 78.9668C84.365 79.364 84.2553 79.824 84.2553 80.3466C84.2553 80.8693 84.365 81.3293 84.5845 81.7265C84.8041 82.1237 85.102 82.4321 85.4783 82.6516C85.8546 82.8607 86.278 82.9652 86.7484 82.9652Z" fill="black"/>
<rect x="22.4711" y="3.76373" width="49.6533" height="49.6533" rx="10.0178" stroke="#ED8989" stroke-width="6.09778"/>
<circle cx="37.2626" cy="22.2714" r="3.71674" fill="#ED8989"/>
<circle cx="56.5899" cy="22.2714" r="3.71674" fill="#ED8989"/>
<path d="M39.118 40.2196C38.2374 41.6548 36.36 42.1043 34.9248 41.2236C33.4896 40.343 33.0401 38.4656 33.9208 37.0304L39.118 40.2196ZM59.1884 37.0304C60.0691 38.4656 59.6196 40.343 58.1844 41.2236C56.7492 42.1043 54.8719 41.6548 53.9912 40.2196L59.1884 37.0304ZM33.9208 37.0304C39.7055 27.6034 53.4037 27.6034 59.1884 37.0304L53.9912 40.2196C50.5861 34.6707 42.5231 34.6707 39.118 40.2196L33.9208 37.0304Z" fill="#ED8989"/>
</svg>
