<svg width="80" height="88" viewBox="0 0 80 88" fill="none" xmlns="http://www.w3.org/2000/svg">
<path d="M5.787 84.4879C4.52331 84.4879 3.53837 84.1255 2.83219 83.4008C2.12601 82.676 1.77292 81.6214 1.77292 80.2369V74.6479H2.80431V80.1951C2.80431 81.3287 3.05984 82.1743 3.57089 82.7318C4.08194 83.2893 4.82065 83.568 5.787 83.568C6.76264 83.568 7.50599 83.2893 8.01704 82.7318C8.5281 82.1743 8.78362 81.3287 8.78362 80.1951V74.6479H9.78714V80.2369C9.78714 81.6214 9.43405 82.676 8.72787 83.4008C8.03098 84.1255 7.05069 84.4879 5.787 84.4879ZM16.4214 77.0173C17.3413 77.0173 18.0707 77.2867 18.6096 77.8257C19.1579 78.3553 19.432 79.1312 19.432 80.1533V84.4043H18.4424V80.2508C18.4424 79.4889 18.2519 78.9082 17.8709 78.5086C17.49 78.1091 16.9464 77.9093 16.2402 77.9093C15.4504 77.9093 14.8232 78.1462 14.3586 78.6201C13.9033 79.0847 13.6757 79.7305 13.6757 80.5575V84.4043H12.6861V77.073H13.6339V78.425C13.9033 77.979 14.275 77.6352 14.7489 77.3936C15.2321 77.1427 15.7896 77.0173 16.4214 77.0173ZM24.0838 84.474C23.4891 84.474 22.9177 84.3904 22.3695 84.2231C21.8305 84.0466 21.4078 83.8282 21.1011 83.568L21.5471 82.7875C21.8538 83.0291 22.2394 83.2289 22.704 83.3868C23.1686 83.5355 23.6517 83.6098 24.1535 83.6098C24.8225 83.6098 25.315 83.5076 25.6309 83.3032C25.9561 83.0895 26.1187 82.7922 26.1187 82.4112C26.1187 82.1417 26.0305 81.9327 25.8539 81.784C25.6774 81.626 25.4544 81.5099 25.1849 81.4356C24.9154 81.3519 24.5577 81.2729 24.1117 81.1986C23.517 81.0871 23.0385 80.9756 22.6761 80.8641C22.3137 80.7433 22.0024 80.5435 21.7423 80.2648C21.4914 79.986 21.366 79.6004 21.366 79.1079C21.366 78.4947 21.6215 77.9929 22.1325 77.6027C22.6436 77.2124 23.3544 77.0173 24.265 77.0173C24.7389 77.0173 25.2128 77.0823 25.6867 77.2124C26.1605 77.3332 26.5508 77.4958 26.8574 77.7002L26.4254 78.4947C25.8214 78.0765 25.1013 77.8675 24.265 77.8675C23.6332 77.8675 23.1546 77.979 22.8294 78.202C22.5135 78.425 22.3555 78.7177 22.3555 79.0801C22.3555 79.3588 22.4438 79.5818 22.6204 79.7491C22.8062 79.9163 23.0338 80.0418 23.3033 80.1254C23.5728 80.1997 23.9444 80.2787 24.4183 80.3623C25.0037 80.4738 25.4729 80.5853 25.826 80.6968C26.1791 80.8084 26.4811 80.9988 26.732 81.2683C26.9829 81.5378 27.1083 81.9094 27.1083 82.3833C27.1083 83.0245 26.8389 83.5355 26.2999 83.9165C25.7703 84.2881 25.0316 84.474 24.0838 84.474ZM31.5023 77.0173C32.4594 77.0173 33.1934 77.2589 33.7045 77.742C34.2155 78.2159 34.4711 78.9221 34.4711 79.8606V84.4043H33.5233V83.2614C33.3003 83.6424 32.9704 83.9397 32.5337 84.1534C32.1063 84.3671 31.5952 84.474 31.0005 84.474C30.1829 84.474 29.5324 84.2789 29.0493 83.8886C28.5661 83.4983 28.3245 82.9826 28.3245 82.3415C28.3245 81.719 28.5475 81.2172 28.9935 80.8362C29.4488 80.4553 30.1689 80.2648 31.1539 80.2648H33.4815V79.8188C33.4815 79.1869 33.3049 78.7084 32.9518 78.3832C32.5987 78.0487 32.083 77.8814 31.4047 77.8814C30.9402 77.8814 30.4941 77.9604 30.0667 78.1184C29.6393 78.267 29.2723 78.4761 28.9656 78.7456L28.5196 78.0069C28.8913 77.6909 29.3373 77.4493 29.8577 77.2821C30.378 77.1055 30.9262 77.0173 31.5023 77.0173ZM31.1539 83.6935C31.7114 83.6935 32.1899 83.568 32.5895 83.3172C32.989 83.057 33.2863 82.6853 33.4815 82.2021V81.0035H31.1817C29.9273 81.0035 29.3001 81.4402 29.3001 82.3136C29.3001 82.7411 29.4627 83.0802 29.788 83.3311C30.1132 83.5727 30.5685 83.6935 31.1539 83.6935ZM41.0196 83.9583C40.8338 84.1255 40.6015 84.2556 40.3227 84.3485C40.0533 84.4322 39.7699 84.474 39.4725 84.474C38.7849 84.474 38.2553 84.2881 37.8836 83.9165C37.512 83.5448 37.3261 83.0198 37.3261 82.3415V77.9093H36.016V77.073H37.3261V75.4702H38.3157V77.073H40.5457V77.9093H38.3157V82.2858C38.3157 82.7225 38.4226 83.057 38.6363 83.2893C38.8593 83.5123 39.1752 83.6238 39.584 83.6238C39.7885 83.6238 39.9836 83.5913 40.1694 83.5262C40.3646 83.4612 40.5318 83.3683 40.6712 83.2475L41.0196 83.9583ZM42.8211 77.073H43.8107V84.4043H42.8211V77.073ZM43.3228 75.4702C43.1184 75.4702 42.9465 75.4005 42.8072 75.2611C42.6678 75.1217 42.5981 74.9545 42.5981 74.7594C42.5981 74.5735 42.6678 74.4109 42.8072 74.2715C42.9465 74.1322 43.1184 74.0625 43.3228 74.0625C43.5273 74.0625 43.6992 74.1322 43.8385 74.2715C43.9779 74.4016 44.0476 74.5596 44.0476 74.7454C44.0476 74.9498 43.9779 75.1217 43.8385 75.2611C43.6992 75.4005 43.5273 75.4702 43.3228 75.4702ZM48.5294 84.474C47.9347 84.474 47.3632 84.3904 46.815 84.2231C46.2761 84.0466 45.8533 83.8282 45.5467 83.568L45.9927 82.7875C46.2993 83.0291 46.6849 83.2289 47.1495 83.3868C47.6141 83.5355 48.0973 83.6098 48.5991 83.6098C49.2681 83.6098 49.7605 83.5076 50.0765 83.3032C50.4017 83.0895 50.5643 82.7922 50.5643 82.4112C50.5643 82.1417 50.476 81.9327 50.2995 81.784C50.1229 81.626 49.8999 81.5099 49.6305 81.4356C49.361 81.3519 49.0033 81.2729 48.5572 81.1986C47.9626 81.0871 47.484 80.9756 47.1217 80.8641C46.7593 80.7433 46.448 80.5435 46.1878 80.2648C45.9369 79.986 45.8115 79.6004 45.8115 79.1079C45.8115 78.4947 46.067 77.9929 46.5781 77.6027C47.0891 77.2124 47.8 77.0173 48.7106 77.0173C49.1844 77.0173 49.6583 77.0823 50.1322 77.2124C50.6061 77.3332 50.9964 77.4958 51.303 77.7002L50.8709 78.4947C50.2669 78.0765 49.5468 77.8675 48.7106 77.8675C48.0787 77.8675 47.6002 77.979 47.275 78.202C46.959 78.425 46.8011 78.7177 46.8011 79.0801C46.8011 79.3588 46.8894 79.5818 47.0659 79.7491C47.2517 79.9163 47.4794 80.0418 47.7489 80.1254C48.0183 80.1997 48.39 80.2787 48.8639 80.3623C49.4493 80.4738 49.9185 80.5853 50.2716 80.6968C50.6247 80.8084 50.9267 80.9988 51.1775 81.2683C51.4284 81.5378 51.5539 81.9094 51.5539 82.3833C51.5539 83.0245 51.2844 83.5355 50.7455 83.9165C50.2158 84.2881 49.4771 84.474 48.5294 84.474ZM55.8085 74.829C55.3811 74.829 55.0558 74.9452 54.8328 75.1775C54.6191 75.4098 54.5123 75.7536 54.5123 76.2089V77.073H56.7702V77.9093H54.5401V84.4043H53.5506V77.9093H52.2404V77.073H53.5506V76.1671C53.5506 75.4981 53.741 74.9684 54.122 74.5782C54.5123 74.1879 55.0605 73.9928 55.7667 73.9928C56.0454 73.9928 56.3149 74.0346 56.5751 74.1182C56.8352 74.1926 57.0536 74.3041 57.2301 74.4527L56.8956 75.1914C56.6076 74.9498 56.2452 74.829 55.8085 74.829ZM59.2232 77.073H60.2128V84.4043H59.2232V77.073ZM59.725 75.4702C59.5206 75.4702 59.3487 75.4005 59.2093 75.2611C59.0699 75.1217 59.0002 74.9545 59.0002 74.7594C59.0002 74.5735 59.0699 74.4109 59.2093 74.2715C59.3487 74.1322 59.5206 74.0625 59.725 74.0625C59.9294 74.0625 60.1013 74.1322 60.2407 74.2715C60.3801 74.4016 60.4498 74.5596 60.4498 74.7454C60.4498 74.9498 60.3801 75.1217 60.2407 75.2611C60.1013 75.4005 59.9294 75.4702 59.725 75.4702ZM69.3626 81.0453H63.23C63.2858 81.8072 63.5785 82.4251 64.1081 82.899C64.6377 83.3636 65.3068 83.5959 66.1151 83.5959C66.5704 83.5959 66.9886 83.5169 67.3695 83.359C67.7505 83.1917 68.0804 82.9501 68.3591 82.6342L68.9166 83.2753C68.5914 83.6656 68.1826 83.9629 67.6901 84.1674C67.2069 84.3718 66.6727 84.474 66.0873 84.474C65.3346 84.474 64.6656 84.316 64.0802 84.0001C63.5041 83.6749 63.0535 83.2289 62.7283 82.6621C62.403 82.0953 62.2404 81.4541 62.2404 80.7387C62.2404 80.0232 62.3938 79.3821 62.7004 78.8152C63.0163 78.2484 63.4437 77.8071 63.9827 77.4912C64.5309 77.1752 65.1441 77.0173 65.8225 77.0173C66.5008 77.0173 67.1094 77.1752 67.6483 77.4912C68.1872 77.8071 68.61 78.2484 68.9166 78.8152C69.2233 79.3728 69.3766 80.0139 69.3766 80.7387L69.3626 81.0453ZM65.8225 77.8675C65.1163 77.8675 64.5216 78.0951 64.0384 78.5504C63.5645 78.9964 63.2951 79.5818 63.23 80.3066H68.4288C68.3638 79.5818 68.0897 78.9964 67.6065 78.5504C67.1326 78.0951 66.5379 77.8675 65.8225 77.8675ZM78.0809 74.0625V84.4043H77.1332V82.9548C76.8358 83.4472 76.4409 83.8236 75.9485 84.0837C75.4653 84.3439 74.9171 84.474 74.3038 84.474C73.6162 84.474 72.9937 84.316 72.4361 84.0001C71.8786 83.6842 71.4419 83.2428 71.126 82.676C70.8101 82.1092 70.6521 81.4634 70.6521 80.7387C70.6521 80.0139 70.8101 79.3681 71.126 78.8013C71.4419 78.2345 71.8786 77.7978 72.4361 77.4912C72.9937 77.1752 73.6162 77.0173 74.3038 77.0173C74.8985 77.0173 75.4328 77.1427 75.9067 77.3936C76.3898 77.6352 76.7847 77.9929 77.0914 78.4668V74.0625H78.0809ZM74.3874 83.5959C74.8985 83.5959 75.3584 83.4798 75.7673 83.2475C76.1854 83.0059 76.5106 82.6667 76.7429 82.23C76.9845 81.7933 77.1053 81.2962 77.1053 80.7387C77.1053 80.1812 76.9845 79.684 76.7429 79.2473C76.5106 78.8106 76.1854 78.4761 75.7673 78.2438C75.3584 78.0022 74.8985 77.8814 74.3874 77.8814C73.8671 77.8814 73.3979 78.0022 72.9797 78.2438C72.5709 78.4761 72.2457 78.8106 72.0041 79.2473C71.7718 79.684 71.6556 80.1812 71.6556 80.7387C71.6556 81.2962 71.7718 81.7933 72.0041 82.23C72.2457 82.6667 72.5709 83.0059 72.9797 83.2475C73.3979 83.4798 73.8671 83.5959 74.3874 83.5959Z" fill="black"/>
<rect x="15.4713" y="3.76373" width="49.6533" height="49.6533" rx="10.0178" stroke="#858789" stroke-width="6.09778"/>
<circle cx="30.2626" cy="22.2714" r="3.71674" fill="#858789"/>
<circle cx="49.5898" cy="22.2714" r="3.71674" fill="#858789"/>
<path d="M32.1179 40.2196C31.2372 41.6548 29.3599 42.1043 27.9247 41.2236C26.4895 40.343 26.04 38.4656 26.9206 37.0304L32.1179 40.2196ZM52.1883 37.0304C53.069 38.4656 52.6195 40.343 51.1843 41.2236C49.7491 42.1043 47.8717 41.6548 46.9911 40.2196L52.1883 37.0304ZM26.9206 37.0304C32.7054 27.6034 46.4036 27.6034 52.1883 37.0304L46.9911 40.2196C43.586 34.6707 35.523 34.6707 32.1179 40.2196L26.9206 37.0304Z" fill="#858789"/>
</svg>
