<svg width="14" height="20" viewBox="0 0 14 20" fill="none" xmlns="http://www.w3.org/2000/svg">
<path d="M12.937 16.8287C13.5839 17.3462 13.6888 18.2901 13.1713 18.937C12.6538 19.5839 11.7099 19.6888 11.063 19.1713L12.937 16.8287ZM2 10L1.06296 11.1713C0.707134 10.8866 0.5 10.4557 0.5 10C0.5 9.54432 0.707134 9.11336 1.06296 8.8287L2 10ZM11.063 0.828697C11.7099 0.311182 12.6538 0.416065 13.1713 1.06296C13.6888 1.70985 13.5839 2.65379 12.937 3.1713L11.063 0.828697ZM11.063 19.1713L1.06296 11.1713L2.93704 8.8287L12.937 16.8287L11.063 19.1713ZM1.06296 8.8287L11.063 0.828697L12.937 3.1713L2.93704 11.1713L1.06296 8.8287Z" fill="black"/>
</svg>
