<svg width="14" height="20" viewBox="0 0 14 20" fill="none" xmlns="http://www.w3.org/2000/svg">
<path d="M1.06296 16.8287C0.416065 17.3462 0.311182 18.2901 0.828697 18.937C1.34621 19.5839 2.29015 19.6888 2.93704 19.1713L1.06296 16.8287ZM12 10L12.937 11.1713C13.2929 10.8866 13.5 10.4557 13.5 10C13.5 9.54432 13.2929 9.11336 12.937 8.8287L12 10ZM2.93704 0.828697C2.29015 0.311182 1.34621 0.416065 0.828697 1.06296C0.311182 1.70985 0.416065 2.65379 1.06296 3.1713L2.93704 0.828697ZM2.93704 19.1713L12.937 11.1713L11.063 8.8287L1.06296 16.8287L2.93704 19.1713ZM12.937 8.8287L2.93704 0.828697L1.06296 3.1713L11.063 11.1713L12.937 8.8287Z" fill="black"/>
</svg>
