<svg width="12" height="14" viewBox="0 0 12 14" fill="none" xmlns="http://www.w3.org/2000/svg">
<path d="M5.86085 13.252C4.84085 13.252 3.85085 13.126 2.89085 12.874C1.93085 12.622 1.15085 12.286 0.550852 11.866L1.72085 9.238C2.28485 9.61 2.93885 9.91 3.68285 10.138C4.42685 10.366 5.15885 10.48 5.87885 10.48C7.24685 10.48 7.93085 10.138 7.93085 9.454C7.93085 9.094 7.73285 8.83 7.33685 8.662C6.95285 8.482 6.32885 8.296 5.46485 8.104C4.51685 7.9 3.72485 7.684 3.08885 7.456C2.45285 7.216 1.90685 6.838 1.45085 6.322C0.994852 5.806 0.766852 5.11 0.766852 4.234C0.766852 3.466 0.976852 2.776 1.39685 2.164C1.81685 1.54 2.44085 1.048 3.26885 0.688C4.10885 0.327999 5.13485 0.147999 6.34685 0.147999C7.17485 0.147999 7.99085 0.243999 8.79485 0.436C9.59885 0.616 10.3069 0.885999 10.9189 1.246L9.82085 3.892C8.62085 3.244 7.45685 2.92 6.32885 2.92C5.62085 2.92 5.10485 3.028 4.78085 3.244C4.45685 3.448 4.29485 3.718 4.29485 4.054C4.29485 4.39 4.48685 4.642 4.87085 4.81C5.25485 4.978 5.87285 5.152 6.72485 5.332C7.68485 5.536 8.47685 5.758 9.10085 5.998C9.73685 6.226 10.2829 6.598 10.7389 7.114C11.2069 7.618 11.4409 8.308 11.4409 9.184C11.4409 9.94 11.2309 10.624 10.8109 11.236C10.3909 11.848 9.76085 12.34 8.92085 12.712C8.08085 13.072 7.06085 13.252 5.86085 13.252Z" fill="black"/>
</svg>
