<svg width="351" height="338" viewBox="0 0 351 338" fill="none" xmlns="http://www.w3.org/2000/svg">
<g id="Calendar">
<rect id="Rectangle 25" x="1.5" y="1.5" width="348" height="335" rx="6.5" fill="white" stroke="black" stroke-width="3"/>
<path id="July" d="M160.477 32.18C159.673 32.18 158.929 32.024 158.245 31.712C157.573 31.388 157.021 30.938 156.589 30.362L157.921 28.76C158.617 29.72 159.451 30.2 160.423 30.2C161.731 30.2 162.385 29.426 162.385 27.878V21.362H157.903V19.4H164.725V27.752C164.725 29.228 164.365 30.338 163.645 31.082C162.925 31.814 161.869 32.18 160.477 32.18ZM177.097 22.388V32H174.955V30.776C174.595 31.208 174.145 31.544 173.605 31.784C173.065 32.012 172.483 32.126 171.859 32.126C170.575 32.126 169.561 31.772 168.817 31.064C168.085 30.344 167.719 29.282 167.719 27.878V22.388H169.969V27.572C169.969 28.436 170.161 29.084 170.545 29.516C170.941 29.936 171.499 30.146 172.219 30.146C173.023 30.146 173.659 29.9 174.127 29.408C174.607 28.904 174.847 28.184 174.847 27.248V22.388H177.097ZM180.043 18.644H182.293V32H180.043V18.644ZM194.247 22.388L189.747 32.774C189.327 33.818 188.817 34.55 188.217 34.97C187.617 35.402 186.891 35.618 186.039 35.618C185.559 35.618 185.085 35.54 184.617 35.384C184.149 35.228 183.765 35.012 183.465 34.736L184.365 33.08C184.581 33.284 184.833 33.446 185.121 33.566C185.421 33.686 185.721 33.746 186.021 33.746C186.417 33.746 186.741 33.644 186.993 33.44C187.257 33.236 187.497 32.894 187.713 32.414L187.875 32.036L183.681 22.388H186.021L189.045 29.498L192.087 22.388H194.247Z" fill="black"/>
<path id="Vector 5" d="M315.063 31.8287C314.416 32.3462 314.311 33.2901 314.829 33.937C315.346 34.5839 316.29 34.6888 316.937 34.1713L315.063 31.8287ZM326 25L326.937 26.1713C327.293 25.8866 327.5 25.4557 327.5 25C327.5 24.5443 327.293 24.1134 326.937 23.8287L326 25ZM316.937 15.8287C316.29 15.3112 315.346 15.4161 314.829 16.063C314.311 16.7099 314.416 17.6538 315.063 18.1713L316.937 15.8287ZM316.937 34.1713L326.937 26.1713L325.063 23.8287L315.063 31.8287L316.937 34.1713ZM326.937 23.8287L316.937 15.8287L315.063 18.1713L325.063 26.1713L326.937 23.8287Z" fill="black"/>
<path id="Vector 6" d="M36.937 31.8287C37.5839 32.3462 37.6888 33.2901 37.1713 33.937C36.6538 34.5839 35.7099 34.6888 35.063 34.1713L36.937 31.8287ZM26 25L25.063 26.1713C24.7071 25.8866 24.5 25.4557 24.5 25C24.5 24.5443 24.7071 24.1134 25.063 23.8287L26 25ZM35.063 15.8287C35.7099 15.3112 36.6538 15.4161 37.1713 16.063C37.6888 16.7099 37.5839 17.6538 36.937 18.1713L35.063 15.8287ZM35.063 34.1713L25.063 26.1713L26.937 23.8287L36.937 31.8287L35.063 34.1713ZM25.063 23.8287L35.063 15.8287L36.937 18.1713L26.937 26.1713L25.063 23.8287Z" fill="black"/>
<g id="Days of the week">
<path id="S" d="M31.8609 72.252C30.8409 72.252 29.8509 72.126 28.8909 71.874C27.9309 71.622 27.1509 71.286 26.5509 70.866L27.7209 68.238C28.2849 68.61 28.9389 68.91 29.6829 69.138C30.4269 69.366 31.1589 69.48 31.8789 69.48C33.2469 69.48 33.9309 69.138 33.9309 68.454C33.9309 68.094 33.7329 67.83 33.3369 67.662C32.9529 67.482 32.3289 67.296 31.4649 67.104C30.5169 66.9 29.7249 66.684 29.0889 66.456C28.4529 66.216 27.9069 65.838 27.4509 65.322C26.9949 64.806 26.7669 64.11 26.7669 63.234C26.7669 62.466 26.9769 61.776 27.3969 61.164C27.8169 60.54 28.4409 60.048 29.2689 59.688C30.1089 59.328 31.1349 59.148 32.3469 59.148C33.1749 59.148 33.9909 59.244 34.7949 59.436C35.5989 59.616 36.3069 59.886 36.9189 60.246L35.8209 62.892C34.6209 62.244 33.4569 61.92 32.3289 61.92C31.6209 61.92 31.1049 62.028 30.7809 62.244C30.4569 62.448 30.2949 62.718 30.2949 63.054C30.2949 63.39 30.4869 63.642 30.8709 63.81C31.2549 63.978 31.8729 64.152 32.7249 64.332C33.6849 64.536 34.4769 64.758 35.1009 64.998C35.7369 65.226 36.2829 65.598 36.7389 66.114C37.2069 66.618 37.4409 67.308 37.4409 68.184C37.4409 68.94 37.2309 69.624 36.8109 70.236C36.3909 70.848 35.7609 71.34 34.9209 71.712C34.0809 72.072 33.0609 72.252 31.8609 72.252Z" fill="black"/>
<path id="M" d="M84.0491 72L84.0131 65.322L80.7731 70.758H79.1891L75.9671 65.502V72H72.6731V59.4H75.6071L80.0351 66.672L84.3551 59.4H87.2891L87.3251 72H84.0491Z" fill="black"/>
<path id="T" d="M126.229 62.226H122.359V59.4H133.645V62.226H129.793V72H126.229V62.226Z" fill="black"/>
<path id="W" d="M186.372 59.4L182.286 72H178.47L176.058 64.332L173.538 72H169.722L165.636 59.4H169.308L171.846 67.446L174.51 59.4H177.786L180.324 67.518L182.97 59.4H186.372Z" fill="black"/>
<path id="T_2" d="M222.229 62.226H218.359V59.4H229.645V62.226H225.793V72H222.229V62.226Z" fill="black"/>
<path id="F" d="M271.05 62.154V64.926H276.612V67.68H271.05V72H267.486V59.4H277.368V62.154H271.05Z" fill="black"/>
<path id="S_2" d="M319.861 72.252C318.841 72.252 317.851 72.126 316.891 71.874C315.931 71.622 315.151 71.286 314.551 70.866L315.721 68.238C316.285 68.61 316.939 68.91 317.683 69.138C318.427 69.366 319.159 69.48 319.879 69.48C321.247 69.48 321.931 69.138 321.931 68.454C321.931 68.094 321.733 67.83 321.337 67.662C320.953 67.482 320.329 67.296 319.465 67.104C318.517 66.9 317.725 66.684 317.089 66.456C316.453 66.216 315.907 65.838 315.451 65.322C314.995 64.806 314.767 64.11 314.767 63.234C314.767 62.466 314.977 61.776 315.397 61.164C315.817 60.54 316.441 60.048 317.269 59.688C318.109 59.328 319.135 59.148 320.347 59.148C321.175 59.148 321.991 59.244 322.795 59.436C323.599 59.616 324.307 59.886 324.919 60.246L323.821 62.892C322.621 62.244 321.457 61.92 320.329 61.92C319.621 61.92 319.105 62.028 318.781 62.244C318.457 62.448 318.295 62.718 318.295 63.054C318.295 63.39 318.487 63.642 318.871 63.81C319.255 63.978 319.873 64.152 320.725 64.332C321.685 64.536 322.477 64.758 323.101 64.998C323.737 65.226 324.283 65.598 324.739 66.114C325.207 66.618 325.441 67.308 325.441 68.184C325.441 68.94 325.231 69.624 324.811 70.236C324.391 70.848 323.761 71.34 322.921 71.712C322.081 72.072 321.061 72.252 319.861 72.252Z" fill="black"/>
</g>
<g id="Week">
<rect id="Rectangle 27" x="11" y="85.5" width="42" height="42" rx="5" fill="#D9D9D9"/>
<rect id="Rectangle 28" x="59.5" y="85.5" width="42" height="42" rx="5" fill="#D9D9D9"/>
<rect id="Rectangle 29" x="107" y="85" width="42" height="42" rx="5" fill="#D9D9D9"/>
<rect id="Rectangle 30" x="155" y="85" width="42" height="42" rx="5" fill="#D9D9D9"/>
<rect id="Rectangle 31" x="203" y="85" width="42" height="42" rx="5" fill="#D9D9D9"/>
<rect id="Rectangle 32" x="251.5" y="85.5" width="42" height="42" rx="5" fill="#D9D9D9"/>
<rect id="Rectangle 33" x="299" y="85" width="42" height="42" rx="5" fill="#D9D9D9"/>
</g>
<g id="Week_2">
<rect id="Rectangle 27_2" x="11" y="135" width="42" height="42" rx="5" fill="#D9D9D9"/>
<rect id="Rectangle 28_2" x="59" y="135" width="42" height="42" rx="5" fill="#D9D9D9"/>
<rect id="Rectangle 29_2" x="107" y="135" width="42" height="42" rx="5" fill="#D9D9D9"/>
<rect id="Rectangle 30_2" x="155" y="135" width="42" height="42" rx="5" fill="#D9D9D9"/>
<rect id="Rectangle 31_2" x="203" y="135" width="42" height="42" rx="5" fill="#D9D9D9"/>
<rect id="Rectangle 32_2" x="251" y="135" width="42" height="42" rx="5" fill="#D9D9D9"/>
<rect id="Rectangle 33_2" x="299" y="135" width="42" height="42" rx="5" fill="#D9D9D9"/>
</g>
<g id="Week_3">
<rect id="Rectangle 27_3" x="11" y="185" width="42" height="42" rx="5" fill="#D9D9D9"/>
<rect id="Rectangle 28_3" x="59" y="185" width="42" height="42" rx="5" fill="#D9D9D9"/>
<rect id="Rectangle 29_3" x="107" y="185" width="42" height="42" rx="5" fill="#D9D9D9"/>
<rect id="Rectangle 30_3" x="155" y="185" width="42" height="42" rx="5" fill="#D9D9D9"/>
<rect id="Rectangle 31_3" x="203" y="185" width="42" height="42" rx="5" fill="#D9D9D9"/>
<rect id="Rectangle 32_3" x="251" y="185" width="42" height="42" rx="5" fill="#D9D9D9"/>
<rect id="Rectangle 33_3" x="299" y="185" width="42" height="42" rx="5" fill="#D9D9D9"/>
</g>
<g id="Week_4">
<rect id="Rectangle 27_4" x="11" y="235" width="42" height="42" rx="5" fill="#D9D9D9"/>
<rect id="Rectangle 28_4" x="59" y="235" width="42" height="42" rx="5" fill="#D9D9D9"/>
<rect id="Rectangle 29_4" x="107" y="235" width="42" height="42" rx="5" fill="#D9D9D9"/>
<rect id="Rectangle 30_4" x="155" y="235" width="42" height="42" rx="5" fill="#D9D9D9"/>
<rect id="Rectangle 31_4" x="203" y="235" width="42" height="42" rx="5" fill="#D9D9D9"/>
<rect id="Rectangle 32_4" x="251" y="235" width="42" height="42" rx="5" fill="#D9D9D9"/>
<rect id="Rectangle 33_4" x="299" y="235" width="42" height="42" rx="5" fill="#D9D9D9"/>
</g>
<g id="Week_5">
<rect id="Rectangle 27_5" x="11" y="285" width="42" height="42" rx="5" fill="#D9D9D9"/>
<rect id="Rectangle 28_5" x="59" y="285" width="42" height="42" rx="5" fill="#D9D9D9"/>
<rect id="Rectangle 29_5" x="107" y="285" width="42" height="42" rx="5" fill="#D9D9D9"/>
<rect id="Rectangle 30_5" x="155" y="285" width="42" height="42" rx="5" fill="#D9D9D9"/>
<rect id="Rectangle 31_5" x="203" y="285" width="42" height="42" rx="5" fill="#D9D9D9"/>
<rect id="Rectangle 32_5" x="251" y="285" width="42" height="42" rx="5" fill="#D9D9D9"/>
<rect id="Rectangle 33_5" x="299" y="285" width="42" height="42" rx="5" fill="#D9D9D9"/>
</g>
</g>
</svg>
