

<svg id="eba7ha49d1l1" xmlns="http://www.w3.org/2000/svg" xmlns:xlink="http://www.w3.org/1999/xlink" viewBox="0 0 892 606" shape-rendering="geometricPrecision" text-rendering="geometricPrecision">
<style>
        #eba7ha49d1l68_to {
            animation: eba7ha49d1l68_to__to 3000ms linear infinite normal forwards
  }
  
  @keyframes eba7ha49d1l68_to__to {
      0% {
          transform: translate(0px, 0px);
      animation-timing-function: cubic-bezier(0.420000, 0, 1, 1)
    }
    16.666667% {
        transform: translate(0px, -50px)
    }
    33.333333% {
        transform: translate(0px, -100px)
    }
    100% {
        transform: translate(0px, -100px)
    }
  }
  
  #eba7ha49d1l68 {
      animation: eba7ha49d1l68_c_o 3000ms linear infinite normal forwards
  }
  
  @keyframes eba7ha49d1l68_c_o {
    0% {
      opacity: 0;
      animation-timing-function: cubic-bezier(0.420000, 0, 1, 1)
    }
    23.333333% {
        opacity: 1
    }
    33.333333% {
      opacity: 0
    }
    100% {
        opacity: 0
    }
  }
  
  #eba7ha49d1l69_to {
    animation: eba7ha49d1l69_to__to 3000ms linear infinite normal forwards
  }
  
  @keyframes eba7ha49d1l69_to__to {
      0% {
          transform: translate(0px, 0px)
    }
    40% {
        transform: translate(0px, 0px);
      animation-timing-function: cubic-bezier(0.420000, 0, 1, 1)
    }
    56.666667% {
        transform: translate(0px, -50.003000px)
    }
    73.333333% {
        transform: translate(0px, -100.003000px)
    }
    100% {
        transform: translate(0px, -100.003000px)
    }
  }
  
  #eba7ha49d1l69 {
      animation: eba7ha49d1l69_c_o 3000ms linear infinite normal forwards
  }
  
  @keyframes eba7ha49d1l69_c_o {
      0% {
          opacity: 0
    }
    40% {
      opacity: 0;
      animation-timing-function: cubic-bezier(0.420000, 0, 1, 1)
    }
    63.333333% {
        opacity: 1
    }
    73.333333% {
      opacity: 0
    }
    100% {
        opacity: 0
    }
  }
        </style>

    <rect id="eba7ha49d1l2" width="892" height="606" rx="0" ry="0" fill="rgb(255,255,255)" stroke="none" stroke-width="1"/>
    <path id="eba7ha49d1l3" d="M558.229000,512.389000L558.229000,524.001000L662.504000,524.001000L662.504000,512.389000L558.229000,512.389000Z" fill="rgb(161,88,66)" stroke="none" stroke-width="1"/>
    <path id="eba7ha49d1l4" d="M679.676000,565.971000L652.556000,404.582000L568.176000,404.582000L541.056000,565.971000C540.934000,566.736000,540.979000,567.518000,541.187000,568.263000C541.396000,569.009000,541.764000,569.700000,542.266000,570.290000C542.768000,570.879000,543.392000,571.353000,544.095000,571.678000C544.798000,572.004000,545.563000,572.173000,546.337000,572.174000C547.559000,572.176000,548.746000,571.760000,549.698000,570.993000C550.650000,570.227000,551.311000,569.157000,551.569000,567.963000L587.079000,404.548000L633.646000,404.548000L669.156000,567.963000C669.417000,569.157000,670.079000,570.226000,671.033000,570.992000C671.986000,571.758000,673.172000,572.175000,674.395000,572.174000C675.170000,572.173000,675.935000,572.004000,676.637000,571.678000C677.340000,571.353000,677.964000,570.879000,678.466000,570.290000C678.968000,569.700000,679.336000,569.009000,679.545000,568.263000C679.754000,567.518000,679.798000,566.736000,679.676000,565.971000Z" fill="rgb(161,88,66)" stroke="none" stroke-width="1"/>
    <path id="eba7ha49d1l5" d="M644.614000,512.389000L644.614000,524.001000L748.889000,524.001000L748.889000,512.389000L644.614000,512.389000Z" fill="rgb(202,115,88)" stroke="none" stroke-width="1"/>
    <path id="eba7ha49d1l6" d="M766.062000,565.971000L738.942000,404.582000L654.562000,404.582000L627.435000,565.971000C627.314000,566.736000,627.359000,567.518000,627.569000,568.264000C627.779000,569.009000,628.148000,569.701000,628.650000,570.290000C629.152000,570.879000,629.777000,571.353000,630.480000,571.678000C631.183000,572.003000,631.948000,572.173000,632.723000,572.174000C633.945000,572.176000,635.131000,571.760000,636.084000,570.993000C637.036000,570.227000,637.696000,569.157000,637.955000,567.963000L673.465000,404.548000L720.004000,404.548000L755.514000,567.963000C755.775000,569.157000,756.438000,570.226000,757.391000,570.992000C758.344000,571.758000,759.530000,572.175000,760.753000,572.174000C761.530000,572.177000,762.298000,572.011000,763.004000,571.687000C763.711000,571.364000,764.338000,570.890000,764.843000,570.300000C765.348000,569.710000,765.718000,569.017000,765.929000,568.270000C766.139000,567.522000,766.185000,566.738000,766.062000,565.971000Z" fill="rgb(202,115,88)" stroke="none" stroke-width="1"/>
    <path id="eba7ha49d1l7" d="M680.834000,378.566000L691.175000,338.126000L622.616000,338.126000C609.178000,338.125000,596.121000,342.595000,585.503000,350.830000C574.885000,359.065000,567.310000,370.598000,563.971000,383.611000L556.967000,411.040000L639.003000,411.040000C648.593000,411.040000,657.910000,407.848000,665.484000,401.968000C673.059000,396.088000,678.459000,387.855000,680.834000,378.566000Z" fill="rgb(255,183,213)" stroke="none" stroke-width="1"/>
    <path id="eba7ha49d1l8" d="M720.577000,411.040000L556.967000,411.040000L559.725000,400.061000L631.544000,400.061000L658.933000,292.979000C662.664000,278.392000,671.146000,265.462000,683.042000,256.228000C694.937000,246.993000,709.569000,241.981000,724.630000,241.980000C761.484000,241.980000,788.452000,276.707000,779.325000,312.399000L762.401000,378.559000C760.028000,387.848000,754.629000,396.082000,747.056000,401.963000C739.482000,407.845000,730.166000,411.038000,720.577000,411.040000Z" fill="rgb(244,205,156)" stroke="none" stroke-width="1"/>
    <path id="eba7ha49d1l9" d="M561.421000,398.993000L648.461000,398.993000" fill="none" stroke="rgb(161,88,66)" stroke-width="4" stroke-linecap="round" stroke-linejoin="round"/>
    <path id="eba7ha49d1l10" d="M631.861000,398.593000L647.110000,338.974000" fill="none" stroke="rgb(161,88,66)" stroke-width="4" stroke-linecap="round" stroke-linejoin="round"/>
    <path id="eba7ha49d1l11" d="M511.868000,103.196000C507.298000,91.569800,499.011000,78.131000,494.510000,81.983500C493.421000,82.920700,492.766000,84.512700,492.442000,86.559500C491.566000,92.327900,493.407000,101.721000,495.778000,110.267000L488.664000,113.375000C488.617000,113.590000,488.558000,113.802000,488.485000,114.009000C487.182000,117.855000,482.901000,118.247000,482.901000,118.247000C482.901000,118.247000,487.926000,121.362000,485.693000,126.469000C483.459000,131.576000,476.200000,129.915000,476.200000,129.915000C480.874000,134.905000,480.233000,138.433000,477.248000,140.825000C476.638000,141.263000,475.926000,141.538000,475.180000,141.624000C475.380000,147.909000,475.779000,155.104000,476.510000,162.657000L524.298000,147.496000C520.354000,131.162000,515.453000,112.314000,511.868000,103.196000Z" fill="rgb(161,88,66)" stroke="none" stroke-width="1"/>
    <path id="eba7ha49d1l12" d="M494.737000,111.638000C495.192000,113.079000,495.606000,114.305000,495.792000,114.767000C495.792000,114.767000,491.939000,123.768000,493.862000,133.409000" fill="none" stroke="rgb(48,36,42)" stroke-width="4" stroke-linecap="round" stroke-linejoin="round"/>
    <path id="eba7ha49d1l13" d="M477.248000,140.852000C480.233000,138.461000,480.874000,134.932000,476.200000,129.943000C476.200000,129.943000,483.459000,131.583000,485.693000,126.497000C487.926000,121.411000,482.901000,118.275000,482.901000,118.275000C482.901000,118.275000,488.237000,117.806000,488.809000,112.589000" fill="none" stroke="rgb(48,36,42)" stroke-width="8" stroke-linecap="round" stroke-linejoin="round"/>
    <path id="eba7ha49d1l14" d="M471.071000,90.735800C473.870000,91.576600,486.354000,91.714400,488.099000,99.819000C488.926000,103.637000,483.818000,105.153000,483.818000,105.153000C483.818000,105.153000,489.333000,107.848000,488.809000,112.569000C488.777000,112.842000,488.728000,113.114000,488.664000,113.382000L495.792000,110.267000C493.421000,101.721000,491.580000,92.348500,492.455000,86.559500L483.997000,67.952000L474.938000,48.014400L455.636000,56.787500L464.694000,76.725100L467.672000,83.272200L471.071000,90.735800Z" fill="rgb(234,165,139)" stroke="none" stroke-width="1"/>
    <path id="eba7ha49d1l15" d="M483.818000,105.153000C483.818000,105.153000,488.926000,103.637000,488.099000,99.819100C486.355000,91.714500,473.870000,91.549100,471.071000,90.735900L467.693000,83.272200C467.548000,83.272200,461.316000,84.250800,458.800000,88.144600C454.857000,94.250600,459.662000,98.626900,459.662000,98.626900C459.662000,98.626900,449.942000,101.949000,454.885000,111.115000C454.885000,111.115000,449.307000,118.089000,456.263000,123.664000C456.263000,123.664000,450.996000,128.364000,457.870000,134.691000C463.557000,139.942000,471.140000,142.320000,475.200000,141.631000C475.947000,141.545000,476.659000,141.270000,477.269000,140.831000C480.254000,138.440000,480.895000,134.911000,476.221000,129.922000C476.221000,129.922000,483.480000,131.562000,485.713000,126.476000C487.947000,121.390000,482.921000,118.254000,482.921000,118.254000C482.921000,118.254000,487.202000,117.861000,488.505000,114.016000C488.578000,113.809000,488.638000,113.597000,488.685000,113.382000C488.749000,113.114000,488.797000,112.842000,488.829000,112.569000C489.333000,107.862000,483.818000,105.153000,483.818000,105.153000Z" fill="rgb(161,88,66)" stroke="none" stroke-width="1"/>
    <path id="eba7ha49d1l16" d="M484.155000,105.064000C476.938000,104.375000,466.728000,102.645000,459.062000,98.537400" fill="none" stroke="rgb(48,36,42)" stroke-width="4" stroke-linecap="round" stroke-linejoin="round"/>
    <path id="eba7ha49d1l17" d="M484.927000,119.715000C477.841000,119.164000,465.997000,117.048000,455.429000,112.135000" fill="none" stroke="rgb(48,36,42)" stroke-width="4" stroke-linecap="round" stroke-linejoin="round"/>
    <path id="eba7ha49d1l18" d="M479.481000,131.858000C475.097000,130.900000,463.715000,128.213000,456.167000,124.746000" fill="none" stroke="rgb(48,36,42)" stroke-width="4" stroke-linecap="round" stroke-linejoin="round"/>
    <path id="eba7ha49d1l19" d="M714.393000,211.822000C714.409000,210.850000,714.377000,209.877000,714.296000,208.907000L713.207000,202.787000C708.837000,187.357000,693.622000,175.634000,688.031000,157.185000L668.956000,157.371000L668.956000,157.013000L644.277000,168.116000L634.694000,148.095000L634.522000,148.095000L625.670000,168.116000L615.488000,157.296000L615.488000,157.371000C615.488000,157.371000,584.542000,158.474000,531.178000,177.109000C531.178000,177.109000,528.200000,163.498000,524.339000,147.551000L476.552000,162.712000C479.371000,191.761000,487.182000,226.019000,508.028000,233.697000C532.460000,242.690000,591.615000,225.337000,591.615000,225.337000L599.970000,291.538000L709.912000,291.538000L709.912000,279.306000C709.912000,279.306000,718.915000,274.826000,718.915000,264.523000C718.895000,245.888000,713.745000,243.317000,714.393000,211.822000Z" fill="rgb(189,206,174)" stroke="none" stroke-width="1"/>
    <path id="eba7ha49d1l20" d="M634.515000,148.095000L616.681000,148.095000L615.481000,157.296000L625.663000,168.115000L634.515000,148.095000Z" fill="rgb(245,235,221)" stroke="none" stroke-width="1"/>
    <path id="eba7ha49d1l21" d="M634.729000,148.095000L644.311000,168.115000L668.991000,157.013000C669.087000,155.993000,669.397000,152.878000,669.811000,148.474000L669.811000,148.095000L634.729000,148.095000Z" fill="rgb(245,235,221)" stroke="none" stroke-width="1"/>
    <path id="eba7ha49d1l22" d="M587.734000,204.752000L590.168000,224.551000" fill="none" stroke="rgb(116,135,98)" stroke-width="4" stroke-linecap="round" stroke-linejoin="round"/>
    <path id="eba7ha49d1l23" d="M634.349000,189.328000C637.369000,189.328000,639.816000,186.881000,639.816000,183.863000C639.816000,180.845000,637.369000,178.398000,634.349000,178.398000C631.330000,178.398000,628.883000,180.845000,628.883000,183.863000C628.883000,186.881000,631.330000,189.328000,634.349000,189.328000Z" fill="rgb(48,36,42)" stroke="none" stroke-width="1"/>
    <path id="eba7ha49d1l24" d="M491.614000,180.328000C494.634000,180.328000,497.081000,177.881000,497.081000,174.862000C497.081000,171.844000,494.634000,169.397000,491.614000,169.397000C488.595000,169.397000,486.148000,171.844000,486.148000,174.862000C486.148000,177.881000,488.595000,180.328000,491.614000,180.328000Z" fill="rgb(48,36,42)" stroke="none" stroke-width="1"/>
    <path id="eba7ha49d1l25" d="M532.536000,177.440000L535.011000,189.321000" fill="none" stroke="rgb(116,135,98)" stroke-width="4" stroke-linecap="round" stroke-linejoin="round"/>
    <path id="eba7ha49d1l26" d="M634.522000,148.095000L634.735000,148.095000L634.673000,147.964000L669.832000,147.964000L669.832000,148.095000L669.880000,148.095000C670.169000,144.987000,670.521000,141.279000,670.893000,137.275000C664.854000,135.249000,649.764000,129.198000,644.469000,118.020000C653.383000,115.050000,663.772000,102.424000,656.354000,92.024600C646.510000,78.241300,629.613000,96.483500,629.613000,96.483500C629.613000,96.483500,619.211000,89.798600,614.013000,75.691400C611.786000,76.428800,605.099000,77.173100,599.901000,75.691400C599.901000,75.691400,597.668000,81.632000,596.186000,92.024600C595.979000,93.458100,595.749000,94.836400,595.496000,96.159600C595.496000,96.159600,588.761000,95.753000,588.023000,98.723300C587.100000,102.397000,592.994000,106.304000,592.994000,106.304000C590.684000,114.574000,588.768000,120.977000,591.732000,128.392000C594.352000,134.932000,599.908000,142.499000,617.735000,140.273000L616.736000,147.944000L634.604000,147.944000L634.522000,148.095000Z" fill="rgb(161,88,66)" stroke="none" stroke-width="1"/>
    <path id="eba7ha49d1l27" d="M613.985000,75.691300C619.183000,89.798500,629.586000,96.483400,629.586000,96.483400C629.586000,96.483400,646.482000,78.248100,656.327000,92.024500C663.751000,102.424000,653.356000,115.050000,644.442000,118.020000C649.736000,129.198000,664.827000,135.249000,670.866000,137.275000C672.169000,123.113000,673.740000,105.181000,674.154000,96.483400C674.843000,82.307300,673.465000,61.515100,650.384000,51.184500C628.841000,41.536200,608.788000,56.380800,608.788000,56.380800C608.788000,56.380800,590.471000,51.108700,589.485000,63.065700C588.741000,71.976700,599.888000,75.691300,599.888000,75.691300C605.072000,77.173000,611.772000,76.428700,613.985000,75.691300Z" fill="rgb(234,165,139)" stroke="none" stroke-width="1"/>
    <path id="eba7ha49d1l28" d="M618.191000,141.631000C621.734000,141.017000,626.697000,139.715000,630.696000,136.972000" fill="none" stroke="rgb(48,36,42)" stroke-width="4" stroke-linecap="round" stroke-miterlimit="10"/>
    <path id="eba7ha49d1l29" d="M599.012000,113.168000C600.246000,113.933000,604.844000,114.547000,606.713000,110.990000" fill="none" stroke="rgb(48,36,42)" stroke-width="4" stroke-linecap="round" stroke-miterlimit="10"/>
    <path id="eba7ha49d1l30" d="M608.043000,95.760000C609.284000,95.760000,610.290000,94.754100,610.290000,93.513300C610.290000,92.272500,609.284000,91.266600,608.043000,91.266600C606.802000,91.266600,605.796000,92.272500,605.796000,93.513300C605.796000,94.754100,606.802000,95.760000,608.043000,95.760000Z" fill="rgb(48,36,42)" stroke="none" stroke-width="1"/>
    <path id="eba7ha49d1l31" d="M646.669000,100.936000L638.500000,106.132000" fill="none" stroke="rgb(48,36,42)" stroke-width="4" stroke-linecap="round" stroke-miterlimit="10"/>
    <path id="eba7ha49d1l32" d="M599.950000,291.518000C599.950000,291.518000,544.655000,312.089000,524.118000,323.013000C488.423000,341.972000,484.073000,352.102000,462.075000,418.869000C454.726000,441.005000,449.769000,459.047000,445.089000,473.120000L504.533000,500.280000L504.609000,500.128000L514.260000,504.642000C514.260000,504.642000,529.833000,484.367000,532.329000,461.418000C535.555000,431.784000,533.625000,411.750000,547.171000,400.137000L703.976000,291.497000L599.950000,291.518000Z" fill="rgb(48,36,42)" stroke="none" stroke-width="1"/>
    <path id="eba7ha49d1l33" d="M435.499000,496.173000L448.466000,502.217000C457.428000,506.407000,456.739000,512.465000,455.677000,514.801000C454.699000,516.642000,453.622000,518.430000,452.451000,520.156000L484.783000,535.434000C492.029000,524.103000,498.623000,512.368000,504.533000,500.287000L445.089000,473.120000C441.959000,482.582000,438.967000,490.239000,435.499000,496.173000Z" fill="rgb(161,88,66)" stroke="none" stroke-width="1"/>
    <path id="eba7ha49d1l34" d="M448.466000,502.217000L435.499000,496.173000C432.052000,502.037000,428.192000,506.214000,423.249000,508.743000C419.547000,510.573000,415.487000,511.566000,411.357000,511.651000C410.275000,511.693000,409.234000,511.762000,408.207000,511.830000C410.964000,516.765000,412.219000,524.325000,412.219000,524.325000C419.885000,526.393000,429.074000,523.815000,435.658000,521.176000C438.140000,520.176000,440.242000,519.163000,441.738000,518.419000C442.778000,517.883000,443.928000,517.593000,445.098000,517.571000C446.268000,517.550000,447.428000,517.797000,448.487000,518.295000L452.485000,520.183000C453.656000,518.458000,454.733000,516.670000,455.712000,514.828000C456.760000,512.465000,457.463000,506.407000,448.466000,502.217000Z" fill="rgb(237,137,137)" stroke="none" stroke-width="1"/>
    <path id="eba7ha49d1l35" d="M452.451000,520.156000L448.453000,518.267000C447.393000,517.770000,446.234000,517.522000,445.064000,517.544000C443.894000,517.565000,442.744000,517.855000,441.704000,518.391000C440.208000,519.163000,438.105000,520.176000,435.623000,521.148000C429.074000,523.788000,419.885000,526.372000,412.185000,524.298000C412.185000,524.298000,410.930000,516.717000,408.172000,511.803000C407.483000,511.851000,406.870000,511.906000,406.235000,511.968000C393.765000,513.161000,386.347000,516.538000,381.935000,521.562000L466.376000,560.913000C469.885000,556.661000,474.849000,550.258000,480.626000,541.733000C482.005000,539.742000,483.383000,537.654000,484.762000,535.434000L452.451000,520.156000Z" fill="rgb(48,36,42)" stroke="none" stroke-width="1"/>
    <path id="eba7ha49d1l36" d="M377.840000,528.605000L460.855000,567.198000C460.855000,567.198000,462.923000,565.076000,466.370000,560.878000L381.935000,521.562000C380.133000,523.626000,378.743000,526.017000,377.840000,528.605000Z" fill="rgb(255,114,53)" stroke="none" stroke-width="1"/>
    <path id="eba7ha49d1l37" d="M664.579000,291.518000C664.579000,291.518000,596.889000,310.056000,564.054000,330.111000C529.964000,350.903000,529.585000,367.857000,534.562000,423.507000" fill="none" stroke="rgb(0,0,0)" stroke-width="4" stroke-linecap="round" stroke-linejoin="round"/>
    <path id="eba7ha49d1l38" d="M648.289000,400.206000L645.724000,410.302000" fill="none" stroke="rgb(161,88,66)" stroke-width="4" stroke-linecap="round" stroke-linejoin="round"/>
    <path id="eba7ha49d1l39" d="M772.728000,336.748000L729.649000,336.748000" fill="none" stroke="rgb(161,88,66)" stroke-width="4" stroke-linecap="round" stroke-linejoin="round"/>
    <path id="eba7ha49d1l40" d="M265.961000,512.389000L265.961000,524.001000L370.236000,524.001000L370.236000,512.389000L265.961000,512.389000Z" fill="rgb(161,88,66)" stroke="none" stroke-width="1"/>
    <path id="eba7ha49d1l41" d="M248.789000,565.971000L275.909000,404.582000L360.295000,404.582000L387.415000,565.971000C387.538000,566.736000,387.493000,567.519000,387.284000,568.265000C387.075000,569.011000,386.706000,569.703000,386.203000,570.292000C385.701000,570.882000,385.076000,571.356000,384.372000,571.681000C383.669000,572.005000,382.903000,572.174000,382.128000,572.174000C380.906000,572.174000,379.721000,571.756000,378.770000,570.990000C377.818000,570.224000,377.157000,569.156000,376.896000,567.963000L341.386000,404.582000L294.819000,404.582000L259.309000,567.998000C259.048000,569.191000,258.387000,570.259000,257.435000,571.025000C256.483000,571.791000,255.298000,572.208000,254.077000,572.208000C253.298000,572.209000,252.529000,572.040000,251.822000,571.713000C251.116000,571.386000,250.489000,570.909000,249.986000,570.316000C249.483000,569.722000,249.115000,569.026000,248.908000,568.276000C248.701000,567.525000,248.661000,566.739000,248.789000,565.971000Z" fill="rgb(161,88,66)" stroke="none" stroke-width="1"/>
    <path id="eba7ha49d1l42" d="M179.576000,512.389000L179.576000,524.001000L283.851000,524.001000L283.851000,512.389000L179.576000,512.389000Z" fill="rgb(202,115,88)" stroke="none" stroke-width="1"/>
    <path id="eba7ha49d1l43" d="M162.403000,565.971000L189.523000,404.582000L273.910000,404.582000L301.030000,565.971000C301.152000,566.736000,301.108000,567.519000,300.898000,568.265000C300.689000,569.011000,300.320000,569.703000,299.818000,570.292000C299.315000,570.882000,298.690000,571.356000,297.987000,571.681000C297.283000,572.005000,296.517000,572.174000,295.742000,572.174000C294.521000,572.174000,293.336000,571.756000,292.384000,570.990000C291.432000,570.224000,290.771000,569.156000,290.510000,567.963000L255,404.582000L208.433000,404.582000L172.923000,567.998000C172.662000,569.191000,172.001000,570.259000,171.049000,571.025000C170.098000,571.791000,168.913000,572.208000,167.691000,572.208000C166.912000,572.209000,166.143000,572.040000,165.437000,571.713000C164.730000,571.386000,164.104000,570.909000,163.600000,570.316000C163.097000,569.722000,162.729000,569.026000,162.523000,568.276000C162.316000,567.525000,162.275000,566.739000,162.403000,565.971000Z" fill="rgb(202,115,88)" stroke="none" stroke-width="1"/>
    <path id="eba7ha49d1l44" d="M247.638000,378.566000L237.297000,338.126000L305.855000,338.126000C319.294000,338.124000,332.352000,342.593000,342.970000,350.828000C353.588000,359.064000,361.163000,370.597000,364.501000,383.611000L371.505000,411.005000L289.469000,411.005000C279.883000,411.009000,270.569000,407.822000,262.995000,401.949000C255.421000,396.075000,250.018000,387.849000,247.638000,378.566000Z" fill="rgb(62,193,243)" stroke="none" stroke-width="1"/>
    <path id="eba7ha49d1l45" d="M207.888000,411.040000L371.498000,411.040000L368.740000,400.061000L296.921000,400.061000L269.525000,292.979000C265.794000,278.392000,257.312000,265.462000,245.416000,256.228000C233.521000,246.993000,218.889000,241.981000,203.828000,241.980000C166.974000,241.980000,140.006000,276.707000,149.133000,312.399000L166.064000,378.559000C168.435000,387.849000,173.834000,396.085000,181.407000,401.966000C188.981000,407.848000,198.298000,411.040000,207.888000,411.040000Z" fill="rgb(237,137,137)" stroke="none" stroke-width="1"/>
    <path id="eba7ha49d1l46" d="M367.044000,398.993000L280.004000,398.993000" fill="none" stroke="rgb(71,86,223)" stroke-width="4" stroke-linecap="round" stroke-miterlimit="10"/>
    <path id="eba7ha49d1l47" d="M296.611000,398.593000L281.355000,338.974000" fill="none" stroke="rgb(71,86,223)" stroke-width="4" stroke-linecap="round" stroke-miterlimit="10"/>
    <path id="eba7ha49d1l48" d="M280.514000,401.598000L282.741000,410.302000" fill="none" stroke="rgb(161,88,66)" stroke-width="4" stroke-linecap="round" stroke-linejoin="round"/>
    <path id="eba7ha49d1l49" d="M155.737000,336.748000L198.816000,336.748000" fill="none" stroke="rgb(161,88,66)" stroke-width="4" stroke-linecap="round" stroke-linejoin="round"/>
    <path id="eba7ha49d1l50" d="M268.105000,549.094000L267.237000,551.092000L32.125300,553.980000C30.270300,553.980000,28.433500,554.345000,26.719800,555.055000C25.006000,555.764000,23.448900,556.805000,22.137200,558.116000C20.825600,559.427000,19.785100,560.984000,19.075200,562.697000C18.365400,564.410000,18,566.247000,18,568.101000L18,572.877000L257.820000,572.877000L309.254000,572.877000C316.320000,566.447000,284.816000,554.876000,268.105000,549.094000Z" fill="rgb(234,165,139)" stroke="none" stroke-width="1"/>
    <path id="eba7ha49d1l51" d="M26.362100,572.188000L26.362100,567.088000" fill="none" stroke="rgb(161,88,66)" stroke-width="4" stroke-linecap="round" stroke-linejoin="round"/>
    <path id="eba7ha49d1l52" d="M32.787100,572.188000L32.787100,567.088000" fill="none" stroke="rgb(161,88,66)" stroke-width="4" stroke-linecap="round" stroke-linejoin="round"/>
    <path id="eba7ha49d1l53" d="M117.656000,558.115000C114.595000,544.042000,111.238000,499.915000,110.921000,495.697000C110.383000,495.697000,109.845000,495.738000,109.301000,495.773000C89.364100,497.055000,77.148400,522.768000,73.935900,528.550000C73.935900,528.550000,62.044200,531.706000,52.868600,535.931000C54.256400,536.595000,55.330000,537.774000,55.860500,539.218000C57.177200,543.091000,53.709600,547.771000,48.118800,549.666000C46.451300,550.244000,44.692000,550.513000,42.927800,550.458000C45.457800,564.821000,58.094000,572.898000,84.869400,572.898000L131.278000,572.898000C127.383000,571.981000,119.986000,568.831000,117.656000,558.115000Z" fill="rgb(234,165,139)" stroke="none" stroke-width="1"/>
    <path id="eba7ha49d1l54" d="M267.609000,519.018000C262.942000,524.883000,246.859000,530.162000,241.102000,516.338000C229.466000,522.457000,202.084000,516.338000,204.503000,489.081000C176.239000,494.663000,148.113000,512.168000,146.651000,513.085000C154.827000,527.640000,163.886000,544.097000,165.878000,549.121000C169.366000,557.839000,169.173000,570.554000,160.914000,572.898000L266.816000,572.898000C272.600000,553.484000,273.696000,534.456000,267.609000,519.018000Z" fill="rgb(234,165,139)" stroke="none" stroke-width="1"/>
    <path id="eba7ha49d1l55" d="M241.102000,516.338000C246.859000,530.162000,262.942000,524.883000,267.609000,519.019000C262.783000,506.834000,253.546000,496.862000,238.531000,490.632000C228.542000,486.497000,216.519000,486.703000,204.504000,489.081000C202.084000,516.338000,229.466000,522.458000,241.102000,516.338000Z" fill="rgb(48,36,42)" stroke="none" stroke-width="1"/>
    <path id="eba7ha49d1l56" d="M48.118800,549.666000C53.709700,547.771000,57.177200,543.091000,55.860500,539.218000C55.330000,537.774000,54.256500,536.595000,52.868600,535.931000C47.112300,538.577000,42.431500,541.644000,42.431500,544.621000C42.427300,546.578000,42.593300,548.531000,42.927800,550.458000C44.692000,550.513000,46.451300,550.244000,48.118800,549.666000Z" fill="rgb(48,36,42)" stroke="none" stroke-width="1"/>
    <path id="eba7ha49d1l57" d="M85.510500,572.208000L85.510500,568.122000C85.510500,566.268000,85.875700,564.433000,86.585200,562.720000C87.294700,561.008000,88.334700,559.452000,89.645700,558.142000C90.956700,556.831000,92.513100,555.791000,94.226000,555.082000C95.939000,554.373000,97.774800,554.008000,99.628900,554.008000L120.937000,554.008000" fill="none" stroke="rgb(161,88,66)" stroke-width="4" stroke-linecap="round" stroke-linejoin="round"/>
    <path id="eba7ha49d1l58" d="M93.865700,572.208000L93.865700,567.115000" fill="none" stroke="rgb(161,88,66)" stroke-width="4" stroke-linecap="round" stroke-linejoin="round"/>
    <path id="eba7ha49d1l59" d="M100.298000,572.208000L100.298000,567.115000" fill="none" stroke="rgb(161,88,66)" stroke-width="4" stroke-linecap="round" stroke-linejoin="round"/>
    <path id="eba7ha49d1l60" d="M188.379000,572.208000L188.379000,567.115000" fill="none" stroke="rgb(161,88,66)" stroke-width="4" stroke-linecap="round" stroke-linejoin="round"/>
    <path id="eba7ha49d1l61" d="M194.811000,572.208000L194.811000,567.115000" fill="none" stroke="rgb(161,88,66)" stroke-width="4" stroke-linecap="round" stroke-linejoin="round"/>
    <path id="eba7ha49d1l62" d="M179.376000,572.208000L179.376000,568.122000C179.376000,566.268000,179.741000,564.432000,180.451000,562.719000C181.161000,561.006000,182.202000,559.450000,183.513000,558.139000C184.825000,556.828000,186.382000,555.789000,188.096000,555.080000C189.810000,554.371000,191.646000,554.007000,193.501000,554.008000L216.940000,554.008000" fill="none" stroke="rgb(161,88,66)" stroke-width="4" stroke-linecap="round" stroke-linejoin="round"/>
    <path id="eba7ha49d1l63" d="M187.738000,518.908000C186.449000,525.338000,189.020000,544.621000,200.595000,553.615000" fill="none" stroke="rgb(161,88,66)" stroke-width="4" stroke-linecap="round" stroke-linejoin="round"/>
    <path id="eba7ha49d1l64" d="M67.497100,571.671000C53.875100,569.328000,46.030000,563.635000,42.803700,555.131000" fill="none" stroke="rgb(161,88,66)" stroke-width="4" stroke-linecap="round" stroke-linejoin="round"/>
    <path id="eba7ha49d1l65" d="M272.600000,551.340000C271.837000,558.341000,270.453000,565.260000,268.464000,572.015000" fill="none" stroke="rgb(161,88,66)" stroke-width="4" stroke-linecap="round" stroke-linejoin="round"/>
    <path id="eba7ha49d1l66" d="M92.583500,531.120000C95.775800,533.962000,99.884500,535.559000,104.158000,535.621000" fill="none" stroke="rgb(161,88,66)" stroke-width="4" stroke-linecap="round" stroke-linejoin="round"/>
    <path id="eba7ha49d1l67" d="M165.878000,549.121000C163.858000,544.084000,154.848000,527.640000,146.651000,513.085000L146.589000,513.126000C139.089000,505.001000,129.755000,495.056000,110.921000,495.697000C111.238000,499.915000,114.595000,544.042000,117.656000,558.115000C119.986000,568.831000,127.383000,571.981000,131.278000,572.898000L160.921000,572.898000C169.194000,570.554000,169.366000,557.839000,165.878000,549.121000Z" fill="rgb(48,36,42)" stroke="none" stroke-width="1"/>
    <g id="eba7ha49d1l68_to" transform="translate(0,0)">
        <path id="eba7ha49d1l68" d="M61.720200,474.995000L72.302100,468.530000L67.600500,484.987000L80.043700,477.593000" transform="translate(0,0)" opacity="0" fill="none" stroke="rgb(237,137,137)" stroke-width="4" stroke-linecap="round" stroke-linejoin="round"/>
    </g>
    <g id="eba7ha49d1l69_to" transform="translate(0,0)">
        <path id="eba7ha49d1l69" d="M82.263500,443.162000L93.410800,442.273000L82.925300,453.596000L95.472000,452.721000" transform="translate(0,0)" opacity="0" fill="none" stroke="rgb(237,137,137)" stroke-width="4" stroke-linecap="round" stroke-linejoin="round"/>
    </g>
    <path id="eba7ha49d1l70" d="M634.349000,189.328000C637.369000,189.328000,639.816000,186.881000,639.816000,183.863000C639.816000,180.845000,637.369000,178.398000,634.349000,178.398000C631.330000,178.398000,628.883000,180.845000,628.883000,183.863000C628.883000,186.881000,631.330000,189.328000,634.349000,189.328000Z" fill="rgb(48,36,42)" stroke="none" stroke-width="1"/>
    <path id="eba7ha49d1l71" d="M713.207000,202.787000L714.296000,208.907000C714.137000,206.836000,713.772000,204.786000,713.207000,202.787000Z" fill="rgb(161,88,66)" stroke="none" stroke-width="1"/>
    <path id="eba7ha49d1l72" d="M669.811000,148.474000L669.852000,148.095000L669.804000,148.095000L669.811000,148.474000Z" fill="rgb(62,193,243)" stroke="none" stroke-width="1"/>
    <path id="eba7ha49d1l73" d="M616.701000,147.964000L616.591000,147.964000L616.577000,148.095000L616.681000,148.095000L616.701000,147.964000Z" fill="rgb(245,235,221)" stroke="none" stroke-width="1"/>
    <path id="eba7ha49d1l74" d="M634.515000,148.095000L634.570000,147.964000L616.701000,147.964000L616.681000,148.095000L634.515000,148.095000Z" fill="rgb(245,235,221)" stroke="none" stroke-width="1"/>
    <path id="eba7ha49d1l75" d="M616.577000,148.095000L615.378000,157.185000L615.481000,157.296000L616.681000,148.095000L616.577000,148.095000Z" fill="rgb(245,235,221)" stroke="none" stroke-width="1"/>
    <path id="eba7ha49d1l76" d="M669.797000,147.964000L634.667000,147.964000L634.729000,148.095000L669.804000,148.095000L669.797000,147.964000Z" fill="rgb(245,235,221)" stroke="none" stroke-width="1"/>
    <path id="eba7ha49d1l77" d="M251.905000,72.852000C269.266000,72.852000,283.340000,58.782100,283.340000,41.426000C283.340000,24.069900,269.266000,10,251.905000,10C234.544000,10,220.469000,24.069900,220.469000,41.426000C220.469000,58.782100,234.544000,72.852000,251.905000,72.852000Z" fill="rgb(48,36,42)" stroke="none" stroke-width="1"/>
    <path id="eba7ha49d1l78" d="M273.613000,62.376600C271.690000,63.258700,287.835000,24.961800,296.066000,30.943700C303.822000,36.588000,283.340000,57.890100,273.613000,62.376600Z" fill="rgb(237,137,137)" stroke="none" stroke-width="1"/>
    <path id="eba7ha49d1l79" d="M272.717000,64.719700C270.959000,66.821700,229.783000,52.425000,235.491000,44.113600C240.951000,36.119300,274.475000,62.617800,272.717000,64.719700Z" fill="rgb(237,137,137)" stroke="none" stroke-width="1"/>
    <path id="eba7ha49d1l80" d="M329.515000,84.381800C323.538000,85.387900,314.783000,83.334200,314.783000,83.334200C302.802000,96.800500,290.076000,99.791500,290.076000,99.791500C281.845000,90.832400,266.871000,90.832400,264.631000,103.534000C262.142000,117.613000,279.597000,121.493000,279.597000,121.493000C279.597000,121.493000,282.072000,139.095000,275.337000,148.075000C274.392000,149.329000,273.524000,150.431000,272.655000,151.403000L306.042000,151.403000L305.049000,145.442000C305.049000,145.442000,315.527000,149.184000,324.510000,143.946000C333.492000,138.709000,335.740000,128.978000,332.741000,114.009000C330.969000,105.146000,331.031000,94.181700,329.515000,84.381800Z" fill="rgb(234,165,139)" stroke="none" stroke-width="1"/>
    <path id="eba7ha49d1l81" d="M318.347000,274.805000C303.560000,283.165000,295.839000,299.229000,295.839000,299.229000L347.273000,299.229000L331.976000,268.562000C325.882000,271.194000,320.167000,273.758000,318.347000,274.805000Z" fill="rgb(255,114,53)" stroke="none" stroke-width="1"/>
    <path id="eba7ha49d1l82" d="M246.404000,159.908000C223.820000,162.416000,215.492000,170.424000,199.051000,190.148000C194.990000,195.021000,188.710000,203.318000,184.780000,208.501000L184.905000,208.604000C184.905000,208.604000,156.302000,244.062000,157.619000,271.022000L197.734000,282.221000L225.116000,246.550000L232.837000,270.333000C232.837000,270.333000,215.478000,280.615000,205.834000,299.278000L295.839000,299.278000C295.839000,299.278000,303.560000,283.213000,318.347000,274.854000C320.181000,273.806000,325.882000,271.256000,331.976000,268.610000L329.908000,264.475000L336.326000,244.627000L350.499000,260.671000C350.499000,260.671000,340.848000,264.716000,331.983000,268.562000L347.280000,299.229000L401.293000,299.229000C431.508000,279.306000,408.359000,243.317000,398.721000,230.458000C392.082000,221.616000,361.426000,177.109000,340.214000,165.545000C326.068000,157.833000,307.303000,158.908000,307.303000,158.908000L306.048000,151.403000L272.655000,151.403000C268.078000,156.517000,263.383000,158.019000,246.404000,159.908000Z" fill="rgb(244,205,156)" stroke="none" stroke-width="1"/>
    <path id="eba7ha49d1l83" d="M350.458000,259.237000L362.067000,254.882000" fill="none" stroke="rgb(161,88,66)" stroke-width="4" stroke-linecap="round" stroke-miterlimit="10"/>
    <path id="eba7ha49d1l84" d="M245.659000,264.992000C245.838000,252.366000,247.920000,220.382000,263.693000,204.097000C281.093000,186.179000,320.270000,189.962000,332.486000,206.027000C344.702000,222.091000,336.346000,244.620000,336.346000,244.620000L330.563000,264.544000L347.273000,299.250000L197.458000,299.250000L227.032000,272.256000L245.659000,264.992000Z" fill="rgb(189,206,174)" stroke="none" stroke-width="1"/>
    <path id="eba7ha49d1l85" d="M245.694000,264.523000L330.514000,264.523000" fill="none" stroke="rgb(245,235,221)" stroke-width="4" stroke-linecap="round" stroke-miterlimit="10"/>
    <path id="eba7ha49d1l86" d="M282.341000,237.528000L315.128000,237.528000" fill="none" stroke="rgb(245,235,221)" stroke-width="4" stroke-linecap="round" stroke-miterlimit="10"/>
    <path id="eba7ha49d1l87" d="M342.778000,263.882000L359.489000,302.475000L327.343000,302.475000C320.918000,302.475000,312.556000,302.475000,313.204000,299.257000C308.055000,303.116000,299.699000,302.475000,300.340000,299.257000C291.985000,303.116000,289.414000,300.546000,288.773000,299.257000C288.132000,297.968000,296.487000,287.045000,315.128000,276.707000C325.958000,270.767000,342.778000,263.882000,342.778000,263.882000Z" fill="rgb(234,165,139)" stroke="none" stroke-width="1"/>
    <path id="eba7ha49d1l88" d="M296.487000,301.800000C296.487000,301.800000,306.138000,292.152000,327.343000,280.594000" fill="none" stroke="rgb(161,88,66)" stroke-width="4" stroke-linecap="round" stroke-miterlimit="10"/>
    <path id="eba7ha49d1l89" d="M333.134000,287.665000C322.185000,294.517000,311.664000,302.029000,301.630000,310.160000" fill="none" stroke="rgb(161,88,66)" stroke-width="4" stroke-linecap="round" stroke-miterlimit="10"/>
    <path id="eba7ha49d1l90" d="M339.559000,295.377000C322.235000,304.378000,302.932000,316.590000,302.932000,316.590000" fill="none" stroke="rgb(161,88,66)" stroke-width="4" stroke-linecap="round" stroke-miterlimit="10"/>
    <path id="eba7ha49d1l91" d="M245.827000,158.787000L262.707000,152.539000C262.747000,152.524000,262.789000,152.517000,262.832000,152.519000C262.874000,152.520000,262.916000,152.530000,262.955000,152.548000C262.993000,152.566000,263.028000,152.591000,263.057000,152.622000C263.086000,152.654000,263.108000,152.690000,263.123000,152.730000L283.091000,206.636000C283.950000,208.955000,283.852000,211.520000,282.819000,213.768000C281.787000,216.015000,279.903000,217.759000,277.583000,218.618000C275.263000,219.477000,272.697000,219.379000,270.450000,218.347000C268.202000,217.314000,266.456000,215.431000,265.597000,213.112000L245.630000,159.206000C245.615000,159.166000,245.608000,159.123000,245.610000,159.080000C245.611000,159.036000,245.622000,158.994000,245.640000,158.955000C245.659000,158.916000,245.685000,158.881000,245.717000,158.852000C245.749000,158.824000,245.787000,158.802000,245.827000,158.787000Z" fill="rgb(161,88,66)" stroke="none" stroke-width="1"/>
    <path id="eba7ha49d1l92" d="M320.008000,220.885000C321.228000,221.025000,322.462000,220.923000,323.642000,220.586000C324.822000,220.248000,325.924000,219.682000,326.884000,218.918000C327.845000,218.154000,328.645000,217.209000,329.240000,216.135000C329.834000,215.062000,330.211000,213.882000,330.349000,212.663000L335.919000,163.526000C330.054000,161.245000,323.893000,159.814000,317.623000,159.274000L311.791000,210.548000C311.651000,211.766000,311.752000,213,312.090000,214.179000C312.427000,215.358000,312.993000,216.459000,313.756000,217.419000C314.519000,218.379000,315.464000,219.179000,316.537000,219.774000C317.610000,220.369000,318.790000,220.746000,320.008000,220.885000Z" fill="rgb(161,88,66)" stroke="none" stroke-width="1"/>
    <path id="eba7ha49d1l93" d="M274.165000,214.627000C277.184000,214.627000,279.632000,212.181000,279.632000,209.162000C279.632000,206.144000,277.184000,203.697000,274.165000,203.697000C271.146000,203.697000,268.698000,206.144000,268.698000,209.162000C268.698000,212.181000,271.146000,214.627000,274.165000,214.627000Z" fill="rgb(48,36,42)" stroke="none" stroke-width="1"/>
    <path id="eba7ha49d1l94" d="M321.235000,216.323000C324.255000,216.323000,326.702000,213.876000,326.702000,210.858000C326.702000,207.839000,324.255000,205.393000,321.235000,205.393000C318.216000,205.393000,315.769000,207.839000,315.769000,210.858000C315.769000,213.876000,318.216000,216.323000,321.235000,216.323000Z" fill="rgb(48,36,42)" stroke="none" stroke-width="1"/>
    <path id="eba7ha49d1l95" d="M215.975000,161.155000L249.030000,151.403000L272.655000,151.403000C273.524000,150.432000,274.392000,149.336000,275.337000,148.075000C282.072000,139.115000,279.597000,121.493000,279.597000,121.493000C279.597000,121.493000,262.142000,117.613000,264.631000,103.534000C266.871000,90.818600,281.865000,90.818600,290.076000,99.791600C290.076000,99.791600,302.801000,96.800600,314.783000,83.334300C314.783000,83.334300,323.538000,85.401800,329.515000,84.381800C328.467000,77.634900,326.675000,71.446200,323.014000,66.870100C314.052000,55.643600,289.331000,48.166100,269.870000,62.383600C250.409000,76.601100,251.905000,99.791600,252.636000,108.771000C252.636000,108.771000,231.679000,102.038000,216.712000,117.731000C212.381000,122.224000,209.226000,127.717000,207.528000,133.722000C205.830000,139.728000,205.641000,146.059000,206.978000,152.154000C206.978000,152.154000,179.403000,151.376000,174.047000,176.847000C171.289000,189.893000,175.639000,198.997000,181.147000,205.034000L184.594000,198.019000L215.975000,161.155000Z" fill="rgb(48,36,42)" stroke="none" stroke-width="1"/>
    <path id="eba7ha49d1l96" d="M246.404000,159.908000C263.390000,158.019000,268.085000,156.517000,272.662000,151.403000L249.030000,151.403000L215.975000,161.155000L184.581000,198.039000L181.134000,205.055000C182.256000,206.286000,183.463000,207.438000,184.746000,208.501000C188.648000,203.318000,194.956000,195.021000,199.016000,190.148000C215.485000,170.424000,223.813000,162.416000,246.404000,159.908000Z" fill="rgb(48,36,42)" stroke="none" stroke-width="1"/>
    <path id="eba7ha49d1l97" d="M304.511000,146.827000C301.411000,145.593000,298.386000,144.178000,295.453000,142.589000" fill="none" stroke="rgb(161,88,66)" stroke-width="4" stroke-linecap="round" stroke-linejoin="round"/>
    <path id="eba7ha49d1l98" d="M205.800000,153.002000C206.885000,157.122000,208.353000,161.132000,210.184000,164.980000" fill="none" stroke="rgb(0,0,0)" stroke-width="4" stroke-linecap="round" stroke-linejoin="round"/>
    <path id="eba7ha49d1l99" d="M251.243000,109.419000L253.401000,120.749000" fill="none" stroke="rgb(0,0,0)" stroke-width="4" stroke-linecap="round" stroke-linejoin="round"/>
    <path id="eba7ha49d1l100" d="M226.171000,247.190000L241.192000,225.957000" fill="none" stroke="rgb(161,88,66)" stroke-width="4" stroke-linecap="round" stroke-miterlimit="10"/>
    <path id="eba7ha49d1l101" d="M279.597000,130.101000C283.937000,130.101000,287.456000,126.584000,287.456000,122.245000C287.456000,117.906000,283.937000,114.388000,279.597000,114.388000C275.257000,114.388000,271.738000,117.906000,271.738000,122.245000C271.738000,126.584000,275.257000,130.101000,279.597000,130.101000Z" fill="rgb(237,137,137)" stroke="none" stroke-width="1"/>
    <path id="eba7ha49d1l102" d="M281.093000,108.771000L275.109000,105.036000" fill="none" stroke="rgb(161,88,66)" stroke-width="4" stroke-linecap="round" stroke-linejoin="round"/>
    <path id="eba7ha49d1l103" d="M319.388000,126.338000C318.147000,127.110000,313.507000,127.717000,311.632000,124.140000" fill="none" stroke="rgb(161,88,66)" stroke-width="4" stroke-linecap="round" stroke-linejoin="round"/>
    <path id="eba7ha49d1l104" d="M307.193000,109.509000C308.434000,109.509000,309.440000,108.503000,309.440000,107.262000C309.440000,106.021000,308.434000,105.015000,307.193000,105.015000C305.952000,105.015000,304.945000,106.021000,304.945000,107.262000C304.945000,108.503000,305.952000,109.509000,307.193000,109.509000Z" fill="rgb(48,36,42)" stroke="none" stroke-width="1"/>
    <path id="eba7ha49d1l105" d="M324.510000,106.532000C325.751000,106.532000,326.757000,105.526000,326.757000,104.285000C326.757000,103.044000,325.751000,102.038000,324.510000,102.038000C323.269000,102.038000,322.263000,103.044000,322.263000,104.285000C322.263000,105.526000,323.269000,106.532000,324.510000,106.532000Z" fill="rgb(48,36,42)" stroke="none" stroke-width="1"/>
    <path id="eba7ha49d1l106" d="M318.519000,110.274000C318.519000,110.274000,320.587000,115.387000,320.057000,116.407000C319.705000,117.059000,319.171000,117.593000,318.519000,117.944000" fill="none" stroke="rgb(161,88,66)" stroke-width="4" stroke-linecap="round" stroke-linejoin="round"/>
    <path id="eba7ha49d1l107" d="M434.417000,565.324000L422.105000,565.324000C422.966000,567.753000,423.327000,570.332000,423.166000,572.904000L475.138000,572.904000C476.062000,562.712000,469.286000,551.595000,449.769000,542.726000L449.363000,542.533000C444.006000,546.551000,439.194000,553.201000,434.417000,565.324000Z" fill="rgb(189,206,174)" stroke="none" stroke-width="1"/>
    <path id="eba7ha49d1l108" d="M448.846000,542.285000C432.611000,534.235000,435.541000,516.558000,440.270000,476.462000C439.149000,474.509000,437.466000,472.937000,435.441000,471.951000C433.415000,470.965000,431.139000,470.611000,428.910000,470.934000C426.680000,471.257000,424.599000,472.243000,422.937000,473.764000C421.275000,475.284000,420.108000,477.269000,419.588000,479.460000C418.997000,477.008000,417.597000,474.826000,415.614000,473.266000C413.632000,471.705000,411.182000,470.856000,408.658000,470.856000C406.135000,470.856000,403.685000,471.705000,401.703000,473.266000C399.720000,474.826000,398.320000,477.008000,397.728000,479.460000C397.137000,477.008000,395.737000,474.826000,393.754000,473.266000C391.772000,471.705000,389.322000,470.856000,386.798000,470.856000C384.275000,470.856000,381.825000,471.705000,379.842000,473.266000C377.860000,474.826000,376.460000,477.008000,375.868000,479.460000C375.276000,477.008000,373.877000,474.826000,371.894000,473.266000C369.912000,471.705000,367.462000,470.856000,364.938000,470.856000C362.415000,470.856000,359.965000,471.705000,357.982000,473.266000C356,474.826000,354.600000,477.008000,354.008000,479.460000C353.416000,477.008000,352.017000,474.826000,350.034000,473.266000C348.052000,471.705000,345.602000,470.856000,343.078000,470.856000C340.555000,470.856000,338.105000,471.705000,336.122000,473.266000C334.140000,474.826000,332.740000,477.008000,332.148000,479.460000C331.734000,477.736000,330.917000,476.134000,329.764000,474.786000C328.611000,473.437000,327.155000,472.381000,325.516000,471.704000C323.876000,471.027000,322.099000,470.748000,320.330000,470.890000C318.562000,471.032000,316.852000,471.591000,315.341000,472.520000C315.410000,476.070000,315.548000,479.777000,315.769000,483.699000C316.816000,502.258000,321.008000,527.082000,324.606000,545.827000C342.144000,546.764000,349.252000,559.707000,351.492000,565.324000L381.018000,565.324000C381.287000,564.634000,381.549000,563.994000,381.818000,563.346000L381.983000,562.953000C382.238000,562.353000,382.486000,561.768000,382.741000,561.196000C382.803000,561.044000,382.872000,560.906000,382.934000,560.761000C383.162000,560.251000,383.389000,559.762000,383.624000,559.280000L383.831000,558.845000C384.047000,558.386000,384.260000,557.952000,384.472000,557.543000L384.761000,556.957000L385.409000,555.710000L385.782000,555.021000C385.906000,554.786000,386.037000,554.559000,386.161000,554.331000C386.381000,553.939000,386.609000,553.553000,386.850000,553.174000C386.947000,553.022000,387.036000,552.870000,387.126000,552.719000C387.643000,551.871000,388.160000,551.072000,388.684000,550.320000L388.780000,550.176000C389.077000,549.755000,389.373000,549.349000,389.670000,548.949000C391.471000,546.500000,393.611000,544.319000,396.026000,542.471000C396.577000,542.774000,397.149000,543.064000,397.756000,543.339000C412.116000,549.859000,419.575000,557.612000,422.153000,565.296000L434.417000,565.296000C439.194000,553.174000,444.006000,546.523000,449.356000,542.498000L448.846000,542.285000Z" fill="rgb(245,235,221)" stroke="none" stroke-width="1"/>
    <path id="eba7ha49d1l109" d="M422.105000,565.324000L422.153000,565.324000C419.575000,557.639000,412.116000,549.886000,397.756000,543.367000C397.149000,543.091000,396.577000,542.802000,396.026000,542.498000C393.690000,544.284000,391.614000,546.386000,389.856000,548.742000L389.732000,548.908000L389.677000,548.977000C389.380000,549.376000,389.084000,549.783000,388.787000,550.203000L388.691000,550.348000C388.167000,551.099000,387.650000,551.899000,387.133000,552.746000C387.043000,552.898000,386.954000,553.050000,386.857000,553.201000C386.636000,553.580000,386.409000,553.966000,386.168000,554.359000C386.044000,554.580000,385.913000,554.807000,385.788000,555.048000L385.416000,555.737000L384.768000,556.985000L384.479000,557.571000C384.267000,557.989000,384.054000,558.423000,383.838000,558.873000L383.631000,559.307000C383.410000,559.790000,383.183000,560.279000,382.941000,560.789000C382.879000,560.934000,382.810000,561.072000,382.748000,561.223000C382.493000,561.795000,382.245000,562.381000,381.990000,562.981000L381.825000,563.373000C381.556000,564.021000,381.294000,564.676000,381.025000,565.351000L351.527000,565.351000C349.258000,559.735000,342.151000,546.792000,324.641000,545.855000C327.640000,561.506000,330.232000,572.925000,330.232000,572.925000L423.166000,572.925000C423.330000,570.346000,422.968000,567.760000,422.105000,565.324000Z" fill="rgb(189,206,174)" stroke="none" stroke-width="1"/>
    <path id="eba7ha49d1l110" d="M221.903000,328.919000L221.903000,317.203000L199.926000,317.203000C198.094000,327.671000,198.526000,338.411000,201.195000,348.698000L202.091000,348.698000C207.341000,348.698000,212.376000,346.615000,216.091000,342.906000C219.805000,339.198000,221.896000,334.167000,221.903000,328.919000Z" fill="rgb(161,88,66)" stroke="none" stroke-width="1"/>
    <path id="eba7ha49d1l111" d="M418.265000,331.310000L417.217000,330.718000C409.882000,330.435000,400.893000,331.145000,390.021000,333.591000L389.849000,333.633000C388.973000,333.826000,388.084000,334.039000,387.181000,334.260000L386.678000,334.384000C385.809000,334.598000,384.934000,334.825000,384.044000,335.073000L383.514000,335.211000C382.542000,335.473000,381.563000,335.755000,380.563000,336.045000L380.260000,336.127000C379.143000,336.458000,378.005000,336.817000,376.854000,337.161000C336.712000,349.739000,318.905000,381.268000,313.549000,400.813000L325.420000,400.813000C321.877000,417.298000,314.604000,434.789000,315.341000,472.520000C316.852000,471.588000,318.563000,471.027000,320.334000,470.883000C322.104000,470.740000,323.883000,471.018000,325.525000,471.696000C327.166000,472.373000,328.624000,473.430000,329.778000,474.780000C330.932000,476.130000,331.749000,477.734000,332.162000,479.460000C332.754000,477.008000,334.154000,474.826000,336.136000,473.266000C338.119000,471.705000,340.569000,470.857000,343.092000,470.857000C345.615000,470.857000,348.065000,471.705000,350.048000,473.266000C352.030000,474.826000,353.430000,477.008000,354.022000,479.460000C354.614000,477.008000,356.014000,474.826000,357.996000,473.266000C359.979000,471.705000,362.429000,470.857000,364.952000,470.857000C367.475000,470.857000,369.925000,471.705000,371.908000,473.266000C373.891000,474.826000,375.290000,477.008000,375.882000,479.460000C376.474000,477.008000,377.874000,474.826000,379.856000,473.266000C381.839000,471.705000,384.289000,470.857000,386.812000,470.857000C389.336000,470.857000,391.786000,471.705000,393.768000,473.266000C395.751000,474.826000,397.150000,477.008000,397.742000,479.460000C398.334000,477.008000,399.734000,474.826000,401.716000,473.266000C403.699000,471.705000,406.149000,470.857000,408.672000,470.857000C411.196000,470.857000,413.646000,471.705000,415.628000,473.266000C417.611000,474.826000,419.010000,477.008000,419.602000,479.460000C420.122000,477.269000,421.289000,475.284000,422.951000,473.764000C424.613000,472.243000,426.694000,471.257000,428.924000,470.934000C431.153000,470.611000,433.429000,470.965000,435.454000,471.951000C437.480000,472.937000,439.163000,474.509000,440.284000,476.462000C441.407000,466.918000,442.634000,456.105000,443.730000,443.851000C450.045000,372.984000,454.857000,352.199000,418.265000,331.310000Z" fill="rgb(234,165,139)" stroke="none" stroke-width="1"/>
    <path id="eba7ha49d1l112" d="M423.201000,572.422000C423.546000,562.560000,416.569000,551.912000,397.756000,543.367000C376.461000,533.718000,385.933000,509.191000,391.710000,444.492000C398.163000,372.240000,403.050000,352.047000,364.066000,330.724000C329.990000,312.117000,295.274000,299.877000,295.274000,299.877000" fill="none" stroke="rgb(161,88,66)" stroke-width="4" stroke-linecap="round" stroke-miterlimit="10"/>
    <path id="eba7ha49d1l113" d="M376.854000,337.154000C334.919000,350.324000,318.664000,381.351000,313.521000,400.806000C318.905000,381.275000,336.712000,349.759000,376.854000,337.154000Z" fill="rgb(161,88,66)" stroke="none" stroke-width="1"/>
    <path id="eba7ha49d1l114" d="M353.705000,331.372000C368.100000,324.595000,383.876000,321.264000,399.783000,321.641000C382.691000,313.243000,365.162000,305.762000,347.273000,299.229000L205.834000,299.229000C205.834000,299.229000,201.974000,305.659000,199.981000,316.886000C199.981000,317.003000,199.947000,317.113000,199.926000,317.231000L221.903000,317.231000L221.903000,328.946000C221.903000,331.547000,221.391000,334.123000,220.395000,336.526000C219.400000,338.929000,217.940000,341.113000,216.100000,342.952000C214.261000,344.791000,212.076000,346.250000,209.673000,347.245000C207.269000,348.241000,204.693000,348.753000,202.091000,348.753000L201.195000,348.753000C208.895000,378.277000,234.615000,400.833000,267.588000,400.833000L295.701000,400.833000C301.416000,379.676000,314.156000,349.938000,353.705000,331.372000Z" fill="rgb(189,206,174)" stroke="none" stroke-width="1"/>
    <path id="eba7ha49d1l115" d="M376.854000,337.154000C393.861000,331.813000,407.111000,330.332000,417.217000,330.717000L416.073000,330.083000C410.613000,327.099000,405.132000,324.274000,399.783000,321.641000C383.876000,321.263000,368.100000,324.595000,353.705000,331.372000C314.156000,349.938000,301.416000,379.676000,295.701000,400.806000L313.521000,400.806000C318.664000,381.351000,334.919000,350.324000,376.854000,337.154000Z" fill="rgb(161,88,66)" stroke="none" stroke-width="1"/>
    <path id="eba7ha49d1l116" d="M326.371000,402.584000L341.634000,402.584000" fill="none" stroke="rgb(161,88,66)" stroke-width="4" stroke-linecap="round" stroke-linejoin="round"/>
    <path id="eba7ha49d1l117" d="M383.707000,261.312000L383.707000,294.088000" fill="none" stroke="rgb(48,36,42)" stroke-width="4" stroke-linecap="round" stroke-miterlimit="10"/>
    <path id="eba7ha49d1l118" d="M400.293000,217.439000C400.293000,217.439000,395.557000,227.501000,383.707000,227.501000C371.856000,227.501000,367.162000,217.439000,367.162000,217.439000" fill="none" stroke="rgb(48,36,42)" stroke-width="4" stroke-linecap="round" stroke-linejoin="round"/>
    <path id="eba7ha49d1l119" d="M369.354000,239.458000L398.066000,239.458000L398.066000,242.456000C398.066000,246.263000,396.553000,249.915000,393.860000,252.607000C391.167000,255.299000,387.515000,256.811000,383.707000,256.811000C379.898000,256.811000,376.246000,255.299000,373.553000,252.607000C370.860000,249.915000,369.347000,246.263000,369.347000,242.456000L369.347000,239.458000L369.354000,239.458000Z" fill="rgb(161,88,66)" stroke="none" stroke-width="1"/>
    <path id="eba7ha49d1l120" d="M368.940000,216.316000L398.480000,216.316000C398.904000,216.316000,399.325000,216.399000,399.717000,216.562000C400.109000,216.724000,400.466000,216.962000,400.766000,217.262000C401.066000,217.563000,401.304000,217.919000,401.467000,218.311000C401.629000,218.703000,401.713000,219.124000,401.713000,219.548000L401.713000,242.670000C401.713000,247.442000,399.817000,252.019000,396.441000,255.393000C393.065000,258.768000,388.487000,260.664000,383.713000,260.664000L383.713000,260.664000C381.350000,260.664000,379.009000,260.198000,376.825000,259.294000C374.641000,258.390000,372.657000,257.064000,370.986000,255.393000C369.314000,253.722000,367.989000,251.739000,367.084000,249.556000C366.179000,247.372000,365.714000,245.033000,365.714000,242.670000L365.714000,219.548000C365.714000,218.691000,366.054000,217.869000,366.661000,217.262000C367.267000,216.656000,368.090000,216.316000,368.947000,216.316000L368.940000,216.316000Z" fill="none" stroke="rgb(48,36,42)" stroke-width="4" stroke-linecap="round" stroke-miterlimit="10"/>
    <path id="eba7ha49d1l121" d="M383.707000,290.877000L369.354000,299.229000L398.066000,299.229000L383.707000,290.877000Z" fill="rgb(48,35,42)" stroke="none" stroke-width="1"/>
    <path id="eba7ha49d1l122" d="M554.672000,261.312000L554.672000,294.088000" fill="none" stroke="rgb(48,36,42)" stroke-width="4" stroke-linecap="round" stroke-miterlimit="10"/>
    <path id="eba7ha49d1l123" d="M571.258000,217.439000C571.258000,217.439000,566.522000,227.501000,554.672000,227.501000C542.821000,227.501000,538.127000,217.439000,538.127000,217.439000" fill="none" stroke="rgb(48,36,42)" stroke-width="4" stroke-linecap="round" stroke-linejoin="round"/>
    <path id="eba7ha49d1l124" d="M540.319000,239.458000L569.031000,239.458000L569.031000,242.456000C569.031000,246.263000,567.518000,249.915000,564.825000,252.607000C562.132000,255.299000,558.480000,256.811000,554.672000,256.811000C550.863000,256.811000,547.211000,255.299000,544.518000,252.607000C541.825000,249.915000,540.312000,246.263000,540.312000,242.456000L540.312000,239.458000L540.319000,239.458000Z" fill="rgb(46,64,75)" stroke="none" stroke-width="1"/>
    <path id="eba7ha49d1l125" d="M539.905000,216.316000L569.445000,216.316000C569.869000,216.316000,570.290000,216.399000,570.682000,216.562000C571.074000,216.724000,571.431000,216.962000,571.731000,217.262000C572.031000,217.563000,572.269000,217.919000,572.432000,218.311000C572.594000,218.703000,572.678000,219.124000,572.678000,219.548000L572.678000,242.670000C572.678000,247.442000,570.782000,252.019000,567.406000,255.393000C564.031000,258.768000,559.452000,260.664000,554.678000,260.664000L554.678000,260.664000C549.905000,260.664000,545.326000,258.768000,541.951000,255.393000C538.575000,252.019000,536.679000,247.442000,536.679000,242.670000L536.679000,219.548000C536.679000,218.691000,537.019000,217.869000,537.626000,217.262000C538.232000,216.656000,539.055000,216.316000,539.912000,216.316000L539.905000,216.316000Z" fill="none" stroke="rgb(48,36,42)" stroke-width="4" stroke-linecap="round" stroke-miterlimit="10"/>
    <path id="eba7ha49d1l126" d="M554.672000,290.877000L540.319000,299.229000L569.031000,299.229000L554.672000,290.877000Z" fill="rgb(48,35,42)" stroke="none" stroke-width="1"/>
    <path id="eba7ha49d1l127" d="M807.134000,572.904000C821.340000,572.904000,832.855000,561.392000,832.855000,547.192000C832.855000,532.991000,821.340000,521.479000,807.134000,521.479000C792.929000,521.479000,781.414000,532.991000,781.414000,547.192000C781.414000,561.392000,792.929000,572.904000,807.134000,572.904000Z" fill="rgb(244,205,156)" stroke="none" stroke-width="1"/>
    <path id="eba7ha49d1l128" d="M201.974000,258.100000C201.974000,258.100000,232.196000,255.619000,245.232000,255.013000" fill="none" stroke="rgb(161,88,66)" stroke-width="4" stroke-linecap="round" stroke-miterlimit="10"/>
    <path id="eba7ha49d1l129" d="M166.085000,378.566000L155.744000,338.126000L216.071000,338.126000C229.510000,338.125000,242.567000,342.595000,253.184000,350.830000C263.802000,359.065000,271.377000,370.598000,274.716000,383.611000L281.720000,411.005000L207.909000,411.005000C198.325000,411.007000,189.012000,407.820000,181.439000,401.947000C173.867000,396.073000,168.465000,387.848000,166.085000,378.566000Z" fill="rgb(237,137,137)" stroke="none" stroke-width="1"/>
    <path id="eba7ha49d1l130" d="M710.332000,279.306000L592.877000,279.306000L592.877000,291.518000L710.332000,291.518000L710.332000,279.306000Z" fill="rgb(245,235,221)" stroke="none" stroke-width="1"/>
    <path id="eba7ha49d1l131" d="M472.464000,256.811000L448.673000,256.811000L424.883000,256.811000L424.883000,278.024000L448.673000,278.024000L472.464000,278.024000L496.254000,278.024000L496.254000,256.811000L472.464000,256.811000Z" fill="rgb(234,165,139)" stroke="none" stroke-width="1"/>
    <path id="eba7ha49d1l132" d="M472.464000,278.024000L448.673000,278.024000L424.883000,278.024000L424.883000,299.229000L448.673000,299.229000L472.464000,299.229000L496.254000,299.229000L496.254000,278.024000L472.464000,278.024000Z" fill="rgb(234,165,139)" stroke="none" stroke-width="1"/>
    <path id="eba7ha49d1l133" d="M472.464000,235.599000L448.673000,235.599000L424.883000,235.599000L424.883000,256.811000L448.673000,256.811000L472.464000,256.811000L496.254000,256.811000L496.254000,235.599000L472.464000,235.599000Z" fill="rgb(234,165,139)" stroke="none" stroke-width="1"/>
    <path id="eba7ha49d1l134" d="M472.464000,193.180000L448.673000,193.180000L424.883000,193.180000L424.883000,214.393000L448.673000,214.393000L472.464000,214.393000L496.254000,214.393000L496.254000,193.180000L472.464000,193.180000Z" fill="rgb(234,165,139)" stroke="none" stroke-width="1"/>
    <path id="eba7ha49d1l135" d="M472.464000,150.762000L448.673000,150.762000L424.883000,150.762000L424.883000,171.968000L448.673000,171.968000L472.464000,171.968000L496.254000,171.968000L496.254000,150.762000L472.464000,150.762000Z" fill="rgb(234,165,139)" stroke="none" stroke-width="1"/>
    <path id="eba7ha49d1l136" d="M472.464000,214.393000L448.673000,214.393000L448.673000,235.606000L472.464000,235.606000L472.464000,214.393000Z" fill="rgb(234,165,139)" stroke="none" stroke-width="1"/>
    <path id="eba7ha49d1l137" d="M472.464000,171.968000L448.673000,171.968000L448.673000,193.181000L472.464000,193.181000L472.464000,171.968000Z" fill="rgb(234,165,139)" stroke="none" stroke-width="1"/>
    <path id="eba7ha49d1l138" d="M472.464000,278.024000L472.464000,256.811000" fill="none" stroke="rgb(161,88,66)" stroke-width="4" stroke-linejoin="round"/>
    <path id="eba7ha49d1l139" d="M448.673000,278.024000L448.673000,256.811000" fill="none" stroke="rgb(161,88,66)" stroke-width="4" stroke-linejoin="round"/>
    <path id="eba7ha49d1l140" d="M472.464000,128.626000L448.673000,128.626000L424.883000,128.626000L424.883000,149.839000L448.673000,149.839000L472.464000,149.839000L496.254000,149.839000L496.254000,128.626000L472.464000,128.626000Z" fill="rgb(234,165,139)" stroke="none" stroke-width="1"/>
    <path id="eba7ha49d1l141" d="M472.464000,149.839000L472.464000,128.626000" fill="none" stroke="rgb(161,88,66)" stroke-width="4" stroke-linejoin="round"/>
    <path id="eba7ha49d1l142" d="M448.673000,149.839000L448.673000,128.626000" fill="none" stroke="rgb(161,88,66)" stroke-width="4" stroke-linejoin="round"/>
    <path id="eba7ha49d1l143" d="M424.883000,278.024000L448.673000,278.024000L472.464000,278.024000L496.254000,278.024000" fill="none" stroke="rgb(161,88,66)" stroke-width="4" stroke-linejoin="round"/>
    <path id="eba7ha49d1l144" d="M424.883000,256.811000L448.673000,256.811000L472.464000,256.811000L496.254000,256.811000" fill="none" stroke="rgb(161,88,66)" stroke-width="4" stroke-linejoin="round"/>
    <path id="eba7ha49d1l145" d="M424.883000,150.762000L448.673000,150.762000L472.464000,150.762000L496.254000,150.762000" fill="none" stroke="rgb(161,88,66)" stroke-width="4" stroke-linejoin="round"/>
    <path id="eba7ha49d1l146" d="M448.673000,234.317000L456.601000,234.317000L464.536000,234.317000L472.464000,234.317000" fill="none" stroke="rgb(161,88,66)" stroke-width="4" stroke-linejoin="round"/>
    <path id="eba7ha49d1l147" d="M448.673000,215.675000L456.601000,215.675000L464.536000,215.675000L472.464000,215.675000" fill="none" stroke="rgb(161,88,66)" stroke-width="4" stroke-linejoin="round"/>
    <path id="eba7ha49d1l148" d="M448.673000,191.899000L456.601000,191.899000L464.536000,191.899000L472.464000,191.899000" fill="none" stroke="rgb(161,88,66)" stroke-width="4" stroke-linejoin="round"/>
    <path id="eba7ha49d1l149" d="M448.673000,173.257000L456.601000,173.257000L464.536000,173.257000L472.464000,173.257000" fill="none" stroke="rgb(161,88,66)" stroke-width="4" stroke-linejoin="round"/>
    <path id="eba7ha49d1l150" d="M560.455000,519.694000L544.903000,519.694000C544.559000,528.198000,542.683000,534.166000,538.237000,538.460000C536.329000,540.242000,534.131000,541.685000,531.736000,542.726000C530.157000,543.415000,528.689000,544.180000,527.310000,544.931000C532.136000,548.046000,536.962000,555.048000,536.962000,555.048000C540.709000,554.289000,544.257000,552.757000,547.378000,550.548000C553.638000,546.344000,558.704000,540.410000,561.166000,537.212000C561.882000,536.287000,562.802000,535.539000,563.854000,535.027000C564.906000,534.514000,566.062000,534.250000,567.232000,534.256000L571.651000,534.256000C571.991000,532.202000,572.221000,530.132000,572.340000,528.053000C572.306000,525.497000,570.410000,519.694000,560.455000,519.694000Z" fill="rgb(237,137,137)" stroke="none" stroke-width="1"/>
    <path id="eba7ha49d1l151" d="M571.644000,534.270000L567.225000,534.270000C566.055000,534.264000,564.899000,534.528000,563.847000,535.040000C562.795000,535.553000,561.875000,536.301000,561.159000,537.226000C558.684000,540.424000,553.617000,546.358000,547.371000,550.562000C544.250000,552.770000,540.702000,554.303000,536.955000,555.062000C536.955000,555.062000,532.129000,548.060000,527.303000,544.945000C526.793000,545.214000,526.304000,545.489000,525.821000,545.765000C515.377000,551.788000,510.944000,558.604000,509.621000,565.344000L600.742000,565.344000C602.217000,560.485000,603.429000,555.551000,604.375000,550.562000C605.265000,545.979000,606.126000,540.631000,606.850000,534.470000L571.644000,534.270000Z" fill="rgb(48,36,42)" stroke="none" stroke-width="1"/>
    <path id="eba7ha49d1l152" d="M509.297000,572.898000L597.930000,572.898000C599.049000,570.442000,599.986000,567.909000,600.736000,565.317000L509.628000,565.317000C509.158000,567.815000,509.046000,570.368000,509.297000,572.898000Z" fill="rgb(237,137,137)" stroke="none" stroke-width="1"/>
    <path id="eba7ha49d1l153" d="M542.125000,531.837000L560.738000,544.242000" fill="none" stroke="rgb(245,235,221)" stroke-width="4" stroke-linecap="round" stroke-miterlimit="10"/>
    <path id="eba7ha49d1l154" d="M535.231000,539.418000L549.708000,553.201000" fill="none" stroke="rgb(245,235,221)" stroke-width="4" stroke-linecap="round" stroke-miterlimit="10"/>
    <path id="eba7ha49d1l155" d="M731.434000,336.065000C726.553000,307.927000,709.891000,291.518000,709.891000,291.518000L665.957000,291.518000C665.957000,291.518000,598.268000,310.056000,565.433000,330.111000C527.517000,353.253000,531.329000,371.626000,537.782000,443.879000C540.084000,469.647000,542.973000,489.033000,544.269000,503.650000L608.863000,503.650000C608.863000,503.567000,608.863000,503.485000,608.863000,503.402000L620.783000,503.402000C620.783000,503.402000,626.904000,475.091000,620.135000,449.861000C613.034000,423.410000,606.581000,418.896000,602.714000,400.833000L676.808000,400.833000C711.153000,400.806000,737.301000,369.890000,731.434000,336.065000Z" fill="rgb(48,36,42)" stroke="none" stroke-width="1"/>
    <path id="eba7ha49d1l156" d="M544.903000,519.694000L560.462000,519.694000C570.382000,519.694000,572.313000,525.476000,572.313000,528.047000C572.193000,530.125000,571.963000,532.195000,571.623000,534.249000L606.823000,534.428000C607.850000,525.793000,608.608000,515.566000,608.843000,503.602000L544.248000,503.602000C544.800000,508.947000,545.018000,514.321000,544.903000,519.694000Z" fill="rgb(161,88,66)" stroke="none" stroke-width="1"/>
    <path id="eba7ha49d1l157" d="M602.101000,401.895000L586.507000,401.895000" fill="none" stroke="rgb(0,0,0)" stroke-width="4" stroke-linecap="round" stroke-linejoin="round"/>
    <path id="eba7ha49d1l158" d="M425.621000,505.649000L437.340000,524.256000" fill="none" stroke="rgb(245,235,221)" stroke-width="4" stroke-linecap="round" stroke-miterlimit="10"/>
    <path id="eba7ha49d1l159" d="M417.348000,509.784000L424.931000,528.391000" fill="none" stroke="rgb(245,235,221)" stroke-width="4" stroke-linecap="round" stroke-miterlimit="10"/>
    <path id="eba7ha49d1l160" d="M762.387000,378.566000L772.728000,338.126000L712.421000,338.126000C698.982000,338.124000,685.925000,342.593000,675.307000,350.828000C664.689000,359.064000,657.114000,370.597000,653.776000,383.611000L646.765000,411.005000L720.556000,411.005000C730.141000,411.007000,739.455000,407.821000,747.028000,401.947000C754.602000,396.074000,760.006000,387.848000,762.387000,378.566000Z" fill="rgb(244,205,156)" stroke="none" stroke-width="1"/>
    <path id="eba7ha49d1l161" d="M677.746000,299.229000L248.906000,299.229000C244.292000,299.229000,240.551000,302.969000,240.551000,307.582000L240.551000,307.589000C240.551000,312.202000,244.292000,315.942000,248.906000,315.942000L677.746000,315.942000C682.360000,315.942000,686.101000,312.202000,686.101000,307.589000L686.101000,307.582000C686.101000,302.969000,682.360000,299.229000,677.746000,299.229000Z" fill="rgb(161,88,66)" stroke="none" stroke-width="1"/>
    <path id="eba7ha49d1l162" d="M300.988000,260.671000C295.025000,257.962000,279.769000,255.529000,264.982000,255.529000C262.170000,255.529000,259.143000,255.578000,255.979000,255.667000L255.979000,297.334000C263.300000,295.060000,269.332000,292.910000,273.338000,291.518000C273.338000,291.518000,302.774000,313.998000,308.020000,303.716000C308.020000,303.716000,315.700000,306.817000,317.671000,299.229000C317.671000,299.229000,326.675000,299.229000,323.462000,292.806000C321.297000,288.423000,311.894000,278.665000,311.894000,278.665000C311.894000,278.665000,323.062000,285.398000,328.612000,281.235000C333.775000,277.397000,308.054000,263.882000,300.988000,260.671000Z" fill="rgb(234,165,139)" stroke="none" stroke-width="1"/>
    <path id="eba7ha49d1l163" d="M200.043000,259.382000L158.253000,261.312000C154.400000,281.876000,165.147000,303.089000,183.326000,306.300000C207.240000,310.518000,236.270000,303.461000,255.979000,297.341000L255.979000,255.667000C231.830000,256.370000,200.043000,259.382000,200.043000,259.382000Z" fill="rgb(244,205,156)" stroke="none" stroke-width="1"/>
    <path id="eba7ha49d1l164" d="M313.121000,277.900000C308.061000,273.861000,301.147000,268.431000,296.487000,265.164000" fill="none" stroke="rgb(161,88,66)" stroke-width="4" stroke-linecap="round" stroke-miterlimit="10"/>
    <path id="eba7ha49d1l165" d="M288.773000,272.786000C301.409000,281.580000,312.777000,293.185000,318.175000,299.023000" fill="none" stroke="rgb(161,88,66)" stroke-width="4" stroke-linecap="round" stroke-miterlimit="10"/>
    <path id="eba7ha49d1l166" d="M282.830000,281.869000C291.323000,288.072000,301.050000,297.445000,307.400000,303.840000" fill="none" stroke="rgb(161,88,66)" stroke-width="4" stroke-linecap="round" stroke-miterlimit="10"/>
    <path id="eba7ha49d1l167" d="M547.226000,272.883000C533.087000,279.954000,521.830000,292.179000,511.868000,305.019000C507.367000,310.801000,496.013000,325.204000,503.506000,326.872000C509.297000,328.154000,520.872000,316.590000,520.872000,316.590000C520.872000,316.590000,513.902000,331.675000,518.941000,335.886000C522.795000,339.105000,527.903000,333.964000,527.903000,333.964000C532.405000,343.612000,539.478000,335.245000,539.478000,335.245000C550.825000,343.612000,561.979000,312.751000,561.979000,312.751000C568.594000,310.397000,574.856000,307.151000,580.592000,303.103000C580.592000,303.103000,584.260000,304.054000,590.188000,305.225000L584.839000,261.877000C570.851000,264.461000,556.933000,268.031000,547.226000,272.883000Z" fill="rgb(161,88,66)" stroke="none" stroke-width="1"/>
    <path id="eba7ha49d1l168" d="M518.707000,318.512000C520.775000,313.068000,524.422000,303.847000,527.669000,297.624000" fill="none" stroke="rgb(48,36,42)" stroke-width="4" stroke-linecap="round" stroke-miterlimit="10"/>
    <path id="eba7ha49d1l169" d="M539.512000,301.800000C534.135000,313.385000,530.199000,326.079000,528.007000,333.957000" fill="none" stroke="rgb(48,36,42)" stroke-width="4" stroke-linecap="round" stroke-miterlimit="10"/>
    <path id="eba7ha49d1l170" d="M551.728000,305.652000C547.661000,314.956000,543.524000,327.547000,540.925000,335.921000" fill="none" stroke="rgb(48,36,42)" stroke-width="4" stroke-linecap="round" stroke-miterlimit="10"/>
    <path id="eba7ha49d1l171" d="M671.314000,299.229000C693.601000,280.670000,718.329000,239.196000,720.818000,193.180000C722.107000,169.397000,703.459000,157.185000,689.320000,157.185000L684.157000,157.185000L638.513000,255.529000C638.513000,255.529000,611.455000,256.956000,584.894000,261.863000L590.243000,305.211000C609.415000,309.009000,652.197000,315.156000,671.314000,299.229000Z" fill="rgb(189,206,174)" stroke="none" stroke-width="1"/>
    <path id="eba7ha49d1l172" d="M658.030000,213.621000L639.217000,254.151000" fill="none" stroke="rgb(116,135,98)" stroke-width="4" stroke-linecap="round" stroke-linejoin="round"/>
    <path id="eba7ha49d1l173" d="M690.320000,278.306000C694.705000,272.196000,698.656000,265.784000,702.143000,259.120000C704.211000,255.178000,706.175000,251.071000,707.989000,246.818000" fill="none" stroke="rgb(116,135,98)" stroke-width="4" stroke-linecap="round" stroke-linejoin="round"/>
    <path id="eba7ha49d1l174" d="M596.944000,258.582000C619.342000,255.199000,631.744000,254.792000,640.016000,254.103000C645.531000,253.648000,653.114000,253.414000,653.114000,253.414000" fill="none" stroke="rgb(116,135,98)" stroke-width="4" stroke-linecap="round" stroke-linejoin="round"/>
    <path id="eba7ha49d1l175" d="M606.058000,297.948000C609.077000,297.948000,611.524000,295.501000,611.524000,292.483000C611.524000,289.464000,609.077000,287.017000,606.058000,287.017000C603.038000,287.017000,600.591000,289.464000,600.591000,292.483000C600.591000,295.501000,603.038000,297.948000,606.058000,297.948000Z" fill="rgb(48,36,42)" stroke="none" stroke-width="1"/>
    <path id="eba7ha49d1l176" d="M590.636000,306.528000C584.887000,305.384000,581.350000,304.460000,581.350000,304.460000C575.614000,308.509000,569.352000,311.755000,562.737000,314.109000C562.737000,314.109000,562.351000,315.184000,561.641000,316.865000" fill="none" stroke="rgb(48,36,42)" stroke-width="4" stroke-linecap="round" stroke-miterlimit="10"/>
    <path id="eba7ha49d1l177" d="M503.058000,315.342000C505.352000,311.768000,507.832000,308.318000,510.489000,305.005000C511.804000,303.309000,513.144000,301.630000,514.509000,299.967000" fill="none" stroke="rgb(48,36,42)" stroke-width="4" stroke-linecap="round" stroke-miterlimit="10"/>
</svg>
